STARTFONT 2.1
COMMENT $XFree86$
COMMENT ISO10646-1 extension by Markus Kuhn <mkuhn@acm.org>, 2001-03-20
COMMENT  (c) Copyright Bigelow & Holmes 1986, 1985. Lucida is a registered
COMMENT  trademark of Bigelow & Holmes. See LEGAL NOTICE file for terms 
COMMENT  of the license. 
FONT -B&H-LucidaBright-DemiBold-I-Normal--19-190-75-75-P-114-ISO10646-1
SIZE 19 72 72
FONTBOUNDINGBOX 34 31 -11 -9
STARTPROPERTIES 22
COMMENT Begin LogicalFontDescription
FONTNAME_REGISTRY ""
FOUNDRY "B&H"
FAMILY_NAME "LucidaBright"
WEIGHT_NAME "DemiBold"
SLANT "I"
SETWIDTH_NAME "Normal"
ADD_STYLE_NAME ""
PIXEL_SIZE 19
POINT_SIZE 190
RESOLUTION_X 100
RESOLUTION_Y 100
SPACING "P"
AVERAGE_WIDTH 114
CHARSET_REGISTRY "ISO10646"
CHARSET_ENCODING "1"
COMMENT END LogicalFontDescription
COPYRIGHT "Copyright Bigelow & Holmes 1986, 1985."
FONT_ASCENT 17
FONT_DESCENT 4
DEFAULT_CHAR 0
FACE_NAME "Lucida Bright Demibold Italic"
X_HEIGHT 10
CAP_HEIGHT 14
ENDPROPERTIES
CHARS 723
STARTCHAR char0
ENCODING 0
SWIDTH 827 0
DWIDTH 16 0
BBX 17 13 1 0
BITMAP
AAAA80
000000
800080
000000
800080
000000
800080
000000
800080
000000
800080
000000
AAAA80
ENDCHAR
STARTCHAR space
ENCODING 32
SWIDTH 333 0
DWIDTH 6 0
BBX 1 1 0 0
BITMAP
00
ENDCHAR
STARTCHAR exclam
ENCODING 33
SWIDTH 265 0
DWIDTH 5 0
BBX 5 14 1 0
BITMAP
38
38
38
30
30
30
30
20
60
60
00
00
E0
E0
ENDCHAR
STARTCHAR quotedbl
ENCODING 34
SWIDTH 451 0
DWIDTH 9 0
BBX 7 5 3 9
BITMAP
EE
CE
C4
44
44
ENDCHAR
STARTCHAR numbersign
ENCODING 35
SWIDTH 636 0
DWIDTH 13 0
BBX 12 14 2 0
BITMAP
0130
0220
0260
0440
7FF0
0880
0880
1900
1100
FFE0
2200
6400
4400
C800
ENDCHAR
STARTCHAR dollar
ENCODING 36
SWIDTH 636 0
DWIDTH 12 0
BBX 10 17 3 -2
BITMAP
0200
0FC0
1AC0
32C0
3400
3C00
1C00
1E00
0F00
0F00
0B80
0B80
CB00
CF00
FC00
1000
1000
ENDCHAR
STARTCHAR percent
ENCODING 37
SWIDTH 772 0
DWIDTH 15 0
BBX 15 14 1 0
BITMAP
3C0E
6618
6630
C620
C660
6CC0
7980
0378
06CC
0CCC
19CC
318C
60D8
C0F0
ENDCHAR
STARTCHAR ampersand
ENCODING 38
SWIDTH 773 0
DWIDTH 15 0
BBX 14 14 2 0
BITMAP
0380
0EC0
0CC0
0CC0
0C80
0F00
367C
6630
E730
E320
E3C0
E180
71C0
3EF0
ENDCHAR
STARTCHAR quotesingle
ENCODING 39
SWIDTH 247 0
DWIDTH 5 0
BBX 3 6 3 8
BITMAP
E0
E0
E0
40
40
40
ENDCHAR
STARTCHAR parenleft
ENCODING 40
SWIDTH 336 0
DWIDTH 6 0
BBX 7 18 2 -4
BITMAP
02
04
08
18
30
70
60
60
E0
E0
E0
E0
E0
E0
60
60
20
20
ENDCHAR
STARTCHAR parenright
ENCODING 41
SWIDTH 336 0
DWIDTH 6 0
BBX 7 18 0 -4
BITMAP
10
08
0C
0C
0E
0E
0E
0E
0E
0E
0C
1C
18
18
30
20
40
80
ENDCHAR
STARTCHAR asterisk
ENCODING 42
SWIDTH 434 0
DWIDTH 9 0
BBX 7 7 3 7
BITMAP
18
5A
D6
6C
38
EC
48
ENDCHAR
STARTCHAR plus
ENCODING 43
SWIDTH 636 0
DWIDTH 12 0
BBX 11 12 2 0
BITMAP
0200
0200
0600
0600
0600
0400
FFE0
0400
0C00
0C00
0800
0800
ENDCHAR
STARTCHAR comma
ENCODING 44
SWIDTH 265 0
DWIDTH 5 0
BBX 4 7 1 -4
BITMAP
70
70
70
20
60
60
C0
ENDCHAR
STARTCHAR hyphen
ENCODING 45
SWIDTH 289 0
DWIDTH 5 0
BBX 5 1 1 6
BITMAP
F8
ENDCHAR
STARTCHAR period
ENCODING 46
SWIDTH 265 0
DWIDTH 5 0
BBX 4 3 1 0
BITMAP
70
F0
E0
ENDCHAR
STARTCHAR slash
ENCODING 47
SWIDTH 515 0
DWIDTH 10 0
BBX 13 18 0 -4
BITMAP
0018
0010
0020
0060
0040
0080
0080
0100
0200
0200
0400
0C00
0800
1000
3000
2000
4000
C000
ENDCHAR
STARTCHAR zero
ENCODING 48
SWIDTH 623 0
DWIDTH 12 0
BBX 11 14 2 0
BITMAP
0780
1CC0
38E0
30E0
70E0
60E0
E0E0
E0E0
E0E0
E1C0
E1C0
E380
6300
3C00
ENDCHAR
STARTCHAR one
ENCODING 49
SWIDTH 636 0
DWIDTH 12 0
BBX 8 14 2 0
BITMAP
3F
07
06
0E
0E
0E
0E
0C
1C
1C
1C
1C
3C
FF
ENDCHAR
STARTCHAR two
ENCODING 50
SWIDTH 636 0
DWIDTH 12 0
BBX 11 14 2 0
BITMAP
0F80
19C0
10E0
30E0
00E0
01C0
0380
0600
0800
1000
2000
6000
FF80
FF80
ENDCHAR
STARTCHAR three
ENCODING 51
SWIDTH 636 0
DWIDTH 12 0
BBX 11 14 2 0
BITMAP
1F80
11C0
10E0
00C0
01C0
0380
1E00
0380
0180
01C0
01C0
C380
C700
FE00
ENDCHAR
STARTCHAR four
ENCODING 52
SWIDTH 636 0
DWIDTH 12 0
BBX 11 14 1 0
BITMAP
00E0
01E0
02C0
06C0
0CC0
19C0
31C0
6180
C180
FFE0
0380
0300
0300
0FC0
ENDCHAR
STARTCHAR five
ENCODING 53
SWIDTH 636 0
DWIDTH 12 0
BBX 11 14 2 0
BITMAP
1FE0
1FE0
1000
2000
2000
3C00
0700
0380
0180
01C0
0180
C380
C700
FC00
ENDCHAR
STARTCHAR six
ENCODING 54
SWIDTH 636 0
DWIDTH 12 0
BBX 11 14 2 0
BITMAP
07E0
0C60
1860
3000
7000
6F80
F1C0
E1C0
E0C0
E0C0
E1C0
6180
7300
3E00
ENDCHAR
STARTCHAR seven
ENCODING 55
SWIDTH 636 0
DWIDTH 12 0
BBX 11 14 3 0
BITMAP
7FE0
7FE0
0040
0080
0100
0200
0600
0C00
1800
3800
7000
7000
E000
E000
ENDCHAR
STARTCHAR eight
ENCODING 56
SWIDTH 636 0
DWIDTH 12 0
BBX 11 14 2 0
BITMAP
07C0
1CE0
3860
3860
38C0
1F80
0F00
37C0
61C0
E0E0
E0C0
E0C0
7180
3E00
ENDCHAR
STARTCHAR nine
ENCODING 57
SWIDTH 636 0
DWIDTH 12 0
BBX 11 14 1 0
BITMAP
0F80
18C0
30E0
70E0
70E0
70E0
70E0
71E0
1EE0
01C0
01C0
C380
C700
FC00
ENDCHAR
STARTCHAR colon
ENCODING 58
SWIDTH 265 0
DWIDTH 5 0
BBX 5 10 1 0
BITMAP
38
38
38
00
00
00
00
E0
E0
E0
ENDCHAR
STARTCHAR semicolon
ENCODING 59
SWIDTH 265 0
DWIDTH 5 0
BBX 5 14 1 -4
BITMAP
38
38
38
00
00
00
00
00
70
60
60
60
60
C0
ENDCHAR
STARTCHAR less
ENCODING 60
SWIDTH 636 0
DWIDTH 12 0
BBX 12 12 2 0
BITMAP
0010
0070
01C0
0700
1C00
F000
7000
1800
0E00
0380
01C0
0040
ENDCHAR
STARTCHAR equal
ENCODING 61
SWIDTH 636 0
DWIDTH 12 0
BBX 12 5 1 3
BITMAP
7FF0
0000
0000
0000
FFE0
ENDCHAR
STARTCHAR greater
ENCODING 62
SWIDTH 636 0
DWIDTH 12 0
BBX 12 12 0 0
BITMAP
2000
3800
1C00
0700
0180
00E0
00F0
0380
0E00
3800
E000
8000
ENDCHAR
STARTCHAR question
ENCODING 63
SWIDTH 493 0
DWIDTH 9 0
BBX 8 14 3 0
BITMAP
7E
47
C7
07
06
0C
08
30
30
60
00
00
E0
E0
ENDCHAR
STARTCHAR at
ENCODING 64
SWIDTH 861 0
DWIDTH 16 0
BBX 14 14 2 0
BITMAP
03E0
0C18
1008
2384
4464
4844
98C4
99C4
99C4
9AC8
9CF0
4000
2080
1F00
ENDCHAR
STARTCHAR A
ENCODING 65
SWIDTH 765 0
DWIDTH 15 0
BBX 15 14 0 0
BITMAP
0060
0060
00E0
0170
0170
0270
0630
0438
0838
0FF8
1038
201C
601C
F07E
ENDCHAR
STARTCHAR B
ENCODING 66
SWIDTH 651 0
DWIDTH 12 0
BBX 12 14 1 0
BITMAP
3FE0
0C70
0C70
1C70
1C60
18E0
1F80
19C0
38E0
38E0
38E0
30E0
71C0
FF80
ENDCHAR
STARTCHAR C
ENCODING 67
SWIDTH 740 0
DWIDTH 14 0
BBX 13 14 2 0
BITMAP
03F8
0E18
1818
3010
7000
7000
E000
E000
E000
E000
E000
7000
7860
1F80
ENDCHAR
STARTCHAR D
ENCODING 68
SWIDTH 822 0
DWIDTH 16 0
BBX 16 14 0 0
BITMAP
1FF8
0E1E
0E0E
0E07
1E07
1C07
1C07
1C07
1C0E
380E
381C
3818
3870
FFC0
ENDCHAR
STARTCHAR E
ENCODING 69
SWIDTH 630 0
DWIDTH 12 0
BBX 13 14 1 0
BITMAP
1FF8
0E18
0E18
0C00
1C00
1C60
1FC0
1C40
1800
3800
3800
3820
3860
FFE0
ENDCHAR
STARTCHAR F
ENCODING 70
SWIDTH 602 0
DWIDTH 11 0
BBX 13 14 1 0
BITMAP
1FF8
0E18
0E18
0C00
1C00
1C60
1FC0
1C40
1800
3800
3800
3800
3800
FC00
ENDCHAR
STARTCHAR G
ENCODING 71
SWIDTH 780 0
DWIDTH 15 0
BBX 13 14 2 0
BITMAP
03F8
0E18
1818
3818
7000
7000
E000
E000
E1F8
E0F0
E0E0
70E0
78E0
1F80
ENDCHAR
STARTCHAR H
ENCODING 72
SWIDTH 827 0
DWIDTH 16 0
BBX 17 14 1 0
BITMAP
1F9F80
0E0E00
0E0E00
0C0E00
1C0E00
1C0C00
1FFC00
1C1C00
181C00
381C00
381800
383800
383800
FCFC00
ENDCHAR
STARTCHAR I
ENCODING 73
SWIDTH 372 0
DWIDTH 7 0
BBX 9 14 0 0
BITMAP
1F80
0E00
0E00
0E00
0E00
1C00
1C00
1C00
1C00
1800
3800
3800
3800
FC00
ENDCHAR
STARTCHAR J
ENCODING 74
SWIDTH 478 0
DWIDTH 9 0
BBX 12 18 0 -4
BITMAP
03F0
01E0
01C0
01C0
01C0
0380
0380
0380
0380
0380
0380
0700
0700
0700
0700
CE00
CC00
F800
ENDCHAR
STARTCHAR K
ENCODING 75
SWIDTH 746 0
DWIDTH 14 0
BBX 15 14 1 0
BITMAP
1F9E
0E08
0E10
0C60
1CC0
1D00
1F00
1F80
1BC0
39E0
38E0
3870
3878
FCFC
ENDCHAR
STARTCHAR L
ENCODING 76
SWIDTH 611 0
DWIDTH 12 0
BBX 11 14 1 0
BITMAP
1F00
0E00
0E00
0C00
1C00
1C00
1C00
1C00
1800
3800
3800
3860
3860
FFC0
ENDCHAR
STARTCHAR M
ENCODING 77
SWIDTH 926 0
DWIDTH 18 0
BBX 19 14 1 0
BITMAP
1E01E0
0E0380
0E0780
0E0780
1B0B80
1B0B00
131300
132700
11A700
31C700
318600
218600
200E00
F81F00
ENDCHAR
STARTCHAR N
ENCODING 78
SWIDTH 797 0
DWIDTH 15 0
BBX 17 14 0 0
BITMAP
1E0F80
0E0200
0F0200
0F0600
1B8600
1B8400
11C400
11C400
10EC00
306C00
307800
203800
203800
F81800
ENDCHAR
STARTCHAR O
ENCODING 79
SWIDTH 831 0
DWIDTH 16 0
BBX 14 14 2 0
BITMAP
03F0
0E38
181C
381C
701C
701C
E01C
E01C
E01C
E038
E030
6060
70C0
1F00
ENDCHAR
STARTCHAR P
ENCODING 80
SWIDTH 628 0
DWIDTH 12 0
BBX 13 14 1 0
BITMAP
1FF0
0E38
0E38
0C38
1C38
1C70
1CE0
1F80
1800
3800
3800
3800
3800
FC00
ENDCHAR
STARTCHAR Q
ENCODING 81
SWIDTH 835 0
DWIDTH 16 0
BBX 16 18 2 -4
BITMAP
03E0
0E38
181C
381C
701C
701C
E01C
E01C
E01C
E03C
E038
6078
70F0
1FE0
0180
0080
0060
001F
ENDCHAR
STARTCHAR R
ENCODING 82
SWIDTH 711 0
DWIDTH 14 0
BBX 13 14 1 0
BITMAP
1FF0
0E38
0E38
0C38
1C38
1C70
1CE0
1F80
19C0
39C0
38E0
38E0
3870
FC78
ENDCHAR
STARTCHAR S
ENCODING 83
SWIDTH 587 0
DWIDTH 11 0
BBX 11 14 1 0
BITMAP
07E0
1C60
3860
3800
3800
3C00
1F00
0F80
0380
01C0
01C0
C380
C300
FE00
ENDCHAR
STARTCHAR T
ENCODING 84
SWIDTH 716 0
DWIDTH 14 0
BBX 13 14 3 0
BITMAP
FFF8
C718
8718
0700
0600
0E00
0E00
0E00
0E00
0C00
1C00
1C00
1C00
7E00
ENDCHAR
STARTCHAR U
ENCODING 85
SWIDTH 775 0
DWIDTH 15 0
BBX 14 14 3 0
BITMAP
FC3C
7818
7010
7010
7010
7020
6020
E020
E020
E060
E040
E040
7080
3F00
ENDCHAR
STARTCHAR V
ENCODING 86
SWIDTH 741 0
DWIDTH 14 0
BBX 14 14 3 0
BITMAP
F83C
7018
7010
3030
3820
3840
3840
3880
1D80
1D00
1E00
1E00
1C00
0800
ENDCHAR
STARTCHAR W
ENCODING 87
SWIDTH 922 0
DWIDTH 17 0
BBX 18 14 2 0
BITMAP
F843C0
70C180
70C100
71E300
71E200
72E600
72E400
74EC00
34E800
38F800
387000
307000
306000
206000
ENDCHAR
STARTCHAR X
ENCODING 88
SWIDTH 672 0
DWIDTH 13 0
BBX 15 14 0 0
BITMAP
1F1E
0E0C
0718
0730
0720
03C0
0380
03C0
07C0
0CC0
18E0
30E0
6070
F1F8
ENDCHAR
STARTCHAR Y
ENCODING 89
SWIDTH 669 0
DWIDTH 13 0
BBX 13 14 2 0
BITMAP
F878
7030
7060
3840
3880
1D00
1F00
0E00
1C00
1C00
1C00
1C00
3C00
7E00
ENDCHAR
STARTCHAR Z
ENCODING 90
SWIDTH 684 0
DWIDTH 13 0
BBX 13 14 1 0
BITMAP
1FF8
1870
10F0
01E0
01C0
0380
0780
0F00
0E00
1C00
3800
7820
7060
FFE0
ENDCHAR
STARTCHAR bracketleft
ENCODING 91
SWIDTH 336 0
DWIDTH 6 0
BBX 8 18 1 -4
BITMAP
0F
1C
1C
18
18
18
38
38
30
30
30
70
70
60
60
60
E0
F8
ENDCHAR
STARTCHAR backslash
ENCODING 92
SWIDTH 515 0
DWIDTH 10 0
BBX 6 18 3 -4
BITMAP
80
40
40
40
40
20
20
20
20
10
10
10
10
08
08
08
08
04
ENDCHAR
STARTCHAR bracketright
ENCODING 93
SWIDTH 336 0
DWIDTH 6 0
BBX 8 18 0 -4
BITMAP
1F
07
06
06
06
0E
0E
0C
0C
0C
1C
1C
18
18
18
38
38
F0
ENDCHAR
STARTCHAR asciicircum
ENCODING 94
SWIDTH 636 0
DWIDTH 12 0
BBX 11 12 1 2
BITMAP
0100
0100
0300
0780
0580
0C80
0880
10C0
3040
2040
4060
C060
ENDCHAR
STARTCHAR underscore
ENCODING 95
SWIDTH 500 0
DWIDTH 9 0
BBX 8 1 1 -2
BITMAP
FF
ENDCHAR
STARTCHAR grave
ENCODING 96
SWIDTH 599 0
DWIDTH 11 0
BBX 4 3 6 11
BITMAP
E0
60
30
ENDCHAR
STARTCHAR a
ENCODING 97
SWIDTH 634 0
DWIDTH 12 0
BBX 11 10 1 0
BITMAP
07E0
18E0
30C0
70C0
61C0
E3C0
E3C0
E580
F980
73E0
ENDCHAR
STARTCHAR b
ENCODING 98
SWIDTH 633 0
DWIDTH 12 0
BBX 11 14 2 0
BITMAP
7C00
1800
3800
3800
39C0
33E0
34E0
78E0
78E0
70C0
61C0
6180
E300
FC00
ENDCHAR
STARTCHAR c
ENCODING 99
SWIDTH 524 0
DWIDTH 10 0
BBX 10 10 1 0
BITMAP
0FC0
1880
3080
7000
E000
E000
E000
E000
6100
3E00
ENDCHAR
STARTCHAR d
ENCODING 100
SWIDTH 634 0
DWIDTH 12 0
BBX 12 14 1 0
BITMAP
00F0
0070
0060
00E0
07E0
18E0
30E0
70C0
61C0
E3C0
E3C0
E5C0
F980
73E0
ENDCHAR
STARTCHAR e
ENCODING 101
SWIDTH 548 0
DWIDTH 10 0
BBX 9 10 1 0
BITMAP
0F00
1380
3180
6380
E700
FC00
E000
E000
F180
3F00
ENDCHAR
STARTCHAR f
ENCODING 102
SWIDTH 415 0
DWIDTH 8 0
BBX 10 19 1 -4
BITMAP
07C0
0CC0
0CC0
1C00
1C00
7F00
3800
3800
3800
3000
3000
7000
7000
7000
7000
6000
E000
E000
E000
ENDCHAR
STARTCHAR g
ENCODING 103
SWIDTH 628 0
DWIDTH 12 0
BBX 12 14 1 -4
BITMAP
03F0
0C70
1860
3060
70E0
71E0
73E0
76C0
7DC0
79C0
01C0
8180
E300
7E00
ENDCHAR
STARTCHAR h
ENCODING 104
SWIDTH 656 0
DWIDTH 12 0
BBX 11 14 2 0
BITMAP
7C00
1800
3800
3800
39C0
3BE0
36E0
74E0
78C0
71C0
71C0
61C0
E1C0
E1E0
ENDCHAR
STARTCHAR i
ENCODING 105
SWIDTH 319 0
DWIDTH 6 0
BBX 6 14 2 0
BITMAP
1C
1C
00
00
F8
38
38
30
70
70
70
60
E0
F8
ENDCHAR
STARTCHAR j
ENCODING 106
SWIDTH 381 0
DWIDTH 7 0
BBX 10 18 0 -4
BITMAP
01C0
01C0
0000
0000
0780
0380
0380
0300
0300
0700
0700
0700
0600
0600
0E00
CC00
CC00
F000
ENDCHAR
STARTCHAR k
ENCODING 107
SWIDTH 626 0
DWIDTH 12 0
BBX 10 14 2 0
BITMAP
7800
3800
3800
3800
31C0
31C0
7380
7700
7C00
6E00
6600
E700
E380
E3C0
ENDCHAR
STARTCHAR l
ENCODING 108
SWIDTH 319 0
DWIDTH 6 0
BBX 6 14 1 0
BITMAP
7C
1C
18
38
38
38
30
30
70
70
70
60
E0
F8
ENDCHAR
STARTCHAR m
ENCODING 109
SWIDTH 969 0
DWIDTH 18 0
BBX 17 10 2 0
BITMAP
F9C700
33EF80
34FB80
78F380
79E300
71C300
61C700
618700
E18700
E38780
ENDCHAR
STARTCHAR n
ENCODING 110
SWIDTH 656 0
DWIDTH 12 0
BBX 11 10 2 0
BITMAP
F9C0
3BE0
36E0
7CE0
78C0
71C0
71C0
61C0
E1C0
E1E0
ENDCHAR
STARTCHAR o
ENCODING 111
SWIDTH 599 0
DWIDTH 11 0
BBX 11 10 1 0
BITMAP
0F80
19C0
30C0
70E0
E0C0
E1C0
E1C0
E180
F300
3C00
ENDCHAR
STARTCHAR p
ENCODING 112
SWIDTH 639 0
DWIDTH 12 0
BBX 12 14 1 -4
BITMAP
7CE0
39F0
3A70
3C70
3870
3860
70E0
70C0
7180
7E00
6000
E000
E000
E000
ENDCHAR
STARTCHAR q
ENCODING 113
SWIDTH 630 0
DWIDTH 12 0
BBX 11 14 1 -4
BITMAP
07E0
18E0
30E0
70C0
61C0
E3C0
E3C0
E5C0
F980
7380
0380
0380
0380
0300
ENDCHAR
STARTCHAR r
ENCODING 114
SWIDTH 496 0
DWIDTH 9 0
BBX 10 10 2 0
BITMAP
F9C0
3B80
3680
7C00
7800
7000
7000
6000
E000
E000
ENDCHAR
STARTCHAR s
ENCODING 115
SWIDTH 479 0
DWIDTH 9 0
BBX 9 10 1 0
BITMAP
1F80
3980
3100
3800
1C00
0E00
0700
C700
C600
7C00
ENDCHAR
STARTCHAR t
ENCODING 116
SWIDTH 375 0
DWIDTH 7 0
BBX 7 13 2 0
BITMAP
18
38
38
FE
70
70
70
70
60
E0
E0
E0
78
ENDCHAR
STARTCHAR u
ENCODING 117
SWIDTH 655 0
DWIDTH 12 0
BBX 11 10 2 0
BITMAP
F1E0
70E0
70C0
70C0
71C0
63C0
E7C0
ED80
FB80
73E0
ENDCHAR
STARTCHAR v
ENCODING 118
SWIDTH 584 0
DWIDTH 11 0
BBX 11 10 2 0
BITMAP
F0E0
70E0
30C0
38C0
3980
3900
1A00
1C00
1800
1000
ENDCHAR
STARTCHAR w
ENCODING 119
SWIDTH 822 0
DWIDTH 16 0
BBX 15 10 2 0
BITMAP
F08E
7186
3184
338C
3BC8
3CD0
3CE0
38E0
18C0
1080
ENDCHAR
STARTCHAR x
ENCODING 120
SWIDTH 534 0
DWIDTH 10 0
BBX 10 10 1 0
BITMAP
79C0
38C0
1D80
1D00
0E00
0E00
3700
6700
C380
C3C0
ENDCHAR
STARTCHAR y
ENCODING 121
SWIDTH 586 0
DWIDTH 11 0
BBX 13 14 0 -4
BITMAP
3C38
1C18
0C18
0E30
0E60
0E40
0680
0700
0700
0600
0400
0800
3000
F000
ENDCHAR
STARTCHAR z
ENCODING 122
SWIDTH 567 0
DWIDTH 11 0
BBX 11 10 1 0
BITMAP
3FE0
31C0
2380
0700
0F00
0E00
1C00
3840
70C0
FF80
ENDCHAR
STARTCHAR braceleft
ENCODING 123
SWIDTH 361 0
DWIDTH 7 0
BBX 7 18 2 -4
BITMAP
0E
1C
18
18
18
18
18
30
20
E0
70
30
70
60
E0
E0
E0
70
ENDCHAR
STARTCHAR bar
ENCODING 124
SWIDTH 253 0
DWIDTH 5 0
BBX 5 18 1 -4
BITMAP
18
18
18
10
10
30
30
30
20
20
60
60
60
40
40
C0
C0
C0
ENDCHAR
STARTCHAR braceright
ENCODING 125
SWIDTH 361 0
DWIDTH 7 0
BBX 7 18 1 -4
BITMAP
1C
0E
0E
0E
0C
1C
18
1C
0E
08
18
30
30
30
30
30
70
E0
ENDCHAR
STARTCHAR asciitilde
ENCODING 126
SWIDTH 636 0
DWIDTH 12 0
BBX 12 5 1 3
BITMAP
3810
4C10
8610
8320
81C0
ENDCHAR
STARTCHAR space
ENCODING 160
SWIDTH 333 0
DWIDTH 6 0
BBX 1 1 0 0
BITMAP
00
ENDCHAR
STARTCHAR exclamdown
ENCODING 161
SWIDTH 265 0
DWIDTH 5 0
BBX 5 14 1 -4
BITMAP
38
38
00
00
30
30
30
60
60
60
60
E0
E0
E0
ENDCHAR
STARTCHAR cent
ENCODING 162
SWIDTH 636 0
DWIDTH 12 0
BBX 10 14 3 0
BITMAP
0200
0200
0FC0
3AC0
7480
7400
E400
E400
E400
E400
F900
7F00
0800
0800
ENDCHAR
STARTCHAR sterling
ENCODING 163
SWIDTH 636 0
DWIDTH 12 0
BBX 11 14 2 0
BITMAP
03E0
0660
0E60
0C00
0C00
1C00
3F00
1C00
1800
1800
3800
2000
FF80
FF00
ENDCHAR
STARTCHAR currency
ENCODING 164
SWIDTH 636 0
DWIDTH 13 0
BBX 14 14 1 0
BITMAP
2004
100C
0F90
0CE0
0860
1820
1020
1060
1060
1040
1880
3FC0
4020
8010
ENDCHAR
STARTCHAR yen
ENCODING 165
SWIDTH 636 0
DWIDTH 12 0
BBX 13 14 2 0
BITMAP
F878
7030
3860
38C0
1C80
1D00
0E00
7F80
1C00
7F00
1C00
1C00
3C00
7E00
ENDCHAR
STARTCHAR brokenbar
ENCODING 166
SWIDTH 253 0
DWIDTH 5 0
BBX 5 18 1 -4
BITMAP
18
18
18
10
10
30
30
30
00
00
60
60
60
40
40
C0
C0
C0
ENDCHAR
STARTCHAR section
ENCODING 167
SWIDTH 636 0
DWIDTH 12 0
BBX 11 18 2 -4
BITMAP
07E0
1C60
1860
3800
3C00
1E00
1F80
33C0
31C0
70C0
3C80
3F00
0F80
0380
0180
C380
C300
FC00
ENDCHAR
STARTCHAR dieresis
ENCODING 168
SWIDTH 599 0
DWIDTH 11 0
BBX 6 1 6 13
BITMAP
CC
ENDCHAR
STARTCHAR copyright
ENCODING 169
SWIDTH 853 0
DWIDTH 16 0
BBX 14 14 2 0
BITMAP
07C0
1830
2018
43E8
4C24
9804
9804
9804
9804
5C04
4FC8
2018
1830
07C0
ENDCHAR
STARTCHAR ordfeminine
ENCODING 170
SWIDTH 468 0
DWIDTH 9 0
BBX 8 8 2 6
BITMAP
1F
33
67
E7
CE
D6
F6
6F
ENDCHAR
STARTCHAR guillemotleft
ENCODING 171
SWIDTH 527 0
DWIDTH 10 0
BBX 10 9 1 1
BITMAP
0840
1C80
3380
7700
EE00
6600
7300
3300
1100
ENDCHAR
STARTCHAR logicalnot
ENCODING 172
SWIDTH 636 0
DWIDTH 12 0
BBX 11 5 2 3
BITMAP
FFE0
0060
0060
0040
0040
ENDCHAR
STARTCHAR hyphen
ENCODING 173
SWIDTH 289 0
DWIDTH 5 0
BBX 5 1 1 6
BITMAP
F8
ENDCHAR
STARTCHAR registered
ENCODING 174
SWIDTH 636 0
DWIDTH 12 0
BBX 8 10 4 4
BITMAP
3C
42
FD
97
95
B9
A9
E5
42
3C
ENDCHAR
STARTCHAR macron
ENCODING 175
SWIDTH 599 0
DWIDTH 11 0
BBX 6 1 5 13
BITMAP
FC
ENDCHAR
STARTCHAR degree
ENCODING 176
SWIDTH 259 0
DWIDTH 5 0
BBX 3 4 4 10
BITMAP
60
A0
A0
60
ENDCHAR
STARTCHAR plusminus
ENCODING 177
SWIDTH 636 0
DWIDTH 12 0
BBX 13 12 0 0
BITMAP
0180
0100
0100
0100
7FF8
0300
0200
0200
0200
0000
0000
FFF0
ENDCHAR
STARTCHAR twosuperior
ENCODING 178
SWIDTH 381 0
DWIDTH 7 0
BBX 7 9 -10 5
BITMAP
3C
26
66
06
0C
30
60
40
FC
ENDCHAR
STARTCHAR threesuperior
ENCODING 179
SWIDTH 381 0
DWIDTH 7 0
BBX 6 9 -11 5
BITMAP
3C
6C
04
08
38
0C
0C
88
F0
ENDCHAR
STARTCHAR acute
ENCODING 180
SWIDTH 599 0
DWIDTH 11 0
BBX 5 3 7 11
BITMAP
38
60
C0
ENDCHAR
STARTCHAR mu
ENCODING 181
SWIDTH 687 0
DWIDTH 13 0
BBX 12 14 1 -4
BITMAP
79F0
3870
3870
38E0
38E0
31E0
71E0
72E0
7DC0
79F0
6000
E000
E000
E000
ENDCHAR
STARTCHAR paragraph
ENCODING 182
SWIDTH 636 0
DWIDTH 12 0
BBX 8 18 3 -4
BITMAP
3F
79
F9
F9
F1
F2
72
12
12
12
24
24
24
24
24
24
48
48
ENDCHAR
STARTCHAR periodcentered
ENCODING 183
SWIDTH 636 0
DWIDTH 12 0
BBX 3 2 6 5
BITMAP
E0
E0
ENDCHAR
STARTCHAR cedilla
ENCODING 184
SWIDTH 599 0
DWIDTH 11 0
BBX 3 4 3 -4
BITMAP
60
60
60
E0
ENDCHAR
STARTCHAR onesuperior
ENCODING 185
SWIDTH 381 0
DWIDTH 7 0
BBX 5 9 -11 5
BITMAP
38
18
18
10
30
30
30
30
F8
ENDCHAR
STARTCHAR ordmasculine
ENCODING 186
SWIDTH 468 0
DWIDTH 9 0
BBX 8 8 2 6
BITMAP
1E
33
63
E3
C3
C2
E6
78
ENDCHAR
STARTCHAR guillemotright
ENCODING 187
SWIDTH 527 0
DWIDTH 10 0
BBX 10 9 1 1
BITMAP
2200
3300
3380
1980
1DC0
3B80
7300
4E00
8400
ENDCHAR
STARTCHAR onequarter
ENCODING 188
SWIDTH 818 0
DWIDTH 16 0
BBX 15 14 3 0
BITMAP
3806
1808
1818
1030
3060
30CC
319C
3338
FE68
0CC8
18FC
3018
2018
C038
ENDCHAR
STARTCHAR onehalf
ENCODING 189
SWIDTH 818 0
DWIDTH 16 0
BBX 15 14 3 0
BITMAP
3806
1808
1818
1030
3060
30FC
31A6
3366
FE06
0C0C
1830
3060
2040
C0FC
ENDCHAR
STARTCHAR threequarters
ENCODING 190
SWIDTH 818 0
DWIDTH 16 0
BBX 15 14 3 0
BITMAP
3C06
6C08
0418
0830
3860
0CCC
0D9C
8B38
F668
0CC8
18FC
3018
2018
C038
ENDCHAR
STARTCHAR questiondown
ENCODING 191
SWIDTH 493 0
DWIDTH 9 0
BBX 8 14 1 -4
BITMAP
07
07
00
00
06
0C
0C
10
30
60
E0
E3
E3
7E
ENDCHAR
STARTCHAR Agrave
ENCODING 192
SWIDTH 765 0
DWIDTH 15 0
BBX 15 18 0 0
BITMAP
00E0
0060
0030
0000
0060
0060
00E0
0170
0170
0270
0630
0438
0838
0FF8
1038
201C
601C
F07E
ENDCHAR
STARTCHAR Aacute
ENCODING 193
SWIDTH 765 0
DWIDTH 15 0
BBX 15 18 0 0
BITMAP
001C
0030
0060
0000
0060
0060
00E0
0170
0170
0270
0630
0438
0838
0FF8
1038
201C
601C
F07E
ENDCHAR
STARTCHAR Acircumflex
ENCODING 194
SWIDTH 765 0
DWIDTH 15 0
BBX 15 18 0 0
BITMAP
0070
00F0
0198
0000
0060
0060
00E0
0170
0170
0270
0630
0438
0838
0FF8
1038
201C
601C
F07E
ENDCHAR
STARTCHAR Atilde
ENCODING 195
SWIDTH 765 0
DWIDTH 15 0
BBX 15 17 0 0
BITMAP
00E4
0138
0000
0060
0060
00E0
0170
0170
0270
0630
0438
0838
0FF8
1038
201C
601C
F07E
ENDCHAR
STARTCHAR Adieresis
ENCODING 196
SWIDTH 765 0
DWIDTH 15 0
BBX 15 16 0 0
BITMAP
00CC
0000
0060
0060
00E0
0170
0170
0270
0630
0438
0838
0FF8
1038
201C
601C
F07E
ENDCHAR
STARTCHAR Aring
ENCODING 197
SWIDTH 765 0
DWIDTH 15 0
BBX 15 18 0 0
BITMAP
0070
0050
0070
0000
0060
0060
00E0
0170
0170
0270
0630
0438
0838
0FF8
1038
201C
601C
F07E
ENDCHAR
STARTCHAR AE
ENCODING 198
SWIDTH 958 0
DWIDTH 18 0
BBX 20 14 0 0
BITMAP
001FF0
003C30
005C30
005C00
00B800
013840
023FC0
0638C0
043000
0FF000
107000
207000
6070C0
F1FFC0
ENDCHAR
STARTCHAR Ccedilla
ENCODING 199
SWIDTH 740 0
DWIDTH 14 0
BBX 13 18 2 -4
BITMAP
03F8
0E18
1818
3010
7000
7000
E000
E000
E000
E000
E000
7000
7860
1F80
0800
0C00
0C00
1C00
ENDCHAR
STARTCHAR Egrave
ENCODING 200
SWIDTH 630 0
DWIDTH 12 0
BBX 13 18 1 0
BITMAP
0380
0180
00C0
0000
1FF8
0E18
0E18
0C00
1C00
1C60
1FC0
1C40
1800
3800
3800
3820
3860
FFE0
ENDCHAR
STARTCHAR Eacute
ENCODING 201
SWIDTH 630 0
DWIDTH 12 0
BBX 13 18 1 0
BITMAP
0070
00C0
0180
0000
1FF8
0E18
0E18
0C00
1C00
1C60
1FC0
1C40
1800
3800
3800
3820
3860
FFE0
ENDCHAR
STARTCHAR Ecircumflex
ENCODING 202
SWIDTH 630 0
DWIDTH 12 0
BBX 13 18 1 0
BITMAP
01C0
03C0
0660
0000
1FF8
0E18
0E18
0C00
1C00
1C60
1FC0
1C40
1800
3800
3800
3820
3860
FFE0
ENDCHAR
STARTCHAR Edieresis
ENCODING 203
SWIDTH 630 0
DWIDTH 12 0
BBX 13 16 1 0
BITMAP
0330
0000
1FF8
0E18
0E18
0C00
1C00
1C60
1FC0
1C40
1800
3800
3800
3820
3860
FFE0
ENDCHAR
STARTCHAR Igrave
ENCODING 204
SWIDTH 372 0
DWIDTH 7 0
BBX 9 18 0 0
BITMAP
0E00
0600
0300
0000
1F80
0E00
0E00
0E00
0E00
1C00
1C00
1C00
1C00
1800
3800
3800
3800
FC00
ENDCHAR
STARTCHAR Iacute
ENCODING 205
SWIDTH 372 0
DWIDTH 7 0
BBX 9 18 0 0
BITMAP
0380
0600
0C00
0000
1F80
0E00
0E00
0E00
0E00
1C00
1C00
1C00
1C00
1800
3800
3800
3800
FC00
ENDCHAR
STARTCHAR Icircumflex
ENCODING 206
SWIDTH 372 0
DWIDTH 7 0
BBX 9 18 0 0
BITMAP
0700
0F00
1980
0000
1F80
0E00
0E00
0E00
0E00
1C00
1C00
1C00
1C00
1800
3800
3800
3800
FC00
ENDCHAR
STARTCHAR Idieresis
ENCODING 207
SWIDTH 372 0
DWIDTH 7 0
BBX 9 16 0 0
BITMAP
1980
0000
1F80
0E00
0E00
0E00
0E00
1C00
1C00
1C00
1C00
1800
3800
3800
3800
FC00
ENDCHAR
STARTCHAR Eth
ENCODING 208
SWIDTH 822 0
DWIDTH 16 0
BBX 16 14 0 0
BITMAP
1FF8
0E1E
0E0E
0E07
1C07
1C07
7F87
1C07
1C0E
380E
381C
3818
3870
FFC0
ENDCHAR
STARTCHAR Ntilde
ENCODING 209
SWIDTH 797 0
DWIDTH 15 0
BBX 17 17 0 0
BITMAP
00E400
013800
000000
1E0F80
0E0200
0F0200
0F0600
1B8600
1B8400
11C400
11C400
10EC00
306C00
307800
203800
203800
F81800
ENDCHAR
STARTCHAR Ograve
ENCODING 210
SWIDTH 831 0
DWIDTH 16 0
BBX 14 18 2 0
BITMAP
01C0
00C0
0060
0000
03F0
0E38
181C
381C
701C
701C
E01C
E01C
E01C
E038
E030
6060
70C0
1F00
ENDCHAR
STARTCHAR Oacute
ENCODING 211
SWIDTH 831 0
DWIDTH 16 0
BBX 14 18 2 0
BITMAP
0070
00C0
0180
0000
03F0
0E38
181C
381C
701C
701C
E01C
E01C
E01C
E038
E030
6060
70C0
1F00
ENDCHAR
STARTCHAR Ocircumflex
ENCODING 212
SWIDTH 831 0
DWIDTH 16 0
BBX 14 18 2 0
BITMAP
00E0
01E0
0330
0000
03F0
0E38
181C
381C
701C
701C
E01C
E01C
E01C
E038
E030
6060
70C0
1F00
ENDCHAR
STARTCHAR Otilde
ENCODING 213
SWIDTH 831 0
DWIDTH 16 0
BBX 14 17 2 0
BITMAP
01C8
0270
0000
03F0
0E38
181C
381C
701C
701C
E01C
E01C
E01C
E038
E030
6060
70C0
1F00
ENDCHAR
STARTCHAR Odieresis
ENCODING 214
SWIDTH 831 0
DWIDTH 16 0
BBX 14 16 2 0
BITMAP
0330
0000
03F0
0E38
181C
381C
701C
701C
E01C
E01C
E01C
E038
E030
6060
70C0
1F00
ENDCHAR
STARTCHAR multiply
ENCODING 215
SWIDTH 636 0
DWIDTH 12 0
BBX 13 12 1 0
BITMAP
1008
3018
1860
0CC0
0D80
0700
0700
0D80
1980
30C0
C060
8040
ENDCHAR
STARTCHAR Oslash
ENCODING 216
SWIDTH 831 0
DWIDTH 16 0
BBX 17 14 1 0
BITMAP
01F980
071E00
0C0E00
1C0E00
381700
386700
38C700
718E00
730E00
740C00
781C00
383800
386000
CF8000
ENDCHAR
STARTCHAR Ugrave
ENCODING 217
SWIDTH 775 0
DWIDTH 15 0
BBX 14 18 3 0
BITMAP
0700
0300
0180
0000
FC3C
7818
7010
7010
7010
7020
6020
E020
E020
E060
E040
E040
7080
3F00
ENDCHAR
STARTCHAR Uacute
ENCODING 218
SWIDTH 775 0
DWIDTH 15 0
BBX 14 18 3 0
BITMAP
00E0
0180
0300
0000
FC3C
7818
7010
7010
7010
7020
6020
E020
E020
E060
E040
E040
7080
3F00
ENDCHAR
STARTCHAR Ucircumflex
ENCODING 219
SWIDTH 775 0
DWIDTH 15 0
BBX 14 18 3 0
BITMAP
0380
0780
0CC0
0000
FC3C
7818
7010
7010
7010
7020
6020
E020
E020
E060
E040
E040
7080
3F00
ENDCHAR
STARTCHAR Udieresis
ENCODING 220
SWIDTH 775 0
DWIDTH 15 0
BBX 14 16 3 0
BITMAP
0660
0000
FC3C
7818
7010
7010
7010
7020
6020
E020
E020
E060
E040
E040
7080
3F00
ENDCHAR
STARTCHAR Yacute
ENCODING 221
SWIDTH 669 0
DWIDTH 13 0
BBX 13 18 2 0
BITMAP
01C0
0300
0600
0000
F878
7030
7060
3840
3880
1D00
1F00
0E00
1C00
1C00
1C00
1C00
3C00
7E00
ENDCHAR
STARTCHAR Thorn
ENCODING 222
SWIDTH 628 0
DWIDTH 12 0
BBX 12 14 1 0
BITMAP
3F00
0E00
0C00
1FE0
1C70
1C70
1870
1870
3860
38C0
3F80
3800
7800
FC00
ENDCHAR
STARTCHAR germandbls
ENCODING 223
SWIDTH 656 0
DWIDTH 12 0
BBX 11 19 1 -4
BITMAP
07C0
0CC0
1CE0
1CC0
1880
1900
3B00
3B00
3B80
31C0
30E0
7060
7460
74C0
6780
6000
E000
E000
E000
ENDCHAR
STARTCHAR agrave
ENCODING 224
SWIDTH 634 0
DWIDTH 12 0
BBX 11 14 1 0
BITMAP
0700
0300
0180
0000
07E0
18E0
30C0
70C0
61C0
E3C0
E3C0
E580
F980
73E0
ENDCHAR
STARTCHAR aacute
ENCODING 225
SWIDTH 634 0
DWIDTH 12 0
BBX 11 14 1 0
BITMAP
00E0
0180
0300
0000
07E0
18E0
30C0
70C0
61C0
E3C0
E3C0
E580
F980
73E0
ENDCHAR
STARTCHAR acircumflex
ENCODING 226
SWIDTH 634 0
DWIDTH 12 0
BBX 11 14 1 0
BITMAP
0380
0780
0CC0
0000
07E0
18E0
30C0
70C0
61C0
E3C0
E3C0
E580
F980
73E0
ENDCHAR
STARTCHAR atilde
ENCODING 227
SWIDTH 634 0
DWIDTH 12 0
BBX 11 13 1 0
BITMAP
0720
09C0
0000
07E0
18E0
30C0
70C0
61C0
E3C0
E3C0
E580
F980
73E0
ENDCHAR
STARTCHAR adieresis
ENCODING 228
SWIDTH 634 0
DWIDTH 12 0
BBX 11 12 1 0
BITMAP
0660
0000
07E0
18E0
30C0
70C0
61C0
E3C0
E3C0
E580
F980
73E0
ENDCHAR
STARTCHAR aring
ENCODING 229
SWIDTH 634 0
DWIDTH 12 0
BBX 11 14 1 0
BITMAP
0380
0280
0380
0000
07E0
18E0
30C0
70C0
61C0
E3C0
E3C0
E580
F980
73E0
ENDCHAR
STARTCHAR ae
ENCODING 230
SWIDTH 905 0
DWIDTH 17 0
BBX 16 10 1 0
BITMAP
07FE
18E7
30E7
70C7
61CE
E1F8
E3C0
E5C0
E8C3
707C
ENDCHAR
STARTCHAR ccedilla
ENCODING 231
SWIDTH 524 0
DWIDTH 10 0
BBX 10 14 1 -4
BITMAP
0FC0
1880
3080
7000
E000
E000
E000
E000
6100
3E00
2000
3000
3000
7000
ENDCHAR
STARTCHAR egrave
ENCODING 232
SWIDTH 548 0
DWIDTH 10 0
BBX 9 14 1 0
BITMAP
0E00
0600
0300
0000
0F00
1380
3180
6380
E700
FC00
E000
E000
F180
3F00
ENDCHAR
STARTCHAR eacute
ENCODING 233
SWIDTH 548 0
DWIDTH 10 0
BBX 10 14 1 0
BITMAP
01C0
0300
0600
0000
0F00
1380
3180
6380
E700
FC00
E000
E000
F180
3F00
ENDCHAR
STARTCHAR ecircumflex
ENCODING 234
SWIDTH 548 0
DWIDTH 10 0
BBX 9 14 1 0
BITMAP
0700
0F00
1980
0000
0F00
1380
3180
6380
E700
FC00
E000
E000
F180
3F00
ENDCHAR
STARTCHAR edieresis
ENCODING 235
SWIDTH 548 0
DWIDTH 10 0
BBX 10 12 1 0
BITMAP
0CC0
0000
0F00
1380
3180
6380
E700
FC00
E000
E000
F180
3F00
ENDCHAR
STARTCHAR igrave
ENCODING 236
SWIDTH 319 0
DWIDTH 6 0
BBX 6 14 2 0
BITMAP
38
18
0C
00
F8
38
30
70
70
70
70
60
E0
F8
ENDCHAR
STARTCHAR iacute
ENCODING 237
SWIDTH 319 0
DWIDTH 6 0
BBX 8 14 2 0
BITMAP
07
0C
18
00
F8
38
30
70
70
70
70
60
E0
F8
ENDCHAR
STARTCHAR icircumflex
ENCODING 238
SWIDTH 319 0
DWIDTH 6 0
BBX 7 14 2 0
BITMAP
1C
3C
66
00
F8
38
30
70
70
70
70
60
E0
F8
ENDCHAR
STARTCHAR idieresis
ENCODING 239
SWIDTH 319 0
DWIDTH 6 0
BBX 7 12 2 0
BITMAP
66
00
F8
38
30
70
70
70
70
60
E0
F8
ENDCHAR
STARTCHAR eth
ENCODING 240
SWIDTH 617 0
DWIDTH 12 0
BBX 10 15 2 0
BITMAP
00C0
3F00
0700
1F80
11C0
0FC0
19C0
30C0
60C0
60C0
E1C0
E180
E180
7300
3C00
ENDCHAR
STARTCHAR ntilde
ENCODING 241
SWIDTH 656 0
DWIDTH 12 0
BBX 11 13 2 0
BITMAP
0720
09C0
0000
F9C0
3BE0
36E0
7CE0
78C0
71C0
71C0
61C0
E1C0
E1E0
ENDCHAR
STARTCHAR ograve
ENCODING 242
SWIDTH 599 0
DWIDTH 11 0
BBX 11 14 1 0
BITMAP
0700
0300
0180
0000
0F80
19C0
30C0
70E0
E0C0
E1C0
E1C0
E180
F300
3C00
ENDCHAR
STARTCHAR oacute
ENCODING 243
SWIDTH 599 0
DWIDTH 11 0
BBX 11 14 1 0
BITMAP
01C0
0300
0600
0000
0F80
19C0
30C0
70E0
E0C0
E1C0
E1C0
E180
F300
3C00
ENDCHAR
STARTCHAR ocircumflex
ENCODING 244
SWIDTH 599 0
DWIDTH 11 0
BBX 11 14 1 0
BITMAP
0380
0780
0CC0
0000
0F80
19C0
30C0
70E0
E0C0
E1C0
E1C0
E180
F300
3C00
ENDCHAR
STARTCHAR otilde
ENCODING 245
SWIDTH 599 0
DWIDTH 11 0
BBX 11 13 1 0
BITMAP
0720
09C0
0000
0F80
19C0
30C0
70E0
E0C0
E1C0
E1C0
E180
F300
3C00
ENDCHAR
STARTCHAR odieresis
ENCODING 246
SWIDTH 599 0
DWIDTH 11 0
BBX 11 12 1 0
BITMAP
0CC0
0000
0F80
19C0
30C0
70E0
E0C0
E1C0
E1C0
E180
F300
3C00
ENDCHAR
STARTCHAR divide
ENCODING 247
SWIDTH 636 0
DWIDTH 12 0
BBX 11 10 2 0
BITMAP
0600
0600
0000
0000
0000
FFE0
0000
0000
0C00
0C00
ENDCHAR
STARTCHAR oslash
ENCODING 248
SWIDTH 599 0
DWIDTH 11 0
BBX 12 10 1 0
BITMAP
07F0
1CE0
38E0
3160
7260
74E0
78C0
70C0
7180
FE00
ENDCHAR
STARTCHAR ugrave
ENCODING 249
SWIDTH 655 0
DWIDTH 12 0
BBX 11 14 2 0
BITMAP
0700
0300
0180
0000
F1E0
70E0
70C0
70C0
71C0
63C0
E7C0
ED80
FB80
73E0
ENDCHAR
STARTCHAR uacute
ENCODING 250
SWIDTH 655 0
DWIDTH 12 0
BBX 11 14 2 0
BITMAP
00E0
0180
0300
0000
F1E0
70E0
70C0
70C0
71C0
63C0
E7C0
ED80
FB80
73E0
ENDCHAR
STARTCHAR ucircumflex
ENCODING 251
SWIDTH 655 0
DWIDTH 12 0
BBX 11 14 2 0
BITMAP
0380
0780
0CC0
0000
F1E0
70E0
70C0
70C0
71C0
63C0
E7C0
ED80
FB80
73E0
ENDCHAR
STARTCHAR udieresis
ENCODING 252
SWIDTH 655 0
DWIDTH 12 0
BBX 11 12 2 0
BITMAP
0CC0
0000
F1E0
70E0
70C0
70C0
71C0
63C0
E7C0
ED80
FB80
73E0
ENDCHAR
STARTCHAR yacute
ENCODING 253
SWIDTH 586 0
DWIDTH 11 0
BBX 13 18 0 -4
BITMAP
0070
00C0
0180
0000
3C38
1C18
0C18
0E30
0E60
0E40
0680
0700
0700
0600
0400
0800
3000
F000
ENDCHAR
STARTCHAR thorn
ENCODING 254
SWIDTH 639 0
DWIDTH 12 0
BBX 12 18 1 -4
BITMAP
3C00
1C00
1C00
1C00
18E0
39F0
3A70
3C70
3870
3860
70E0
70C0
7180
7E00
6000
E000
E000
E000
ENDCHAR
STARTCHAR ydieresis
ENCODING 255
SWIDTH 586 0
DWIDTH 11 0
BBX 13 16 0 -4
BITMAP
0330
0000
3C38
1C18
0C18
0E30
0E60
0E40
0680
0700
0700
0600
0400
0800
3000
F000
ENDCHAR
STARTCHAR Amacron
ENCODING 256
SWIDTH 765 0
DWIDTH 15 0
BBX 15 16 0 0
BITMAP
03F0
0000
0060
0060
00E0
0170
0170
0270
0630
0438
0838
0FF8
1038
201C
601C
F07E
ENDCHAR
STARTCHAR amacron
ENCODING 257
SWIDTH 634 0
DWIDTH 12 0
BBX 11 12 1 0
BITMAP
0FC0
0000
07E0
18E0
30C0
70C0
61C0
E3C0
E3C0
E580
F980
73E0
ENDCHAR
STARTCHAR Abreve
ENCODING 258
SWIDTH 765 0
DWIDTH 15 0
BBX 15 18 0 0
BITMAP
0208
03F0
01E0
0000
0060
0060
00E0
0170
0170
0270
0630
0438
0838
0FF8
1038
201C
601C
F07E
ENDCHAR
STARTCHAR abreve
ENCODING 259
SWIDTH 634 0
DWIDTH 12 0
BBX 11 14 1 0
BITMAP
1040
1F80
0F00
0000
07E0
18E0
30C0
70C0
61C0
E3C0
E3C0
E580
F980
73E0
ENDCHAR
STARTCHAR Aogonek
ENCODING 260
SWIDTH 765 0
DWIDTH 15 0
BBX 15 18 0 -4
BITMAP
0060
0060
00E0
0170
0170
0270
0630
0438
0838
0FF8
1038
201C
601C
F07E
0000
0080
0100
01C0
ENDCHAR
STARTCHAR aogonek
ENCODING 261
SWIDTH 634 0
DWIDTH 12 0
BBX 11 14 1 -4
BITMAP
07E0
18E0
30C0
70C0
61C0
E3C0
E3C0
E580
F980
73E0
0000
0400
0800
0E00
ENDCHAR
STARTCHAR Cacute
ENCODING 262
SWIDTH 740 0
DWIDTH 14 0
BBX 13 18 2 0
BITMAP
00E0
0180
0300
0000
03F8
0E18
1818
3010
7000
7000
E000
E000
E000
E000
E000
7000
7860
1F80
ENDCHAR
STARTCHAR cacute
ENCODING 263
SWIDTH 524 0
DWIDTH 10 0
BBX 10 14 1 0
BITMAP
0380
0600
0C00
0000
0FC0
1880
3080
7000
E000
E000
E000
E000
6100
3E00
ENDCHAR
STARTCHAR Ccircumflex
ENCODING 264
SWIDTH 740 0
DWIDTH 14 0
BBX 13 18 2 0
BITMAP
01C0
03C0
0660
0000
03F8
0E18
1818
3010
7000
7000
E000
E000
E000
E000
E000
7000
7860
1F80
ENDCHAR
STARTCHAR ccircumflex
ENCODING 265
SWIDTH 524 0
DWIDTH 10 0
BBX 10 14 1 0
BITMAP
0700
0F00
1980
0000
0FC0
1880
3080
7000
E000
E000
E000
E000
6100
3E00
ENDCHAR
STARTCHAR Cdotaccent
ENCODING 266
SWIDTH 740 0
DWIDTH 14 0
BBX 13 17 2 0
BITMAP
0380
0380
0000
03F8
0E18
1818
3010
7000
7000
E000
E000
E000
E000
E000
7000
7860
1F80
ENDCHAR
STARTCHAR cdotaccent
ENCODING 267
SWIDTH 524 0
DWIDTH 10 0
BBX 10 13 1 0
BITMAP
0E00
0E00
0000
0FC0
1880
3080
7000
E000
E000
E000
E000
6100
3E00
ENDCHAR
STARTCHAR Ccaron
ENCODING 268
SWIDTH 740 0
DWIDTH 14 0
BBX 13 18 2 0
BITMAP
0460
02C0
0380
0000
03F8
0E18
1818
3010
7000
7000
E000
E000
E000
E000
E000
7000
7860
1F80
ENDCHAR
STARTCHAR ccaron
ENCODING 269
SWIDTH 524 0
DWIDTH 10 0
BBX 10 14 1 0
BITMAP
1180
0B00
0E00
0000
0FC0
1880
3080
7000
E000
E000
E000
E000
6100
3E00
ENDCHAR
STARTCHAR Dcaron
ENCODING 270
SWIDTH 822 0
DWIDTH 16 0
BBX 16 18 0 0
BITMAP
0230
0160
01C0
0000
1FF8
0E1E
0E0E
0E07
1E07
1C07
1C07
1C07
1C0E
380E
381C
3818
3870
FFC0
ENDCHAR
STARTCHAR dcaron
ENCODING 271
SWIDTH 867 0
DWIDTH 16 0
BBX 17 14 1 0
BITMAP
00F380
007380
006380
00E100
07E300
18E600
30E000
70C000
61C000
E3C000
E3C000
E5C000
F98000
73E000
ENDCHAR
STARTCHAR Dcroat
ENCODING 272
SWIDTH 822 0
DWIDTH 16 0
BBX 16 14 0 0
BITMAP
1FF8
0E1E
0E0E
0E07
1C07
1C07
7F87
1C07
1C0E
380E
381C
3818
3870
FFC0
ENDCHAR
STARTCHAR dcroat
ENCODING 273
SWIDTH 634 0
DWIDTH 12 0
BBX 14 14 1 0
BITMAP
00F0
0070
07FC
00E0
07E0
18E0
30E0
70C0
61C0
E3C0
E3C0
E5C0
F980
73E0
ENDCHAR
STARTCHAR Emacron
ENCODING 274
SWIDTH 630 0
DWIDTH 12 0
BBX 13 16 1 0
BITMAP
0FC0
0000
1FF8
0E18
0E18
0C00
1C00
1C60
1FC0
1C40
1800
3800
3800
3820
3860
FFE0
ENDCHAR
STARTCHAR emacron
ENCODING 275
SWIDTH 548 0
DWIDTH 10 0
BBX 9 12 1 0
BITMAP
1F80
0000
0F00
1380
3180
6380
E700
FC00
E000
E000
F180
3F00
ENDCHAR
STARTCHAR Ebreve
ENCODING 276
SWIDTH 630 0
DWIDTH 12 0
BBX 13 18 1 0
BITMAP
0820
0FC0
0780
0000
1FF8
0E18
0E18
0C00
1C00
1C60
1FC0
1C40
1800
3800
3800
3820
3860
FFE0
ENDCHAR
STARTCHAR ebreve
ENCODING 277
SWIDTH 548 0
DWIDTH 10 0
BBX 9 14 1 0
BITMAP
2080
3F00
1E00
0000
0F00
1380
3180
6380
E700
FC00
E000
E000
F180
3F00
ENDCHAR
STARTCHAR Edotaccent
ENCODING 278
SWIDTH 630 0
DWIDTH 12 0
BBX 13 17 1 0
BITMAP
0380
0380
0000
1FF8
0E18
0E18
0C00
1C00
1C60
1FC0
1C40
1800
3800
3800
3820
3860
FFE0
ENDCHAR
STARTCHAR edotaccent
ENCODING 279
SWIDTH 548 0
DWIDTH 10 0
BBX 9 13 1 0
BITMAP
0E00
0E00
0000
0F00
1380
3180
6380
E700
FC00
E000
E000
F180
3F00
ENDCHAR
STARTCHAR Eogonek
ENCODING 280
SWIDTH 630 0
DWIDTH 12 0
BBX 13 18 1 -4
BITMAP
1FF8
0E18
0E18
0C00
1C00
1C60
1FC0
1C40
1800
3800
3800
3820
3860
FFE0
0000
0400
0800
0E00
ENDCHAR
STARTCHAR eogonek
ENCODING 281
SWIDTH 548 0
DWIDTH 10 0
BBX 9 14 1 -4
BITMAP
0F00
1380
3180
6380
E700
FC00
E000
E000
F180
3F00
0000
0800
1000
1C00
ENDCHAR
STARTCHAR Ecaron
ENCODING 282
SWIDTH 630 0
DWIDTH 12 0
BBX 13 18 1 0
BITMAP
0460
02C0
0380
0000
1FF8
0E18
0E18
0C00
1C00
1C60
1FC0
1C40
1800
3800
3800
3820
3860
FFE0
ENDCHAR
STARTCHAR ecaron
ENCODING 283
SWIDTH 548 0
DWIDTH 10 0
BBX 9 14 1 0
BITMAP
1180
0B00
0E00
0000
0F00
1380
3180
6380
E700
FC00
E000
E000
F180
3F00
ENDCHAR
STARTCHAR Gcircumflex
ENCODING 284
SWIDTH 780 0
DWIDTH 15 0
BBX 13 18 2 0
BITMAP
01C0
03C0
0660
0000
03F8
0E18
1818
3818
7000
7000
E000
E000
E1F8
E0F0
E0E0
70E0
78E0
1F80
ENDCHAR
STARTCHAR gcircumflex
ENCODING 285
SWIDTH 628 0
DWIDTH 12 0
BBX 12 18 1 -4
BITMAP
0380
0780
0CC0
0000
03F0
0C70
1860
3060
70E0
71E0
73E0
76C0
7DC0
79C0
01C0
8180
E300
7E00
ENDCHAR
STARTCHAR Gbreve
ENCODING 286
SWIDTH 780 0
DWIDTH 15 0
BBX 13 18 2 0
BITMAP
0410
07E0
03C0
0000
03F8
0E18
1818
3818
7000
7000
E000
E000
E1F8
E0F0
E0E0
70E0
78E0
1F80
ENDCHAR
STARTCHAR gbreve
ENCODING 287
SWIDTH 628 0
DWIDTH 12 0
BBX 12 18 1 -4
BITMAP
0820
0FC0
0780
0000
03F0
0C70
1860
3060
70E0
71E0
73E0
76C0
7DC0
79C0
01C0
8180
E300
7E00
ENDCHAR
STARTCHAR Gdotaccent
ENCODING 288
SWIDTH 780 0
DWIDTH 15 0
BBX 13 17 2 0
BITMAP
0380
0380
0000
03F8
0E18
1818
3818
7000
7000
E000
E000
E1F8
E0F0
E0E0
70E0
78E0
1F80
ENDCHAR
STARTCHAR gdotaccent
ENCODING 289
SWIDTH 628 0
DWIDTH 12 0
BBX 12 17 1 -4
BITMAP
0380
0380
0000
03F0
0C70
1860
3060
70E0
71E0
73E0
76C0
7DC0
79C0
01C0
8180
E300
7E00
ENDCHAR
STARTCHAR Gcommaaccent
ENCODING 290
SWIDTH 780 0
DWIDTH 15 0
BBX 13 22 2 -8
BITMAP
03F8
0E18
1818
3818
7000
7000
E000
E000
E1F8
E0F0
E0E0
70E0
78E0
1F80
0000
0700
0700
0700
0200
0600
0600
0C00
ENDCHAR
STARTCHAR gcommaaccent
ENCODING 291
SWIDTH 628 0
DWIDTH 12 0
BBX 12 21 1 -4
BITMAP
00C0
0180
0100
0380
0380
0380
0000
03F0
0C70
1860
3060
70E0
71E0
73E0
76C0
7DC0
79C0
01C0
8180
E300
7E00
ENDCHAR
STARTCHAR Hcircumflex
ENCODING 292
SWIDTH 827 0
DWIDTH 16 0
BBX 17 18 1 0
BITMAP
00E000
01E000
033000
000000
1F9F80
0E0E00
0E0E00
0C0E00
1C0E00
1C0C00
1FFC00
1C1C00
181C00
381C00
381800
383800
383800
FCFC00
ENDCHAR
STARTCHAR hcircumflex
ENCODING 293
SWIDTH 656 0
DWIDTH 12 0
BBX 11 18 2 0
BITMAP
1C00
3C00
6600
0000
7C00
1800
3800
3800
39C0
3BE0
36E0
74E0
78C0
71C0
71C0
61C0
E1C0
E1E0
ENDCHAR
STARTCHAR Hbar
ENCODING 294
SWIDTH 827 0
DWIDTH 16 0
BBX 17 14 1 0
BITMAP
1F9F80
0E0E00
0E0E00
FFFF80
1C0E00
1C0C00
1FFC00
1C1C00
181C00
381C00
381800
383800
383800
FCFC00
ENDCHAR
STARTCHAR hbar
ENCODING 295
SWIDTH 656 0
DWIDTH 12 0
BBX 12 14 1 0
BITMAP
3E00
0C00
FF80
1C00
1CE0
1DF0
1B70
3A70
3C60
38E0
38E0
30E0
70E0
70F0
ENDCHAR
STARTCHAR Itilde
ENCODING 296
SWIDTH 372 0
DWIDTH 7 0
BBX 9 17 0 0
BITMAP
1C80
2700
0000
1F80
0E00
0E00
0E00
0E00
1C00
1C00
1C00
1C00
1800
3800
3800
3800
FC00
ENDCHAR
STARTCHAR itilde
ENCODING 297
SWIDTH 319 0
DWIDTH 6 0
BBX 7 13 1 0
BITMAP
72
9C
00
7C
1C
18
38
38
38
38
30
70
7C
ENDCHAR
STARTCHAR Imacron
ENCODING 298
SWIDTH 372 0
DWIDTH 7 0
BBX 9 16 0 0
BITMAP
3F00
0000
1F80
0E00
0E00
0E00
0E00
1C00
1C00
1C00
1C00
1800
3800
3800
3800
FC00
ENDCHAR
STARTCHAR imacron
ENCODING 299
SWIDTH 319 0
DWIDTH 6 0
BBX 6 12 2 0
BITMAP
FC
00
F8
38
30
70
70
70
70
60
E0
F8
ENDCHAR
STARTCHAR Ibreve
ENCODING 300
SWIDTH 372 0
DWIDTH 7 0
BBX 9 18 0 0
BITMAP
2080
3F00
1E00
0000
1F80
0E00
0E00
0E00
0E00
1C00
1C00
1C00
1C00
1800
3800
3800
3800
FC00
ENDCHAR
STARTCHAR ibreve
ENCODING 301
SWIDTH 319 0
DWIDTH 6 0
BBX 7 14 2 0
BITMAP
82
FC
78
00
F8
38
30
70
70
70
70
60
E0
F8
ENDCHAR
STARTCHAR Iogonek
ENCODING 302
SWIDTH 372 0
DWIDTH 7 0
BBX 9 18 0 -4
BITMAP
1F80
0E00
0E00
0E00
0E00
1C00
1C00
1C00
1C00
1800
3800
3800
3800
FC00
0000
1000
2000
3800
ENDCHAR
STARTCHAR iogonek
ENCODING 303
SWIDTH 319 0
DWIDTH 6 0
BBX 6 18 2 -4
BITMAP
1C
1C
00
00
F8
38
38
30
70
70
70
60
E0
F8
00
20
40
70
ENDCHAR
STARTCHAR Idotaccent
ENCODING 304
SWIDTH 372 0
DWIDTH 7 0
BBX 9 17 0 0
BITMAP
0E00
0E00
0000
1F80
0E00
0E00
0E00
0E00
1C00
1C00
1C00
1C00
1800
3800
3800
3800
FC00
ENDCHAR
STARTCHAR dotlessi
ENCODING 305
SWIDTH 319 0
DWIDTH 6 0
BBX 5 10 2 0
BITMAP
F8
38
30
70
70
70
70
60
E0
F8
ENDCHAR
STARTCHAR IJ
ENCODING 306
SWIDTH 831 0
DWIDTH 16 0
BBX 19 18 0 -4
BITMAP
1F87E0
0E03C0
0E0380
0E0380
0E0380
1C0700
1C0700
1C0700
1C0700
180700
380700
380E00
380E00
FC0E00
000E00
019C00
019800
01F000
ENDCHAR
STARTCHAR ij
ENCODING 307
SWIDTH 684 0
DWIDTH 13 0
BBX 14 18 2 -4
BITMAP
1C1C
1C1C
0000
0000
F878
3838
3838
3030
7030
7070
7070
6070
E060
F860
00E0
0CC0
0CC0
0F00
ENDCHAR
STARTCHAR Jcircumflex
ENCODING 308
SWIDTH 478 0
DWIDTH 9 0
BBX 12 22 0 -4
BITMAP
01C0
03C0
0660
0000
03F0
01E0
01C0
01C0
01C0
0380
0380
0380
0380
0380
0380
0700
0700
0700
0700
CE00
CC00
F800
ENDCHAR
STARTCHAR jcircumflex
ENCODING 309
SWIDTH 381 0
DWIDTH 7 0
BBX 10 18 0 -4
BITMAP
0380
0780
0CC0
0000
0780
0380
0380
0300
0300
0700
0700
0700
0600
0600
0E00
CC00
CC00
F000
ENDCHAR
STARTCHAR Kcommaaccent
ENCODING 310
SWIDTH 746 0
DWIDTH 14 0
BBX 15 22 1 -8
BITMAP
1F9E
0E08
0E10
0C60
1CC0
1D00
1F00
1F80
1BC0
39E0
38E0
3870
3878
FCFC
0000
0380
0380
0380
0100
0300
0300
0600
ENDCHAR
STARTCHAR kcommaaccent
ENCODING 311
SWIDTH 626 0
DWIDTH 12 0
BBX 10 22 2 -8
BITMAP
7800
3800
3800
3800
31C0
31C0
7380
7700
7C00
6E00
6600
E700
E380
E3C0
0000
1C00
1C00
1C00
0800
1800
1800
3000
ENDCHAR
STARTCHAR kgreenlandic
ENCODING 312
SWIDTH 626 0
DWIDTH 12 0
BBX 10 10 2 0
BITMAP
31C0
31C0
7380
7700
7C00
6E00
6600
E700
E380
E3C0
ENDCHAR
STARTCHAR Lacute
ENCODING 313
SWIDTH 611 0
DWIDTH 12 0
BBX 11 18 1 0
BITMAP
0380
0600
0C00
0000
1F00
0E00
0E00
0C00
1C00
1C00
1C00
1C00
1800
3800
3800
3860
3860
FFC0
ENDCHAR
STARTCHAR lacute
ENCODING 314
SWIDTH 319 0
DWIDTH 6 0
BBX 7 18 1 0
BITMAP
0E
18
30
00
7C
1C
18
38
38
38
30
30
70
70
70
60
E0
F8
ENDCHAR
STARTCHAR Lcommaaccent
ENCODING 315
SWIDTH 611 0
DWIDTH 12 0
BBX 11 22 1 -8
BITMAP
1F00
0E00
0E00
0C00
1C00
1C00
1C00
1C00
1800
3800
3800
3860
3860
FFC0
0000
0E00
0E00
0E00
0400
0C00
0C00
1800
ENDCHAR
STARTCHAR lcommaaccent
ENCODING 316
SWIDTH 319 0
DWIDTH 6 0
BBX 6 22 1 -8
BITMAP
7C
1C
18
38
38
38
30
30
70
70
70
60
E0
F8
00
70
70
70
20
60
60
C0
ENDCHAR
STARTCHAR Lcaron
ENCODING 317
SWIDTH 845 0
DWIDTH 16 0
BBX 17 14 1 0
BITMAP
1F0380
0E0380
0E0380
0C0100
1C0300
1C0600
1C0000
1C0000
180000
380000
380000
386000
386000
FFC000
ENDCHAR
STARTCHAR lcaron
ENCODING 318
SWIDTH 568 0
DWIDTH 11 0
BBX 12 14 1 0
BITMAP
7C70
1C70
1870
3820
3860
38C0
3000
3000
7000
7000
7000
6000
E000
F800
ENDCHAR
STARTCHAR Ldot
ENCODING 319
SWIDTH 1216 0
DWIDTH 23 0
BBX 19 14 1 0
BITMAP
1F0000
0E0000
0E0000
0C0000
1C0000
1C0000
1C0000
1C00E0
1800E0
380000
380000
386000
386000
FFC000
ENDCHAR
STARTCHAR ldot
ENCODING 320
SWIDTH 939 0
DWIDTH 18 0
BBX 14 14 1 0
BITMAP
7C00
1C00
1800
3800
3800
3800
3000
301C
701C
7000
7000
6000
E000
F800
ENDCHAR
STARTCHAR Lslash
ENCODING 321
SWIDTH 611 0
DWIDTH 12 0
BBX 11 14 1 0
BITMAP
1F00
0E00
0E00
0C00
1C00
1F00
1C00
7C00
1800
3800
3800
3820
3860
FFE0
ENDCHAR
STARTCHAR lslash
ENCODING 322
SWIDTH 319 0
DWIDTH 6 0
BBX 7 14 1 0
BITMAP
3C
1C
1C
1C
18
3A
3E
F8
B8
30
70
70
70
78
ENDCHAR
STARTCHAR Nacute
ENCODING 323
SWIDTH 797 0
DWIDTH 15 0
BBX 17 18 0 0
BITMAP
007000
00C000
018000
000000
1E0F80
0E0200
0F0200
0F0600
1B8600
1B8400
11C400
11C400
10EC00
306C00
307800
203800
203800
F81800
ENDCHAR
STARTCHAR nacute
ENCODING 324
SWIDTH 656 0
DWIDTH 12 0
BBX 11 14 2 0
BITMAP
0380
0600
0C00
0000
F9C0
3BE0
36E0
7CE0
78C0
71C0
71C0
61C0
E1C0
E1E0
ENDCHAR
STARTCHAR Ncommaaccent
ENCODING 325
SWIDTH 797 0
DWIDTH 15 0
BBX 17 22 0 -8
BITMAP
1E0F80
0E0200
0F0200
0F0600
1B8600
1B8400
11C400
11C400
10EC00
306C00
307800
203800
203800
F81800
000000
01C000
01C000
01C000
008000
018000
018000
030000
ENDCHAR
STARTCHAR ncommaaccent
ENCODING 326
SWIDTH 656 0
DWIDTH 12 0
BBX 11 18 2 -8
BITMAP
F9C0
3BE0
36E0
7CE0
78C0
71C0
71C0
61C0
E1C0
E1E0
0000
0E00
0E00
0E00
0400
0C00
0C00
1800
ENDCHAR
STARTCHAR Ncaron
ENCODING 327
SWIDTH 797 0
DWIDTH 15 0
BBX 17 18 0 0
BITMAP
023000
016000
01C000
000000
1E0F80
0E0200
0F0200
0F0600
1B8600
1B8400
11C400
11C400
10EC00
306C00
307800
203800
203800
F81800
ENDCHAR
STARTCHAR ncaron
ENCODING 328
SWIDTH 656 0
DWIDTH 12 0
BBX 11 14 2 0
BITMAP
1180
0B00
0E00
0000
F9C0
3BE0
36E0
7CE0
78C0
71C0
71C0
61C0
E1C0
E1E0
ENDCHAR
STARTCHAR napostrophe
ENCODING 329
SWIDTH 908 0
DWIDTH 17 0
BBX 15 14 3 0
BITMAP
7000
7000
7000
2000
6F9C
C3BE
036E
07CE
078C
071C
071C
061C
0E1C
0E1E
ENDCHAR
STARTCHAR Eng
ENCODING 330
SWIDTH 797 0
DWIDTH 15 0
BBX 17 18 0 -4
BITMAP
1E0F80
0E0200
0F0200
0F0600
1B8600
1B8400
11C400
11C400
10EC00
306C00
307800
203800
203800
F83800
007000
066000
066000
078000
ENDCHAR
STARTCHAR eng
ENCODING 331
SWIDTH 656 0
DWIDTH 12 0
BBX 11 14 2 -4
BITMAP
F9C0
3BE0
36E0
7CE0
78C0
71C0
71C0
61C0
E180
E180
0380
3300
3300
3C00
ENDCHAR
STARTCHAR Omacron
ENCODING 332
SWIDTH 831 0
DWIDTH 16 0
BBX 14 16 2 0
BITMAP
07E0
0000
03F0
0E38
181C
381C
701C
701C
E01C
E01C
E01C
E038
E030
6060
70C0
1F00
ENDCHAR
STARTCHAR omacron
ENCODING 333
SWIDTH 599 0
DWIDTH 11 0
BBX 11 12 1 0
BITMAP
1F80
0000
0F80
19C0
30C0
70E0
E0C0
E1C0
E1C0
E180
F300
3C00
ENDCHAR
STARTCHAR Obreve
ENCODING 334
SWIDTH 831 0
DWIDTH 16 0
BBX 14 18 2 0
BITMAP
0410
07E0
03C0
0000
03F0
0E38
181C
381C
701C
701C
E01C
E01C
E01C
E038
E030
6060
70C0
1F00
ENDCHAR
STARTCHAR obreve
ENCODING 335
SWIDTH 599 0
DWIDTH 11 0
BBX 11 14 1 0
BITMAP
1040
1F80
0F00
0000
0F80
19C0
30C0
70E0
E0C0
E1C0
E1C0
E180
F300
3C00
ENDCHAR
STARTCHAR Ohungarumlaut
ENCODING 336
SWIDTH 831 0
DWIDTH 16 0
BBX 14 18 2 0
BITMAP
00D8
01A0
0240
0000
03F0
0E38
181C
381C
701C
701C
E01C
E01C
E01C
E038
E030
6060
70C0
1F00
ENDCHAR
STARTCHAR ohungarumlaut
ENCODING 337
SWIDTH 599 0
DWIDTH 11 0
BBX 11 14 1 0
BITMAP
0360
0680
0900
0000
0F80
19C0
30C0
70E0
E0C0
E1C0
E1C0
E180
F300
3C00
ENDCHAR
STARTCHAR OE
ENCODING 338
SWIDTH 1067 0
DWIDTH 20 0
BBX 20 14 2 0
BITMAP
03FFF0
0E3C30
181C30
381800
703800
703840
E03FC0
E03880
E03000
E07000
E07000
707000
70F0C0
1FFFC0
ENDCHAR
STARTCHAR oe
ENCODING 339
SWIDTH 921 0
DWIDTH 17 0
BBX 16 10 1 0
BITMAP
0F8E
19F3
30E3
60C3
E0CE
E1F8
E1C0
E1C0
E3E1
3C7E
ENDCHAR
STARTCHAR Racute
ENCODING 340
SWIDTH 711 0
DWIDTH 14 0
BBX 13 18 1 0
BITMAP
00E0
0180
0300
0000
1FF0
0E38
0E38
0C38
1C38
1C70
1CE0
1F80
19C0
39C0
38E0
38E0
3870
FC78
ENDCHAR
STARTCHAR racute
ENCODING 341
SWIDTH 496 0
DWIDTH 9 0
BBX 10 14 2 0
BITMAP
0380
0600
0C00
0000
F9C0
3B80
3680
7C00
7800
7000
7000
6000
E000
E000
ENDCHAR
STARTCHAR Rcommaaccent
ENCODING 342
SWIDTH 711 0
DWIDTH 14 0
BBX 13 22 1 -8
BITMAP
1FF0
0E38
0E38
0C38
1C38
1C70
1CE0
1F80
19C0
39C0
38E0
38E0
3870
FC78
0000
0700
0700
0700
0200
0600
0600
0C00
ENDCHAR
STARTCHAR rcommaaccent
ENCODING 343
SWIDTH 496 0
DWIDTH 9 0
BBX 10 18 2 -8
BITMAP
F9C0
3B80
3680
7C00
7800
7000
7000
6000
E000
E000
0000
7000
7000
7000
2000
6000
6000
C000
ENDCHAR
STARTCHAR Rcaron
ENCODING 344
SWIDTH 711 0
DWIDTH 14 0
BBX 13 18 1 0
BITMAP
0460
02C0
0380
0000
1FF0
0E38
0E38
0C38
1C38
1C70
1CE0
1F80
19C0
39C0
38E0
38E0
3870
FC78
ENDCHAR
STARTCHAR rcaron
ENCODING 345
SWIDTH 496 0
DWIDTH 9 0
BBX 10 14 2 0
BITMAP
2300
1600
1C00
0000
F9C0
3B80
3680
7C00
7800
7000
7000
6000
E000
E000
ENDCHAR
STARTCHAR Sacute
ENCODING 346
SWIDTH 587 0
DWIDTH 11 0
BBX 11 18 1 0
BITMAP
01C0
0300
0600
0000
07E0
1C60
3860
3800
3800
3C00
1F00
0F80
0380
01C0
01C0
C380
C300
FE00
ENDCHAR
STARTCHAR sacute
ENCODING 347
SWIDTH 479 0
DWIDTH 9 0
BBX 9 14 1 0
BITMAP
0380
0600
0C00
0000
1F80
3980
3100
3800
1C00
0E00
0700
C700
C600
7C00
ENDCHAR
STARTCHAR Scircumflex
ENCODING 348
SWIDTH 587 0
DWIDTH 11 0
BBX 11 18 1 0
BITMAP
0700
0F00
1980
0000
07E0
1C60
3860
3800
3800
3C00
1F00
0F80
0380
01C0
01C0
C380
C300
FE00
ENDCHAR
STARTCHAR scircumflex
ENCODING 349
SWIDTH 479 0
DWIDTH 9 0
BBX 9 14 1 0
BITMAP
0E00
1E00
3300
0000
1F80
3980
3100
3800
1C00
0E00
0700
C700
C600
7C00
ENDCHAR
STARTCHAR Scedilla
ENCODING 350
SWIDTH 587 0
DWIDTH 11 0
BBX 11 18 1 -4
BITMAP
07E0
1C60
3860
3800
3800
3C00
1F00
0F80
0380
01C0
01C0
C380
C300
FE00
0C00
0C00
0C00
1C00
ENDCHAR
STARTCHAR scedilla
ENCODING 351
SWIDTH 479 0
DWIDTH 9 0
BBX 9 14 1 -4
BITMAP
1F80
3980
3100
3800
1C00
0E00
0700
C700
C600
7C00
1800
1800
1800
3800
ENDCHAR
STARTCHAR Scaron
ENCODING 352
SWIDTH 587 0
DWIDTH 11 0
BBX 11 18 1 0
BITMAP
0460
02C0
0380
0000
07E0
1C60
3860
3800
3800
3C00
1F00
0F80
0380
01C0
01C0
C380
C300
FE00
ENDCHAR
STARTCHAR scaron
ENCODING 353
SWIDTH 479 0
DWIDTH 9 0
BBX 10 14 1 0
BITMAP
08C0
0580
0700
0000
1F80
3980
3100
3800
1C00
0E00
0700
C700
C600
7C00
ENDCHAR
STARTCHAR Tcommaaccent
ENCODING 354
SWIDTH 716 0
DWIDTH 14 0
BBX 13 18 3 -4
BITMAP
FFF8
C718
8718
0700
0600
0E00
0E00
0E00
0E00
0C00
1C00
1C00
1C00
7E00
0C00
0C00
0C00
1C00
ENDCHAR
STARTCHAR tcommaaccent
ENCODING 355
SWIDTH 375 0
DWIDTH 7 0
BBX 7 17 2 -4
BITMAP
18
38
38
FE
70
70
70
70
60
E0
E0
E0
78
30
30
30
70
ENDCHAR
STARTCHAR Tcaron
ENCODING 356
SWIDTH 716 0
DWIDTH 14 0
BBX 13 18 3 0
BITMAP
08C0
0580
0700
0000
FFF8
C718
8718
0700
0600
0E00
0E00
0E00
0E00
0C00
1C00
1C00
1C00
7E00
ENDCHAR
STARTCHAR tcaron
ENCODING 357
SWIDTH 621 0
DWIDTH 12 0
BBX 12 14 2 0
BITMAP
0070
1870
3870
3820
FE60
70C0
7000
7000
7000
6000
E000
E000
E000
7800
ENDCHAR
STARTCHAR Tbar
ENCODING 358
SWIDTH 716 0
DWIDTH 14 0
BBX 13 14 3 0
BITMAP
FFF8
C718
8718
0700
0600
0E00
3FE0
0E00
0E00
0C00
1C00
1C00
1C00
7E00
ENDCHAR
STARTCHAR tbar
ENCODING 359
SWIDTH 375 0
DWIDTH 7 0
BBX 9 13 1 0
BITMAP
0C00
1C00
1C00
7F00
3800
3800
3800
FF80
3000
7000
7000
7000
3C00
ENDCHAR
STARTCHAR Utilde
ENCODING 360
SWIDTH 775 0
DWIDTH 15 0
BBX 14 17 3 0
BITMAP
0E40
1380
0000
FC3C
7818
7010
7010
7010
7020
6020
E020
E020
E060
E040
E040
7080
3F00
ENDCHAR
STARTCHAR utilde
ENCODING 361
SWIDTH 655 0
DWIDTH 12 0
BBX 11 13 2 0
BITMAP
1C80
2700
0000
F1E0
70E0
70C0
70C0
71C0
63C0
E7C0
ED80
FB80
73E0
ENDCHAR
STARTCHAR Umacron
ENCODING 362
SWIDTH 775 0
DWIDTH 15 0
BBX 14 16 3 0
BITMAP
1F80
0000
FC3C
7818
7010
7010
7010
7020
6020
E020
E020
E060
E040
E040
7080
3F00
ENDCHAR
STARTCHAR umacron
ENCODING 363
SWIDTH 655 0
DWIDTH 12 0
BBX 11 12 2 0
BITMAP
1F80
0000
F1E0
70E0
70C0
70C0
71C0
63C0
E7C0
ED80
FB80
73E0
ENDCHAR
STARTCHAR Ubreve
ENCODING 364
SWIDTH 775 0
DWIDTH 15 0
BBX 14 18 3 0
BITMAP
1040
1F80
0F00
0000
FC3C
7818
7010
7010
7010
7020
6020
E020
E020
E060
E040
E040
7080
3F00
ENDCHAR
STARTCHAR ubreve
ENCODING 365
SWIDTH 655 0
DWIDTH 12 0
BBX 11 14 2 0
BITMAP
2080
3F00
1E00
0000
F1E0
70E0
70C0
70C0
71C0
63C0
E7C0
ED80
FB80
73E0
ENDCHAR
STARTCHAR Uring
ENCODING 366
SWIDTH 775 0
DWIDTH 15 0
BBX 14 18 3 0
BITMAP
0700
0500
0700
0000
FC3C
7818
7010
7010
7010
7020
6020
E020
E020
E060
E040
E040
7080
3F00
ENDCHAR
STARTCHAR uring
ENCODING 367
SWIDTH 655 0
DWIDTH 12 0
BBX 11 14 2 0
BITMAP
0E00
0A00
0E00
0000
F1E0
70E0
70C0
70C0
71C0
63C0
E7C0
ED80
FB80
73E0
ENDCHAR
STARTCHAR Uhungarumlaut
ENCODING 368
SWIDTH 775 0
DWIDTH 15 0
BBX 14 18 3 0
BITMAP
0360
0680
0900
0000
FC3C
7818
7010
7010
7010
7020
6020
E020
E020
E060
E040
E040
7080
3F00
ENDCHAR
STARTCHAR uhungarumlaut
ENCODING 369
SWIDTH 655 0
DWIDTH 12 0
BBX 11 14 2 0
BITMAP
06C0
0D00
1200
0000
F1E0
70E0
70C0
70C0
71C0
63C0
E7C0
ED80
FB80
73E0
ENDCHAR
STARTCHAR Uogonek
ENCODING 370
SWIDTH 775 0
DWIDTH 15 0
BBX 14 18 3 -4
BITMAP
FC3C
7818
7010
7010
7010
7020
6020
E020
E020
E060
E040
E040
7080
3F00
0000
0400
0800
0E00
ENDCHAR
STARTCHAR uogonek
ENCODING 371
SWIDTH 655 0
DWIDTH 12 0
BBX 11 14 2 -4
BITMAP
F1E0
70E0
70C0
70C0
71C0
63C0
E7C0
ED80
FB80
73E0
0000
0400
0800
0E00
ENDCHAR
STARTCHAR Wcircumflex
ENCODING 372
SWIDTH 922 0
DWIDTH 17 0
BBX 18 18 2 0
BITMAP
01C000
03C000
066000
000000
F843C0
70C180
70C100
71E300
71E200
72E600
72E400
74EC00
34E800
38F800
387000
307000
306000
206000
ENDCHAR
STARTCHAR wcircumflex
ENCODING 373
SWIDTH 822 0
DWIDTH 16 0
BBX 15 14 2 0
BITMAP
0380
0780
0CC0
0000
F08E
7186
3184
338C
3BC8
3CD0
3CE0
38E0
18C0
1080
ENDCHAR
STARTCHAR Ycircumflex
ENCODING 374
SWIDTH 669 0
DWIDTH 13 0
BBX 13 18 2 0
BITMAP
0700
0F00
1980
0000
F878
7030
7060
3840
3880
1D00
1F00
0E00
1C00
1C00
1C00
1C00
3C00
7E00
ENDCHAR
STARTCHAR ycircumflex
ENCODING 375
SWIDTH 586 0
DWIDTH 11 0
BBX 13 18 0 -4
BITMAP
0380
0780
0CC0
0000
3C38
1C18
0C18
0E30
0E60
0E40
0680
0700
0700
0600
0400
0800
3000
F000
ENDCHAR
STARTCHAR Ydieresis
ENCODING 376
SWIDTH 669 0
DWIDTH 13 0
BBX 13 16 2 0
BITMAP
0CC0
0000
F878
7030
7060
3840
3880
1D00
1F00
0E00
1C00
1C00
1C00
1C00
3C00
7E00
ENDCHAR
STARTCHAR Zacute
ENCODING 377
SWIDTH 684 0
DWIDTH 13 0
BBX 13 18 1 0
BITMAP
00E0
0180
0300
0000
1FF8
1870
10F0
01E0
01C0
0380
0780
0F00
0E00
1C00
3800
7820
7060
FFE0
ENDCHAR
STARTCHAR zacute
ENCODING 378
SWIDTH 567 0
DWIDTH 11 0
BBX 11 14 1 0
BITMAP
01C0
0300
0600
0000
3FE0
31C0
2380
0700
0F00
0E00
1C00
3840
70C0
FF80
ENDCHAR
STARTCHAR Zdotaccent
ENCODING 379
SWIDTH 684 0
DWIDTH 13 0
BBX 13 17 1 0
BITMAP
0380
0380
0000
1FF8
1870
10F0
01E0
01C0
0380
0780
0F00
0E00
1C00
3800
7820
7060
FFE0
ENDCHAR
STARTCHAR zdotaccent
ENCODING 380
SWIDTH 567 0
DWIDTH 11 0
BBX 11 13 1 0
BITMAP
0700
0700
0000
3FE0
31C0
2380
0700
0F00
0E00
1C00
3840
70C0
FF80
ENDCHAR
STARTCHAR Zcaron
ENCODING 381
SWIDTH 684 0
DWIDTH 13 0
BBX 13 18 1 0
BITMAP
0230
0160
01C0
0000
1FF8
1870
10F0
01E0
01C0
0380
0780
0F00
0E00
1C00
3800
7820
7060
FFE0
ENDCHAR
STARTCHAR zcaron
ENCODING 382
SWIDTH 567 0
DWIDTH 11 0
BBX 11 14 1 0
BITMAP
0460
02C0
0380
0000
3FE0
31C0
2380
0700
0F00
0E00
1C00
3840
70C0
FF80
ENDCHAR
STARTCHAR uni0186
ENCODING 390
SWIDTH 740 0
DWIDTH 14 0
BBX 13 14 2 0
BITMAP
0FC0
30F0
0070
0038
0038
0038
0038
0038
0070
0070
4060
C0C0
C380
FE00
ENDCHAR
STARTCHAR uni0189
ENCODING 393
SWIDTH 822 0
DWIDTH 16 0
BBX 16 14 0 0
BITMAP
1FF8
0E1E
0E0E
0E07
1C07
1C07
7F87
1C07
1C0E
380E
381C
3818
3870
FFC0
ENDCHAR
STARTCHAR uni018E
ENCODING 398
SWIDTH 630 0
DWIDTH 12 0
BBX 13 14 1 0
BITMAP
3FF8
30E0
20E0
00E0
00E0
00C0
11C0
1FC0
31C0
01C0
0180
C380
C380
FFC0
ENDCHAR
STARTCHAR florin
ENCODING 402
SWIDTH 636 0
DWIDTH 13 0
BBX 10 18 4 -4
BITMAP
03C0
0CC0
1CC0
1800
1800
3800
3800
FE00
3800
3000
7000
7000
7000
7000
6000
E000
E000
E000
ENDCHAR
STARTCHAR uni0197
ENCODING 407
SWIDTH 372 0
DWIDTH 7 0
BBX 9 14 0 0
BITMAP
1F80
0E00
0E00
0E00
0E00
1C00
FF80
1C00
1C00
1800
3800
3800
3800
FC00
ENDCHAR
STARTCHAR uni019A
ENCODING 410
SWIDTH 319 0
DWIDTH 6 0
BBX 9 14 0 0
BITMAP
3E00
0E00
0C00
1C00
1C00
1C00
FF80
1800
3800
3800
3800
3000
7000
7C00
ENDCHAR
STARTCHAR uni019D
ENCODING 413
SWIDTH 797 0
DWIDTH 15 0
BBX 20 18 -3 -4
BITMAP
03C1F0
01C040
01E040
01E0C0
0370C0
037080
023880
023880
021D80
060D80
070F00
070700
060700
060300
0E0000
CC0000
CC0000
F00000
ENDCHAR
STARTCHAR uni019F
ENCODING 415
SWIDTH 831 0
DWIDTH 16 0
BBX 14 14 2 0
BITMAP
03F0
0E38
181C
381C
701C
701C
FFFC
E01C
E01C
E038
E030
6060
70C0
1F00
ENDCHAR
STARTCHAR Ohorn
ENCODING 416
SWIDTH 831 0
DWIDTH 16 0
BBX 17 14 2 0
BITMAP
03F380
0E3B80
181F80
381D00
701F00
701E00
E01C00
E01C00
E01C00
E03800
E03000
606000
70C000
1F0000
ENDCHAR
STARTCHAR ohorn
ENCODING 417
SWIDTH 599 0
DWIDTH 11 0
BBX 14 10 1 0
BITMAP
0F9C
19DC
30DC
70E8
E0D8
E1F0
E1C0
E180
F300
3C00
ENDCHAR
STARTCHAR Uhorn
ENCODING 431
SWIDTH 775 0
DWIDTH 15 0
BBX 17 14 3 0
BITMAP
FC3F80
781B80
701380
701100
701300
702600
602000
E02000
E02000
E06000
E04000
E04000
708000
3F0000
ENDCHAR
STARTCHAR uhorn
ENCODING 432
SWIDTH 655 0
DWIDTH 12 0
BBX 14 10 2 0
BITMAP
F1FC
70FC
70DC
70C8
71D8
63F0
E7C0
ED80
FB80
73E0
ENDCHAR
STARTCHAR uni01B5
ENCODING 437
SWIDTH 684 0
DWIDTH 13 0
BBX 13 14 1 0
BITMAP
1FF8
1870
10F0
01E0
01C0
0380
3FE0
0F00
0E00
1C00
3800
7820
7060
FFE0
ENDCHAR
STARTCHAR uni01B6
ENCODING 438
SWIDTH 567 0
DWIDTH 11 0
BBX 11 10 1 0
BITMAP
3FE0
31C0
2380
0700
7FC0
0E00
1C00
3840
70C0
FF80
ENDCHAR
STARTCHAR uni01BB
ENCODING 443
SWIDTH 636 0
DWIDTH 12 0
BBX 11 14 2 0
BITMAP
0F80
19C0
10E0
30E0
00E0
01C0
FFE0
0600
0800
1000
2000
6000
FF80
FF80
ENDCHAR
STARTCHAR uni01BC
ENCODING 444
SWIDTH 636 0
DWIDTH 12 0
BBX 11 14 2 0
BITMAP
1FE0
1FE0
1000
2000
2000
3C00
0700
0380
0180
01C0
0180
C380
C700
FC00
ENDCHAR
STARTCHAR uni01C0
ENCODING 448
SWIDTH 253 0
DWIDTH 5 0
BBX 5 18 1 -4
BITMAP
18
18
18
10
10
30
30
30
20
20
60
60
60
40
40
C0
C0
C0
ENDCHAR
STARTCHAR uni01C2
ENCODING 450
SWIDTH 636 0
DWIDTH 12 0
BBX 12 18 1 -3
BITMAP
0180
0180
0180
0100
0100
0300
0300
7FF0
0200
0200
0600
FFE0
0600
0400
0400
0C00
0C00
0C00
ENDCHAR
STARTCHAR uni01C3
ENCODING 451
SWIDTH 265 0
DWIDTH 5 0
BBX 5 14 1 0
BITMAP
38
38
38
30
30
30
30
20
60
60
00
00
E0
E0
ENDCHAR
STARTCHAR uni01CD
ENCODING 461
SWIDTH 765 0
DWIDTH 15 0
BBX 15 18 0 0
BITMAP
0230
0160
01C0
0000
0060
0060
00E0
0170
0170
0270
0630
0438
0838
0FF8
1038
201C
601C
F07E
ENDCHAR
STARTCHAR uni01CE
ENCODING 462
SWIDTH 634 0
DWIDTH 12 0
BBX 11 14 1 0
BITMAP
08C0
0580
0700
0000
07E0
18E0
30C0
70C0
61C0
E3C0
E3C0
E580
F980
73E0
ENDCHAR
STARTCHAR uni01CF
ENCODING 463
SWIDTH 372 0
DWIDTH 7 0
BBX 9 18 0 0
BITMAP
1180
0B00
0E00
0000
1F80
0E00
0E00
0E00
0E00
1C00
1C00
1C00
1C00
1800
3800
3800
3800
FC00
ENDCHAR
STARTCHAR uni01D0
ENCODING 464
SWIDTH 319 0
DWIDTH 6 0
BBX 6 14 2 0
BITMAP
8C
58
70
00
F8
38
30
70
70
70
70
60
E0
F8
ENDCHAR
STARTCHAR uni01D1
ENCODING 465
SWIDTH 831 0
DWIDTH 16 0
BBX 14 18 2 0
BITMAP
0460
02C0
0380
0000
03F0
0E38
181C
381C
701C
701C
E01C
E01C
E01C
E038
E030
6060
70C0
1F00
ENDCHAR
STARTCHAR uni01D2
ENCODING 466
SWIDTH 599 0
DWIDTH 11 0
BBX 11 14 1 0
BITMAP
1180
0B00
0E00
0000
0F80
19C0
30C0
70E0
E0C0
E1C0
E1C0
E180
F300
3C00
ENDCHAR
STARTCHAR uni01D3
ENCODING 467
SWIDTH 775 0
DWIDTH 15 0
BBX 14 18 3 0
BITMAP
08C0
0580
0700
0000
FC3C
7818
7010
7010
7010
7020
6020
E020
E020
E060
E040
E040
7080
3F00
ENDCHAR
STARTCHAR uni01D4
ENCODING 468
SWIDTH 655 0
DWIDTH 12 0
BBX 11 14 2 0
BITMAP
1180
0B00
0E00
0000
F1E0
70E0
70C0
70C0
71C0
63C0
E7C0
ED80
FB80
73E0
ENDCHAR
STARTCHAR uni01D5
ENCODING 469
SWIDTH 775 0
DWIDTH 15 0
BBX 14 18 3 0
BITMAP
0FC0
0000
0660
0000
FC3C
7818
7010
7010
7010
7020
6020
E020
E020
E060
E040
E040
7080
3F00
ENDCHAR
STARTCHAR uni01D6
ENCODING 470
SWIDTH 655 0
DWIDTH 12 0
BBX 11 14 2 0
BITMAP
1F80
0000
0CC0
0000
F1E0
70E0
70C0
70C0
71C0
63C0
E7C0
ED80
FB80
73E0
ENDCHAR
STARTCHAR uni01D7
ENCODING 471
SWIDTH 775 0
DWIDTH 15 0
BBX 14 20 3 0
BITMAP
01C0
0300
0600
0000
0660
0000
FC3C
7818
7010
7010
7010
7020
6020
E020
E020
E060
E040
E040
7080
3F00
ENDCHAR
STARTCHAR uni01D8
ENCODING 472
SWIDTH 655 0
DWIDTH 12 0
BBX 11 16 2 0
BITMAP
0380
0600
0C00
0000
0CC0
0000
F1E0
70E0
70C0
70C0
71C0
63C0
E7C0
ED80
FB80
73E0
ENDCHAR
STARTCHAR uni01D9
ENCODING 473
SWIDTH 775 0
DWIDTH 15 0
BBX 14 20 3 0
BITMAP
08C0
0580
0700
0000
0660
0000
FC3C
7818
7010
7010
7010
7020
6020
E020
E020
E060
E040
E040
7080
3F00
ENDCHAR
STARTCHAR uni01DA
ENCODING 474
SWIDTH 655 0
DWIDTH 12 0
BBX 11 16 2 0
BITMAP
1180
0B00
0E00
0000
0CC0
0000
F1E0
70E0
70C0
70C0
71C0
63C0
E7C0
ED80
FB80
73E0
ENDCHAR
STARTCHAR uni01DB
ENCODING 475
SWIDTH 775 0
DWIDTH 15 0
BBX 14 20 3 0
BITMAP
0E00
0600
0300
0000
0660
0000
FC3C
7818
7010
7010
7010
7020
6020
E020
E020
E060
E040
E040
7080
3F00
ENDCHAR
STARTCHAR uni01DC
ENCODING 476
SWIDTH 655 0
DWIDTH 12 0
BBX 11 16 2 0
BITMAP
1C00
0C00
0600
0000
0CC0
0000
F1E0
70E0
70C0
70C0
71C0
63C0
E7C0
ED80
FB80
73E0
ENDCHAR
STARTCHAR uni01DD
ENCODING 477
SWIDTH 548 0
DWIDTH 10 0
BBX 9 10 1 0
BITMAP
7E00
C780
0380
0380
1F80
7380
E300
C600
E400
7800
ENDCHAR
STARTCHAR uni01DE
ENCODING 478
SWIDTH 765 0
DWIDTH 15 0
BBX 15 18 0 0
BITMAP
03F0
0000
00CC
0000
0060
0060
00E0
0170
0170
0270
0630
0438
0838
0FF8
1038
201C
601C
F07E
ENDCHAR
STARTCHAR uni01DF
ENCODING 479
SWIDTH 634 0
DWIDTH 12 0
BBX 11 14 1 0
BITMAP
0FC0
0000
0660
0000
07E0
18E0
30C0
70C0
61C0
E3C0
E3C0
E580
F980
73E0
ENDCHAR
STARTCHAR uni01E0
ENCODING 480
SWIDTH 765 0
DWIDTH 15 0
BBX 15 19 0 0
BITMAP
03F0
0000
00E0
00E0
0000
0060
0060
00E0
0170
0170
0270
0630
0438
0838
0FF8
1038
201C
601C
F07E
ENDCHAR
STARTCHAR uni01E1
ENCODING 481
SWIDTH 634 0
DWIDTH 12 0
BBX 11 15 1 0
BITMAP
0FC0
0000
0700
0700
0000
07E0
18E0
30C0
70C0
61C0
E3C0
E3C0
E580
F980
73E0
ENDCHAR
STARTCHAR uni01E2
ENCODING 482
SWIDTH 958 0
DWIDTH 18 0
BBX 20 16 0 0
BITMAP
003F00
000000
001FF0
003C30
005C30
005C00
00B800
013840
023FC0
0638C0
043000
0FF000
107000
207000
6070C0
F1FFC0
ENDCHAR
STARTCHAR uni01E3
ENCODING 483
SWIDTH 905 0
DWIDTH 17 0
BBX 16 12 1 0
BITMAP
03F0
0000
07FE
18E7
30E7
70C7
61CE
E1F8
E3C0
E5C0
E8C3
707C
ENDCHAR
STARTCHAR uni01E4
ENCODING 484
SWIDTH 780 0
DWIDTH 15 0
BBX 16 14 2 0
BITMAP
03F8
0E18
1818
3818
7000
7000
E000
E000
E1F8
E0F0
E1FF
70E0
78E0
1F80
ENDCHAR
STARTCHAR uni01E5
ENCODING 485
SWIDTH 628 0
DWIDTH 12 0
BBX 12 14 1 -4
BITMAP
03F0
0C70
1860
3060
70E0
71E0
73E0
76C0
7DC0
79C0
FFF0
8180
E300
7E00
ENDCHAR
STARTCHAR Gcaron
ENCODING 486
SWIDTH 780 0
DWIDTH 15 0
BBX 13 18 2 0
BITMAP
0460
02C0
0380
0000
03F8
0E18
1818
3818
7000
7000
E000
E000
E1F8
E0F0
E0E0
70E0
78E0
1F80
ENDCHAR
STARTCHAR gcaron
ENCODING 487
SWIDTH 628 0
DWIDTH 12 0
BBX 12 18 1 -4
BITMAP
0460
02C0
0380
0000
03F0
0C70
1860
3060
70E0
71E0
73E0
76C0
7DC0
79C0
01C0
8180
E300
7E00
ENDCHAR
STARTCHAR uni01E8
ENCODING 488
SWIDTH 746 0
DWIDTH 14 0
BBX 15 18 1 0
BITMAP
0460
02C0
0380
0000
1F9E
0E08
0E10
0C60
1CC0
1D00
1F00
1F80
1BC0
39E0
38E0
3870
3878
FCFC
ENDCHAR
STARTCHAR uni01E9
ENCODING 489
SWIDTH 626 0
DWIDTH 12 0
BBX 10 18 2 0
BITMAP
4600
2C00
3800
0000
7800
3800
3800
3800
31C0
31C0
7380
7700
7C00
6E00
6600
E700
E380
E3C0
ENDCHAR
STARTCHAR uni01EA
ENCODING 490
SWIDTH 831 0
DWIDTH 16 0
BBX 14 18 2 -4
BITMAP
03F0
0E38
181C
381C
701C
701C
E01C
E01C
E01C
E038
E030
6060
70C0
1F00
0000
0400
0800
0E00
ENDCHAR
STARTCHAR uni01EB
ENCODING 491
SWIDTH 599 0
DWIDTH 11 0
BBX 11 14 1 -4
BITMAP
0F80
19C0
30C0
70E0
E0C0
E1C0
E1C0
E180
F300
3C00
0000
0800
1000
1C00
ENDCHAR
STARTCHAR uni01EC
ENCODING 492
SWIDTH 831 0
DWIDTH 16 0
BBX 14 20 2 -4
BITMAP
07E0
0000
03F0
0E38
181C
381C
701C
701C
E01C
E01C
E01C
E038
E030
6060
70C0
1F00
0000
0400
0800
0E00
ENDCHAR
STARTCHAR uni01ED
ENCODING 493
SWIDTH 599 0
DWIDTH 11 0
BBX 11 16 1 -4
BITMAP
1F80
0000
0F80
19C0
30C0
70E0
E0C0
E1C0
E1C0
E180
F300
3C00
0000
0800
1000
1C00
ENDCHAR
STARTCHAR uni01F0
ENCODING 496
SWIDTH 381 0
DWIDTH 7 0
BBX 10 18 0 -4
BITMAP
08C0
0580
0700
0000
0780
0380
0380
0300
0300
0700
0700
0700
0600
0600
0E00
CC00
CC00
F000
ENDCHAR
STARTCHAR uni01F4
ENCODING 500
SWIDTH 780 0
DWIDTH 15 0
BBX 13 18 2 0
BITMAP
00E0
0180
0300
0000
03F8
0E18
1818
3818
7000
7000
E000
E000
E1F8
E0F0
E0E0
70E0
78E0
1F80
ENDCHAR
STARTCHAR uni01F5
ENCODING 501
SWIDTH 628 0
DWIDTH 12 0
BBX 12 18 1 -4
BITMAP
00E0
0180
0300
0000
03F0
0C70
1860
3060
70E0
71E0
73E0
76C0
7DC0
79C0
01C0
8180
E300
7E00
ENDCHAR
STARTCHAR uni01F8
ENCODING 504
SWIDTH 797 0
DWIDTH 15 0
BBX 17 18 0 0
BITMAP
038000
018000
00C000
000000
1E0F80
0E0200
0F0200
0F0600
1B8600
1B8400
11C400
11C400
10EC00
306C00
307800
203800
203800
F81800
ENDCHAR
STARTCHAR uni01F9
ENCODING 505
SWIDTH 656 0
DWIDTH 12 0
BBX 11 14 2 0
BITMAP
1C00
0C00
0600
0000
F9C0
3BE0
36E0
7CE0
78C0
71C0
71C0
61C0
E1C0
E1E0
ENDCHAR
STARTCHAR Aringacute
ENCODING 506
SWIDTH 765 0
DWIDTH 15 0
BBX 15 22 0 0
BITMAP
0038
0060
00C0
0000
0070
0050
0070
0000
0060
0060
00E0
0170
0170
0270
0630
0438
0838
0FF8
1038
201C
601C
F07E
ENDCHAR
STARTCHAR aringacute
ENCODING 507
SWIDTH 634 0
DWIDTH 12 0
BBX 11 18 1 0
BITMAP
01C0
0300
0600
0000
0380
0280
0380
0000
07E0
18E0
30C0
70C0
61C0
E3C0
E3C0
E580
F980
73E0
ENDCHAR
STARTCHAR AEacute
ENCODING 508
SWIDTH 958 0
DWIDTH 18 0
BBX 20 18 0 0
BITMAP
000700
000C00
001800
000000
001FF0
003C30
005C30
005C00
00B800
013840
023FC0
0638C0
043000
0FF000
107000
207000
6070C0
F1FFC0
ENDCHAR
STARTCHAR aeacute
ENCODING 509
SWIDTH 905 0
DWIDTH 17 0
BBX 16 14 1 0
BITMAP
0038
0060
00C0
0000
07FE
18E7
30E7
70C7
61CE
E1F8
E3C0
E5C0
E8C3
707C
ENDCHAR
STARTCHAR Oslashacute
ENCODING 510
SWIDTH 831 0
DWIDTH 16 0
BBX 17 18 1 0
BITMAP
003800
006000
00C000
000000
01F980
071E00
0C0E00
1C0E00
381700
386700
38C700
718E00
730E00
740C00
781C00
383800
386000
CF8000
ENDCHAR
STARTCHAR oslashacute
ENCODING 511
SWIDTH 599 0
DWIDTH 11 0
BBX 12 14 1 0
BITMAP
01C0
0300
0600
0000
07F0
1CE0
38E0
3160
7260
74E0
78C0
70C0
7180
FE00
ENDCHAR
STARTCHAR Scommaaccent
ENCODING 536
SWIDTH 587 0
DWIDTH 11 0
BBX 11 22 1 -8
BITMAP
07E0
1C60
3860
3800
3800
3C00
1F00
0F80
0380
01C0
01C0
C380
C300
FE00
0000
0E00
0E00
0E00
0400
0C00
0C00
1800
ENDCHAR
STARTCHAR scommaaccent
ENCODING 537
SWIDTH 479 0
DWIDTH 9 0
BBX 9 18 1 -8
BITMAP
1F80
3980
3100
3800
1C00
0E00
0700
C700
C600
7C00
0000
1C00
1C00
1C00
0800
1800
1800
3000
ENDCHAR
STARTCHAR Tcommaaccent
ENCODING 538
SWIDTH 716 0
DWIDTH 14 0
BBX 13 22 3 -8
BITMAP
FFF8
C718
8718
0700
0600
0E00
0E00
0E00
0E00
0C00
1C00
1C00
1C00
7E00
0000
0E00
0E00
0E00
0400
0C00
0C00
1800
ENDCHAR
STARTCHAR tcommaaccent
ENCODING 539
SWIDTH 375 0
DWIDTH 7 0
BBX 7 21 2 -8
BITMAP
18
38
38
FE
70
70
70
70
60
E0
E0
E0
78
00
70
70
70
20
60
60
C0
ENDCHAR
STARTCHAR uni021E
ENCODING 542
SWIDTH 827 0
DWIDTH 16 0
BBX 17 18 1 0
BITMAP
011800
00B000
00E000
000000
1F9F80
0E0E00
0E0E00
0C0E00
1C0E00
1C0C00
1FFC00
1C1C00
181C00
381C00
381800
383800
383800
FCFC00
ENDCHAR
STARTCHAR uni021F
ENCODING 543
SWIDTH 656 0
DWIDTH 12 0
BBX 11 18 2 0
BITMAP
2300
1600
1C00
0000
7C00
1800
3800
3800
39C0
3BE0
36E0
74E0
78C0
71C0
71C0
61C0
E1C0
E1E0
ENDCHAR
STARTCHAR uni0226
ENCODING 550
SWIDTH 765 0
DWIDTH 15 0
BBX 15 17 0 0
BITMAP
00E0
00E0
0000
0060
0060
00E0
0170
0170
0270
0630
0438
0838
0FF8
1038
201C
601C
F07E
ENDCHAR
STARTCHAR uni0227
ENCODING 551
SWIDTH 634 0
DWIDTH 12 0
BBX 11 13 1 0
BITMAP
0700
0700
0000
07E0
18E0
30C0
70C0
61C0
E3C0
E3C0
E580
F980
73E0
ENDCHAR
STARTCHAR uni0228
ENCODING 552
SWIDTH 630 0
DWIDTH 12 0
BBX 13 18 1 -4
BITMAP
1FF8
0E18
0E18
0C00
1C00
1C60
1FC0
1C40
1800
3800
3800
3820
3860
FFE0
0600
0600
0600
0E00
ENDCHAR
STARTCHAR uni0229
ENCODING 553
SWIDTH 548 0
DWIDTH 10 0
BBX 9 14 1 -4
BITMAP
0F00
1380
3180
6380
E700
FC00
E000
E000
F180
3F00
1800
1800
1800
3800
ENDCHAR
STARTCHAR uni022A
ENCODING 554
SWIDTH 831 0
DWIDTH 16 0
BBX 14 18 2 0
BITMAP
07E0
0000
0330
0000
03F0
0E38
181C
381C
701C
701C
E01C
E01C
E01C
E038
E030
6060
70C0
1F00
ENDCHAR
STARTCHAR uni022B
ENCODING 555
SWIDTH 599 0
DWIDTH 11 0
BBX 11 14 1 0
BITMAP
1F80
0000
0CC0
0000
0F80
19C0
30C0
70E0
E0C0
E1C0
E1C0
E180
F300
3C00
ENDCHAR
STARTCHAR uni022C
ENCODING 556
SWIDTH 831 0
DWIDTH 16 0
BBX 14 19 2 0
BITMAP
07E0
0000
01C8
0270
0000
03F0
0E38
181C
381C
701C
701C
E01C
E01C
E01C
E038
E030
6060
70C0
1F00
ENDCHAR
STARTCHAR uni022D
ENCODING 557
SWIDTH 599 0
DWIDTH 11 0
BBX 11 15 1 0
BITMAP
0FC0
0000
0720
09C0
0000
0F80
19C0
30C0
70E0
E0C0
E1C0
E1C0
E180
F300
3C00
ENDCHAR
STARTCHAR uni022E
ENCODING 558
SWIDTH 831 0
DWIDTH 16 0
BBX 14 17 2 0
BITMAP
01C0
01C0
0000
03F0
0E38
181C
381C
701C
701C
E01C
E01C
E01C
E038
E030
6060
70C0
1F00
ENDCHAR
STARTCHAR uni022F
ENCODING 559
SWIDTH 599 0
DWIDTH 11 0
BBX 11 13 1 0
BITMAP
0700
0700
0000
0F80
19C0
30C0
70E0
E0C0
E1C0
E1C0
E180
F300
3C00
ENDCHAR
STARTCHAR uni0230
ENCODING 560
SWIDTH 831 0
DWIDTH 16 0
BBX 14 19 2 0
BITMAP
07E0
0000
01C0
01C0
0000
03F0
0E38
181C
381C
701C
701C
E01C
E01C
E01C
E038
E030
6060
70C0
1F00
ENDCHAR
STARTCHAR uni0231
ENCODING 561
SWIDTH 599 0
DWIDTH 11 0
BBX 11 15 1 0
BITMAP
1F80
0000
0700
0700
0000
0F80
19C0
30C0
70E0
E0C0
E1C0
E1C0
E180
F300
3C00
ENDCHAR
STARTCHAR uni0232
ENCODING 562
SWIDTH 669 0
DWIDTH 13 0
BBX 13 16 2 0
BITMAP
1F80
0000
F878
7030
7060
3840
3880
1D00
1F00
0E00
1C00
1C00
1C00
1C00
3C00
7E00
ENDCHAR
STARTCHAR uni0233
ENCODING 563
SWIDTH 586 0
DWIDTH 11 0
BBX 13 16 0 -4
BITMAP
0FC0
0000
3C38
1C18
0C18
0E30
0E60
0E40
0680
0700
0700
0600
0400
0800
3000
F000
ENDCHAR
STARTCHAR uni0250
ENCODING 592
SWIDTH 634 0
DWIDTH 12 0
BBX 11 10 1 0
BITMAP
F9C0
33E0
34E0
78E0
78E0
70C0
61C0
6180
E300
FC00
ENDCHAR
STARTCHAR uni0259
ENCODING 601
SWIDTH 548 0
DWIDTH 10 0
BBX 9 10 1 0
BITMAP
7E00
C780
0380
0380
1F80
7380
E300
C600
E400
7800
ENDCHAR
STARTCHAR uni025F
ENCODING 607
SWIDTH 415 0
DWIDTH 8 0
BBX 10 19 1 -9
BITMAP
01C0
01C0
01C0
0180
0380
0380
0380
0380
0300
0300
0700
0700
0700
3F80
0E00
0E00
CC00
CC00
F800
ENDCHAR
STARTCHAR uni0265
ENCODING 613
SWIDTH 656 0
DWIDTH 12 0
BBX 11 14 2 -4
BITMAP
F0E0
70E0
70C0
71C0
71C0
63C0
E5C0
ED80
FB80
7380
0380
0380
0300
07C0
ENDCHAR
STARTCHAR uni0275
ENCODING 629
SWIDTH 599 0
DWIDTH 11 0
BBX 11 10 1 0
BITMAP
0F80
19C0
30C0
70E0
FFE0
E1C0
E1C0
E180
F300
3C00
ENDCHAR
STARTCHAR uni0279
ENCODING 633
SWIDTH 496 0
DWIDTH 9 0
BBX 10 10 2 0
BITMAP
01C0
01C0
0180
0380
0380
0780
0F80
5B00
7700
E7C0
ENDCHAR
STARTCHAR uni0287
ENCODING 647
SWIDTH 375 0
DWIDTH 7 0
BBX 7 13 2 0
BITMAP
3C
0E
0E
0E
0C
1C
1C
1C
1C
FE
38
38
30
ENDCHAR
STARTCHAR uni0289
ENCODING 649
SWIDTH 655 0
DWIDTH 12 0
BBX 11 10 2 0
BITMAP
F1E0
70E0
70C0
70C0
FFE0
63C0
E7C0
ED80
FB80
73E0
ENDCHAR
STARTCHAR uni028C
ENCODING 652
SWIDTH 584 0
DWIDTH 11 0
BBX 11 10 2 0
BITMAP
0100
0300
0700
0B00
1380
3380
6380
6180
E1C0
E1E0
ENDCHAR
STARTCHAR uni028D
ENCODING 653
SWIDTH 822 0
DWIDTH 16 0
BBX 15 10 2 0
BITMAP
0210
0630
0E38
0E78
1678
27B8
6398
4318
C31C
E21E
ENDCHAR
STARTCHAR uni028E
ENCODING 654
SWIDTH 586 0
DWIDTH 11 0
BBX 13 14 0 0
BITMAP
0078
0060
0080
0100
0300
0700
0700
0B00
1380
3380
6380
C180
C1C0
E1E0
ENDCHAR
STARTCHAR uni029E
ENCODING 670
SWIDTH 626 0
DWIDTH 12 0
BBX 10 14 2 -4
BITMAP
F1C0
71C0
39C0
1980
1D80
0F80
3B80
7380
E300
E300
0700
0700
0700
0780
ENDCHAR
STARTCHAR uni02BB
ENCODING 699
SWIDTH 265 0
DWIDTH 5 0
BBX 4 6 3 8
BITMAP
30
60
40
E0
E0
E0
ENDCHAR
STARTCHAR afii57929
ENCODING 700
SWIDTH 265 0
DWIDTH 5 0
BBX 4 6 3 8
BITMAP
70
70
70
20
60
C0
ENDCHAR
STARTCHAR afii64937
ENCODING 701
SWIDTH 265 0
DWIDTH 5 0
BBX 4 6 3 8
BITMAP
E0
E0
E0
40
60
30
ENDCHAR
STARTCHAR circumflex
ENCODING 710
SWIDTH 599 0
DWIDTH 11 0
BBX 6 3 5 11
BITMAP
38
78
CC
ENDCHAR
STARTCHAR caron
ENCODING 711
SWIDTH 599 0
DWIDTH 11 0
BBX 6 3 6 11
BITMAP
8C
58
70
ENDCHAR
STARTCHAR uni02C8
ENCODING 712
SWIDTH 247 0
DWIDTH 5 0
BBX 3 6 3 8
BITMAP
E0
E0
E0
40
40
40
ENDCHAR
STARTCHAR macron
ENCODING 713
SWIDTH 599 0
DWIDTH 11 0
BBX 6 1 5 13
BITMAP
FC
ENDCHAR
STARTCHAR uni02CA
ENCODING 714
SWIDTH 599 0
DWIDTH 11 0
BBX 5 3 7 11
BITMAP
38
60
C0
ENDCHAR
STARTCHAR uni02CB
ENCODING 715
SWIDTH 599 0
DWIDTH 11 0
BBX 4 3 6 11
BITMAP
E0
60
30
ENDCHAR
STARTCHAR uni02CD
ENCODING 717
SWIDTH 599 0
DWIDTH 11 0
BBX 6 1 5 -2
BITMAP
FC
ENDCHAR
STARTCHAR uni02CE
ENCODING 718
SWIDTH 599 0
DWIDTH 11 0
BBX 4 3 6 -4
BITMAP
E0
60
30
ENDCHAR
STARTCHAR uni02CF
ENCODING 719
SWIDTH 599 0
DWIDTH 11 0
BBX 5 3 7 -4
BITMAP
38
60
C0
ENDCHAR
STARTCHAR breve
ENCODING 728
SWIDTH 599 0
DWIDTH 11 0
BBX 7 3 5 11
BITMAP
82
FC
78
ENDCHAR
STARTCHAR dotaccent
ENCODING 729
SWIDTH 599 0
DWIDTH 11 0
BBX 3 2 7 12
BITMAP
E0
E0
ENDCHAR
STARTCHAR ring
ENCODING 730
SWIDTH 599 0
DWIDTH 11 0
BBX 3 3 7 12
BITMAP
E0
A0
E0
ENDCHAR
STARTCHAR ogonek
ENCODING 731
SWIDTH 599 0
DWIDTH 11 0
BBX 3 3 4 -4
BITMAP
40
80
E0
ENDCHAR
STARTCHAR tilde
ENCODING 732
SWIDTH 599 0
DWIDTH 11 0
BBX 7 2 5 12
BITMAP
72
9C
ENDCHAR
STARTCHAR hungarumlaut
ENCODING 733
SWIDTH 599 0
DWIDTH 11 0
BBX 7 3 6 11
BITMAP
36
68
90
ENDCHAR
STARTCHAR uni02EE
ENCODING 750
SWIDTH 464 0
DWIDTH 9 0
BBX 8 6 3 8
BITMAP
77
77
67
22
66
CC
ENDCHAR
STARTCHAR uni037E
ENCODING 894
SWIDTH 265 0
DWIDTH 5 0
BBX 5 14 1 -4
BITMAP
38
38
38
00
00
00
00
00
70
60
60
60
60
C0
ENDCHAR
STARTCHAR tonos
ENCODING 900
SWIDTH 599 0
DWIDTH 11 0
BBX 5 3 7 11
BITMAP
38
60
C0
ENDCHAR
STARTCHAR dieresistonos
ENCODING 901
SWIDTH 599 0
DWIDTH 11 0
BBX 7 5 6 13
BITMAP
0E
18
30
00
CC
ENDCHAR
STARTCHAR anoteleia
ENCODING 903
SWIDTH 636 0
DWIDTH 12 0
BBX 3 2 6 5
BITMAP
E0
E0
ENDCHAR
STARTCHAR mu
ENCODING 956
SWIDTH 687 0
DWIDTH 13 0
BBX 12 14 1 -4
BITMAP
79F0
3870
3870
38E0
38E0
31E0
71E0
72E0
7DC0
79F0
6000
E000
E000
E000
ENDCHAR
STARTCHAR uni1E00
ENCODING 7680
SWIDTH 765 0
DWIDTH 15 0
BBX 15 18 0 -4
BITMAP
0060
0060
00E0
0170
0170
0270
0630
0438
0838
0FF8
1038
201C
601C
F07E
0000
01C0
0140
01C0
ENDCHAR
STARTCHAR uni1E01
ENCODING 7681
SWIDTH 634 0
DWIDTH 12 0
BBX 11 14 1 -4
BITMAP
07E0
18E0
30C0
70C0
61C0
E3C0
E3C0
E580
F980
73E0
0000
0E00
0A00
0E00
ENDCHAR
STARTCHAR uni1E02
ENCODING 7682
SWIDTH 651 0
DWIDTH 12 0
BBX 12 17 1 0
BITMAP
0700
0700
0000
3FE0
0C70
0C70
1C70
1C60
18E0
1F80
19C0
38E0
38E0
38E0
30E0
71C0
FF80
ENDCHAR
STARTCHAR uni1E03
ENCODING 7683
SWIDTH 633 0
DWIDTH 12 0
BBX 11 17 2 0
BITMAP
1C00
1C00
0000
7C00
1800
3800
3800
39C0
33E0
34E0
78E0
78E0
70C0
61C0
6180
E300
FC00
ENDCHAR
STARTCHAR uni1E04
ENCODING 7684
SWIDTH 651 0
DWIDTH 12 0
BBX 12 17 1 -3
BITMAP
3FE0
0C70
0C70
1C70
1C60
18E0
1F80
19C0
38E0
38E0
38E0
30E0
71C0
FF80
0000
0E00
0E00
ENDCHAR
STARTCHAR uni1E05
ENCODING 7685
SWIDTH 633 0
DWIDTH 12 0
BBX 11 17 2 -3
BITMAP
7C00
1800
3800
3800
39C0
33E0
34E0
78E0
78E0
70C0
61C0
6180
E300
FC00
0000
1C00
1C00
ENDCHAR
STARTCHAR uni1E06
ENCODING 7686
SWIDTH 651 0
DWIDTH 12 0
BBX 12 16 1 -2
BITMAP
3FE0
0C70
0C70
1C70
1C60
18E0
1F80
19C0
38E0
38E0
38E0
30E0
71C0
FF80
0000
1F80
ENDCHAR
STARTCHAR uni1E07
ENCODING 7687
SWIDTH 633 0
DWIDTH 12 0
BBX 11 16 2 -2
BITMAP
7C00
1800
3800
3800
39C0
33E0
34E0
78E0
78E0
70C0
61C0
6180
E300
FC00
0000
3F00
ENDCHAR
STARTCHAR uni1E08
ENCODING 7688
SWIDTH 740 0
DWIDTH 14 0
BBX 13 22 2 -4
BITMAP
00E0
0180
0300
0000
03F8
0E18
1818
3010
7000
7000
E000
E000
E000
E000
E000
7000
7860
1F80
0800
0C00
0C00
1C00
ENDCHAR
STARTCHAR uni1E09
ENCODING 7689
SWIDTH 524 0
DWIDTH 10 0
BBX 10 18 1 -4
BITMAP
0380
0600
0C00
0000
0FC0
1880
3080
7000
E000
E000
E000
E000
6100
3E00
2000
3000
3000
7000
ENDCHAR
STARTCHAR uni1E0A
ENCODING 7690
SWIDTH 822 0
DWIDTH 16 0
BBX 16 17 0 0
BITMAP
01C0
01C0
0000
1FF8
0E1E
0E0E
0E07
1E07
1C07
1C07
1C07
1C0E
380E
381C
3818
3870
FFC0
ENDCHAR
STARTCHAR uni1E0B
ENCODING 7691
SWIDTH 634 0
DWIDTH 12 0
BBX 12 17 1 0
BITMAP
01C0
01C0
0000
00F0
0070
0060
00E0
07E0
18E0
30E0
70C0
61C0
E3C0
E3C0
E5C0
F980
73E0
ENDCHAR
STARTCHAR uni1E0C
ENCODING 7692
SWIDTH 822 0
DWIDTH 16 0
BBX 16 17 0 -3
BITMAP
1FF8
0E1E
0E0E
0E07
1E07
1C07
1C07
1C07
1C0E
380E
381C
3818
3870
FFC0
0000
0700
0700
ENDCHAR
STARTCHAR uni1E0D
ENCODING 7693
SWIDTH 634 0
DWIDTH 12 0
BBX 12 17 1 -3
BITMAP
00F0
0070
0060
00E0
07E0
18E0
30E0
70C0
61C0
E3C0
E3C0
E5C0
F980
73E0
0000
0E00
0E00
ENDCHAR
STARTCHAR uni1E0E
ENCODING 7694
SWIDTH 822 0
DWIDTH 16 0
BBX 16 16 0 -2
BITMAP
1FF8
0E1E
0E0E
0E07
1E07
1C07
1C07
1C07
1C0E
380E
381C
3818
3870
FFC0
0000
0FC0
ENDCHAR
STARTCHAR uni1E0F
ENCODING 7695
SWIDTH 634 0
DWIDTH 12 0
BBX 12 16 1 -2
BITMAP
00F0
0070
0060
00E0
07E0
18E0
30E0
70C0
61C0
E3C0
E3C0
E5C0
F980
73E0
0000
3F00
ENDCHAR
STARTCHAR uni1E10
ENCODING 7696
SWIDTH 822 0
DWIDTH 16 0
BBX 16 18 0 -4
BITMAP
1FF8
0E1E
0E0E
0E07
1E07
1C07
1C07
1C07
1C0E
380E
381C
3818
3870
FFC0
0300
0300
0300
0700
ENDCHAR
STARTCHAR uni1E11
ENCODING 7697
SWIDTH 634 0
DWIDTH 12 0
BBX 12 18 1 -4
BITMAP
00F0
0070
0060
00E0
07E0
18E0
30E0
70C0
61C0
E3C0
E3C0
E5C0
F980
73E0
0600
0600
0600
0E00
ENDCHAR
STARTCHAR uni1E12
ENCODING 7698
SWIDTH 822 0
DWIDTH 16 0
BBX 16 18 0 -4
BITMAP
1FF8
0E1E
0E0E
0E07
1E07
1C07
1C07
1C07
1C0E
380E
381C
3818
3870
FFC0
0000
0380
0780
0CC0
ENDCHAR
STARTCHAR uni1E13
ENCODING 7699
SWIDTH 634 0
DWIDTH 12 0
BBX 12 18 1 -4
BITMAP
00F0
0070
0060
00E0
07E0
18E0
30E0
70C0
61C0
E3C0
E3C0
E5C0
F980
73E0
0000
0E00
1E00
3300
ENDCHAR
STARTCHAR uni1E14
ENCODING 7700
SWIDTH 630 0
DWIDTH 12 0
BBX 13 20 1 0
BITMAP
0700
0300
0180
0000
0FC0
0000
1FF8
0E18
0E18
0C00
1C00
1C60
1FC0
1C40
1800
3800
3800
3820
3860
FFE0
ENDCHAR
STARTCHAR uni1E15
ENCODING 7701
SWIDTH 548 0
DWIDTH 10 0
BBX 9 16 1 0
BITMAP
1C00
0C00
0600
0000
1F80
0000
0F00
1380
3180
6380
E700
FC00
E000
E000
F180
3F00
ENDCHAR
STARTCHAR uni1E16
ENCODING 7702
SWIDTH 630 0
DWIDTH 12 0
BBX 13 20 1 0
BITMAP
00E0
0180
0300
0000
0FC0
0000
1FF8
0E18
0E18
0C00
1C00
1C60
1FC0
1C40
1800
3800
3800
3820
3860
FFE0
ENDCHAR
STARTCHAR uni1E17
ENCODING 7703
SWIDTH 548 0
DWIDTH 10 0
BBX 9 16 1 0
BITMAP
0380
0600
0C00
0000
1F80
0000
0F00
1380
3180
6380
E700
FC00
E000
E000
F180
3F00
ENDCHAR
STARTCHAR uni1E18
ENCODING 7704
SWIDTH 630 0
DWIDTH 12 0
BBX 13 18 1 -4
BITMAP
1FF8
0E18
0E18
0C00
1C00
1C60
1FC0
1C40
1800
3800
3800
3820
3860
FFE0
0000
0E00
1E00
3300
ENDCHAR
STARTCHAR uni1E19
ENCODING 7705
SWIDTH 548 0
DWIDTH 10 0
BBX 9 14 1 -4
BITMAP
0F00
1380
3180
6380
E700
FC00
E000
E000
F180
3F00
0000
1C00
3C00
6600
ENDCHAR
STARTCHAR uni1E1A
ENCODING 7706
SWIDTH 630 0
DWIDTH 12 0
BBX 13 17 1 -3
BITMAP
1FF8
0E18
0E18
0C00
1C00
1C60
1FC0
1C40
1800
3800
3800
3820
3860
FFE0
0000
1C80
2700
ENDCHAR
STARTCHAR uni1E1B
ENCODING 7707
SWIDTH 548 0
DWIDTH 10 0
BBX 9 13 1 -3
BITMAP
0F00
1380
3180
6380
E700
FC00
E000
E000
F180
3F00
0000
3900
4E00
ENDCHAR
STARTCHAR uni1E1C
ENCODING 7708
SWIDTH 630 0
DWIDTH 12 0
BBX 13 22 1 -4
BITMAP
0820
0FC0
0780
0000
1FF8
0E18
0E18
0C00
1C00
1C60
1FC0
1C40
1800
3800
3800
3820
3860
FFE0
0600
0600
0600
0E00
ENDCHAR
STARTCHAR uni1E1D
ENCODING 7709
SWIDTH 548 0
DWIDTH 10 0
BBX 9 18 1 -4
BITMAP
2080
3F00
1E00
0000
0F00
1380
3180
6380
E700
FC00
E000
E000
F180
3F00
1800
1800
1800
3800
ENDCHAR
STARTCHAR uni1E1E
ENCODING 7710
SWIDTH 602 0
DWIDTH 11 0
BBX 13 17 1 0
BITMAP
0380
0380
0000
1FF8
0E18
0E18
0C00
1C00
1C60
1FC0
1C40
1800
3800
3800
3800
3800
FC00
ENDCHAR
STARTCHAR uni1E1F
ENCODING 7711
SWIDTH 415 0
DWIDTH 8 0
BBX 10 22 1 -4
BITMAP
0E00
0E00
0000
07C0
0CC0
0CC0
1C00
1C00
7F00
3800
3800
3800
3000
3000
7000
7000
7000
7000
6000
E000
E000
E000
ENDCHAR
STARTCHAR uni1E20
ENCODING 7712
SWIDTH 780 0
DWIDTH 15 0
BBX 13 16 2 0
BITMAP
07E0
0000
03F8
0E18
1818
3818
7000
7000
E000
E000
E1F8
E0F0
E0E0
70E0
78E0
1F80
ENDCHAR
STARTCHAR uni1E21
ENCODING 7713
SWIDTH 628 0
DWIDTH 12 0
BBX 12 16 1 -4
BITMAP
0FC0
0000
03F0
0C70
1860
3060
70E0
71E0
73E0
76C0
7DC0
79C0
01C0
8180
E300
7E00
ENDCHAR
STARTCHAR uni1E22
ENCODING 7714
SWIDTH 827 0
DWIDTH 16 0
BBX 17 17 1 0
BITMAP
00E000
00E000
000000
1F9F80
0E0E00
0E0E00
0C0E00
1C0E00
1C0C00
1FFC00
1C1C00
181C00
381C00
381800
383800
383800
FCFC00
ENDCHAR
STARTCHAR uni1E23
ENCODING 7715
SWIDTH 656 0
DWIDTH 12 0
BBX 11 17 2 0
BITMAP
1C00
1C00
0000
7C00
1800
3800
3800
39C0
3BE0
36E0
74E0
78C0
71C0
71C0
61C0
E1C0
E1E0
ENDCHAR
STARTCHAR uni1E24
ENCODING 7716
SWIDTH 827 0
DWIDTH 16 0
BBX 17 17 1 -3
BITMAP
1F9F80
0E0E00
0E0E00
0C0E00
1C0E00
1C0C00
1FFC00
1C1C00
181C00
381C00
381800
383800
383800
FCFC00
000000
038000
038000
ENDCHAR
STARTCHAR uni1E25
ENCODING 7717
SWIDTH 656 0
DWIDTH 12 0
BBX 11 17 2 -3
BITMAP
7C00
1800
3800
3800
39C0
3BE0
36E0
74E0
78C0
71C0
71C0
61C0
E1C0
E1E0
0000
0E00
0E00
ENDCHAR
STARTCHAR uni1E26
ENCODING 7718
SWIDTH 827 0
DWIDTH 16 0
BBX 17 16 1 0
BITMAP
033000
000000
1F9F80
0E0E00
0E0E00
0C0E00
1C0E00
1C0C00
1FFC00
1C1C00
181C00
381C00
381800
383800
383800
FCFC00
ENDCHAR
STARTCHAR uni1E27
ENCODING 7719
SWIDTH 656 0
DWIDTH 12 0
BBX 11 16 2 0
BITMAP
6600
0000
7C00
1800
3800
3800
39C0
3BE0
36E0
74E0
78C0
71C0
71C0
61C0
E1C0
E1E0
ENDCHAR
STARTCHAR uni1E28
ENCODING 7720
SWIDTH 827 0
DWIDTH 16 0
BBX 17 18 1 -4
BITMAP
1F9F80
0E0E00
0E0E00
0C0E00
1C0E00
1C0C00
1FFC00
1C1C00
181C00
381C00
381800
383800
383800
FCFC00
018000
018000
018000
038000
ENDCHAR
STARTCHAR uni1E29
ENCODING 7721
SWIDTH 656 0
DWIDTH 12 0
BBX 11 18 2 -4
BITMAP
7C00
1800
3800
3800
39C0
3BE0
36E0
74E0
78C0
71C0
71C0
61C0
E1C0
E1E0
0600
0600
0600
0E00
ENDCHAR
STARTCHAR uni1E2A
ENCODING 7722
SWIDTH 827 0
DWIDTH 16 0
BBX 17 18 1 -4
BITMAP
1F9F80
0E0E00
0E0E00
0C0E00
1C0E00
1C0C00
1FFC00
1C1C00
181C00
381C00
381800
383800
383800
FCFC00
000000
082000
0FC000
078000
ENDCHAR
STARTCHAR uni1E2B
ENCODING 7723
SWIDTH 656 0
DWIDTH 12 0
BBX 11 18 2 -4
BITMAP
7C00
1800
3800
3800
39C0
3BE0
36E0
74E0
78C0
71C0
71C0
61C0
E1C0
E1E0
0000
2080
3F00
1E00
ENDCHAR
STARTCHAR uni1E2C
ENCODING 7724
SWIDTH 372 0
DWIDTH 7 0
BBX 9 17 0 -3
BITMAP
1F80
0E00
0E00
0E00
0E00
1C00
1C00
1C00
1C00
1800
3800
3800
3800
FC00
0000
7200
9C00
ENDCHAR
STARTCHAR uni1E2D
ENCODING 7725
SWIDTH 319 0
DWIDTH 6 0
BBX 7 17 1 -3
BITMAP
0E
0E
00
00
7C
1C
1C
18
38
38
38
30
70
7C
00
72
9C
ENDCHAR
STARTCHAR uni1E2E
ENCODING 7726
SWIDTH 372 0
DWIDTH 7 0
BBX 9 20 0 0
BITMAP
0380
0600
0C00
0000
1980
0000
1F80
0E00
0E00
0E00
0E00
1C00
1C00
1C00
1C00
1800
3800
3800
3800
FC00
ENDCHAR
STARTCHAR uni1E2F
ENCODING 7727
SWIDTH 319 0
DWIDTH 6 0
BBX 7 16 2 0
BITMAP
0E
18
30
00
66
00
F8
38
30
70
70
70
70
60
E0
F8
ENDCHAR
STARTCHAR uni1E30
ENCODING 7728
SWIDTH 746 0
DWIDTH 14 0
BBX 15 18 1 0
BITMAP
00E0
0180
0300
0000
1F9E
0E08
0E10
0C60
1CC0
1D00
1F00
1F80
1BC0
39E0
38E0
3870
3878
FCFC
ENDCHAR
STARTCHAR uni1E31
ENCODING 7729
SWIDTH 626 0
DWIDTH 12 0
BBX 10 18 2 0
BITMAP
0E00
1800
3000
0000
7800
3800
3800
3800
31C0
31C0
7380
7700
7C00
6E00
6600
E700
E380
E3C0
ENDCHAR
STARTCHAR uni1E32
ENCODING 7730
SWIDTH 746 0
DWIDTH 14 0
BBX 15 17 1 -3
BITMAP
1F9E
0E08
0E10
0C60
1CC0
1D00
1F00
1F80
1BC0
39E0
38E0
3870
3878
FCFC
0000
0380
0380
ENDCHAR
STARTCHAR uni1E33
ENCODING 7731
SWIDTH 626 0
DWIDTH 12 0
BBX 10 17 2 -3
BITMAP
7800
3800
3800
3800
31C0
31C0
7380
7700
7C00
6E00
6600
E700
E380
E3C0
0000
1C00
1C00
ENDCHAR
STARTCHAR uni1E34
ENCODING 7732
SWIDTH 746 0
DWIDTH 14 0
BBX 15 16 1 -2
BITMAP
1F9E
0E08
0E10
0C60
1CC0
1D00
1F00
1F80
1BC0
39E0
38E0
3870
3878
FCFC
0000
0FC0
ENDCHAR
STARTCHAR uni1E35
ENCODING 7733
SWIDTH 626 0
DWIDTH 12 0
BBX 10 16 2 -2
BITMAP
7800
3800
3800
3800
31C0
31C0
7380
7700
7C00
6E00
6600
E700
E380
E3C0
0000
3F00
ENDCHAR
STARTCHAR uni1E36
ENCODING 7734
SWIDTH 611 0
DWIDTH 12 0
BBX 11 17 1 -3
BITMAP
1F00
0E00
0E00
0C00
1C00
1C00
1C00
1C00
1800
3800
3800
3860
3860
FFC0
0000
0E00
0E00
ENDCHAR
STARTCHAR uni1E37
ENCODING 7735
SWIDTH 319 0
DWIDTH 6 0
BBX 6 17 1 -3
BITMAP
7C
1C
18
38
38
38
30
30
70
70
70
60
E0
F8
00
70
70
ENDCHAR
STARTCHAR uni1E38
ENCODING 7736
SWIDTH 611 0
DWIDTH 12 0
BBX 11 19 1 -3
BITMAP
3F00
0000
1F00
0E00
0E00
0C00
1C00
1C00
1C00
1C00
1800
3800
3800
3860
3860
FFC0
0000
0E00
0E00
ENDCHAR
STARTCHAR uni1E39
ENCODING 7737
SWIDTH 319 0
DWIDTH 6 0
BBX 7 19 1 -3
BITMAP
7E
00
7C
1C
18
38
38
38
30
30
70
70
70
60
E0
F8
00
70
70
ENDCHAR
STARTCHAR uni1E3A
ENCODING 7738
SWIDTH 611 0
DWIDTH 12 0
BBX 11 16 1 -2
BITMAP
1F00
0E00
0E00
0C00
1C00
1C00
1C00
1C00
1800
3800
3800
3860
3860
FFC0
0000
3F00
ENDCHAR
STARTCHAR uni1E3B
ENCODING 7739
SWIDTH 319 0
DWIDTH 6 0
BBX 7 16 0 -2
BITMAP
3E
0E
0C
1C
1C
1C
18
18
38
38
38
30
70
7C
00
FC
ENDCHAR
STARTCHAR uni1E3C
ENCODING 7740
SWIDTH 611 0
DWIDTH 12 0
BBX 11 18 1 -4
BITMAP
1F00
0E00
0E00
0C00
1C00
1C00
1C00
1C00
1800
3800
3800
3860
3860
FFC0
0000
0E00
1E00
3300
ENDCHAR
STARTCHAR uni1E3D
ENCODING 7741
SWIDTH 319 0
DWIDTH 6 0
BBX 7 18 0 -4
BITMAP
3E
0E
0C
1C
1C
1C
18
18
38
38
38
30
70
7C
00
38
78
CC
ENDCHAR
STARTCHAR uni1E3E
ENCODING 7742
SWIDTH 926 0
DWIDTH 18 0
BBX 19 18 1 0
BITMAP
001C00
003000
006000
000000
1E01E0
0E0380
0E0780
0E0780
1B0B80
1B0B00
131300
132700
11A700
31C700
318600
218600
200E00
F81F00
ENDCHAR
STARTCHAR uni1E3F
ENCODING 7743
SWIDTH 969 0
DWIDTH 18 0
BBX 17 14 2 0
BITMAP
007000
00C000
018000
000000
F9C700
33EF80
34FB80
78F380
79E300
71C300
61C700
618700
E18700
E38780
ENDCHAR
STARTCHAR uni1E40
ENCODING 7744
SWIDTH 926 0
DWIDTH 18 0
BBX 19 17 1 0
BITMAP
007000
007000
000000
1E01E0
0E0380
0E0780
0E0780
1B0B80
1B0B00
131300
132700
11A700
31C700
318600
218600
200E00
F81F00
ENDCHAR
STARTCHAR uni1E41
ENCODING 7745
SWIDTH 969 0
DWIDTH 18 0
BBX 17 13 2 0
BITMAP
01C000
01C000
000000
F9C700
33EF80
34FB80
78F380
79E300
71C300
61C700
618700
E18700
E38780
ENDCHAR
STARTCHAR uni1E42
ENCODING 7746
SWIDTH 926 0
DWIDTH 18 0
BBX 19 17 1 -3
BITMAP
1E01E0
0E0380
0E0780
0E0780
1B0B80
1B0B00
131300
132700
11A700
31C700
318600
218600
200E00
F81F00
000000
00E000
00E000
ENDCHAR
STARTCHAR uni1E43
ENCODING 7747
SWIDTH 969 0
DWIDTH 18 0
BBX 17 13 2 -3
BITMAP
F9C700
33EF80
34FB80
78F380
79E300
71C300
61C700
618700
E18700
E38780
000000
01C000
01C000
ENDCHAR
STARTCHAR uni1E44
ENCODING 7748
SWIDTH 797 0
DWIDTH 15 0
BBX 17 17 0 0
BITMAP
01C000
01C000
000000
1E0F80
0E0200
0F0200
0F0600
1B8600
1B8400
11C400
11C400
10EC00
306C00
307800
203800
203800
F81800
ENDCHAR
STARTCHAR uni1E45
ENCODING 7749
SWIDTH 656 0
DWIDTH 12 0
BBX 11 13 2 0
BITMAP
0E00
0E00
0000
F9C0
3BE0
36E0
7CE0
78C0
71C0
71C0
61C0
E1C0
E1E0
ENDCHAR
STARTCHAR uni1E46
ENCODING 7750
SWIDTH 797 0
DWIDTH 15 0
BBX 17 17 0 -3
BITMAP
1E0F80
0E0200
0F0200
0F0600
1B8600
1B8400
11C400
11C400
10EC00
306C00
307800
203800
203800
F81800
000000
038000
038000
ENDCHAR
STARTCHAR uni1E47
ENCODING 7751
SWIDTH 656 0
DWIDTH 12 0
BBX 11 13 2 -3
BITMAP
F9C0
3BE0
36E0
7CE0
78C0
71C0
71C0
61C0
E1C0
E1E0
0000
0E00
0E00
ENDCHAR
STARTCHAR uni1E48
ENCODING 7752
SWIDTH 797 0
DWIDTH 15 0
BBX 17 16 0 -2
BITMAP
1E0F80
0E0200
0F0200
0F0600
1B8600
1B8400
11C400
11C400
10EC00
306C00
307800
203800
203800
F81800
000000
07E000
ENDCHAR
STARTCHAR uni1E49
ENCODING 7753
SWIDTH 656 0
DWIDTH 12 0
BBX 11 12 2 -2
BITMAP
F9C0
3BE0
36E0
7CE0
78C0
71C0
71C0
61C0
E1C0
E1E0
0000
1F80
ENDCHAR
STARTCHAR uni1E4A
ENCODING 7754
SWIDTH 797 0
DWIDTH 15 0
BBX 17 18 0 -4
BITMAP
1E0F80
0E0200
0F0200
0F0600
1B8600
1B8400
11C400
11C400
10EC00
306C00
307800
203800
203800
F81800
000000
01C000
03C000
066000
ENDCHAR
STARTCHAR uni1E4B
ENCODING 7755
SWIDTH 656 0
DWIDTH 12 0
BBX 11 14 2 -4
BITMAP
F9C0
3BE0
36E0
7CE0
78C0
71C0
71C0
61C0
E1C0
E1E0
0000
0E00
1E00
3300
ENDCHAR
STARTCHAR uni1E4C
ENCODING 7756
SWIDTH 831 0
DWIDTH 16 0
BBX 14 21 2 0
BITMAP
0070
00C0
0180
0000
01C8
0270
0000
03F0
0E38
181C
381C
701C
701C
E01C
E01C
E01C
E038
E030
6060
70C0
1F00
ENDCHAR
STARTCHAR uni1E4D
ENCODING 7757
SWIDTH 599 0
DWIDTH 11 0
BBX 11 17 1 0
BITMAP
01C0
0300
0600
0000
0720
09C0
0000
0F80
19C0
30C0
70E0
E0C0
E1C0
E1C0
E180
F300
3C00
ENDCHAR
STARTCHAR uni1E4E
ENCODING 7758
SWIDTH 831 0
DWIDTH 16 0
BBX 14 19 2 0
BITMAP
0660
0000
01C8
0270
0000
03F0
0E38
181C
381C
701C
701C
E01C
E01C
E01C
E038
E030
6060
70C0
1F00
ENDCHAR
STARTCHAR uni1E4F
ENCODING 7759
SWIDTH 599 0
DWIDTH 11 0
BBX 11 15 1 0
BITMAP
0CC0
0000
0720
09C0
0000
0F80
19C0
30C0
70E0
E0C0
E1C0
E1C0
E180
F300
3C00
ENDCHAR
STARTCHAR uni1E50
ENCODING 7760
SWIDTH 831 0
DWIDTH 16 0
BBX 14 20 2 0
BITMAP
0700
0300
0180
0000
07E0
0000
03F0
0E38
181C
381C
701C
701C
E01C
E01C
E01C
E038
E030
6060
70C0
1F00
ENDCHAR
STARTCHAR uni1E51
ENCODING 7761
SWIDTH 599 0
DWIDTH 11 0
BBX 11 16 1 0
BITMAP
1C00
0C00
0600
0000
1F80
0000
0F80
19C0
30C0
70E0
E0C0
E1C0
E1C0
E180
F300
3C00
ENDCHAR
STARTCHAR uni1E52
ENCODING 7762
SWIDTH 831 0
DWIDTH 16 0
BBX 14 20 2 0
BITMAP
0070
00C0
0180
0000
07E0
0000
03F0
0E38
181C
381C
701C
701C
E01C
E01C
E01C
E038
E030
6060
70C0
1F00
ENDCHAR
STARTCHAR uni1E53
ENCODING 7763
SWIDTH 599 0
DWIDTH 11 0
BBX 11 16 1 0
BITMAP
01C0
0300
0600
0000
1F80
0000
0F80
19C0
30C0
70E0
E0C0
E1C0
E1C0
E180
F300
3C00
ENDCHAR
STARTCHAR uni1E54
ENCODING 7764
SWIDTH 628 0
DWIDTH 12 0
BBX 13 18 1 0
BITMAP
00E0
0180
0300
0000
1FF0
0E38
0E38
0C38
1C38
1C70
1CE0
1F80
1800
3800
3800
3800
3800
FC00
ENDCHAR
STARTCHAR uni1E55
ENCODING 7765
SWIDTH 639 0
DWIDTH 12 0
BBX 12 18 1 -4
BITMAP
01C0
0300
0600
0000
7CE0
39F0
3A70
3C70
3870
3860
70E0
70C0
7180
7E00
6000
E000
E000
E000
ENDCHAR
STARTCHAR uni1E56
ENCODING 7766
SWIDTH 628 0
DWIDTH 12 0
BBX 13 17 1 0
BITMAP
0380
0380
0000
1FF0
0E38
0E38
0C38
1C38
1C70
1CE0
1F80
1800
3800
3800
3800
3800
FC00
ENDCHAR
STARTCHAR uni1E57
ENCODING 7767
SWIDTH 639 0
DWIDTH 12 0
BBX 12 17 1 -4
BITMAP
0700
0700
0000
7CE0
39F0
3A70
3C70
3870
3860
70E0
70C0
7180
7E00
6000
E000
E000
E000
ENDCHAR
STARTCHAR uni1E58
ENCODING 7768
SWIDTH 711 0
DWIDTH 14 0
BBX 13 17 1 0
BITMAP
0380
0380
0000
1FF0
0E38
0E38
0C38
1C38
1C70
1CE0
1F80
19C0
39C0
38E0
38E0
3870
FC78
ENDCHAR
STARTCHAR uni1E59
ENCODING 7769
SWIDTH 496 0
DWIDTH 9 0
BBX 10 13 2 0
BITMAP
0E00
0E00
0000
F9C0
3B80
3680
7C00
7800
7000
7000
6000
E000
E000
ENDCHAR
STARTCHAR uni1E5A
ENCODING 7770
SWIDTH 711 0
DWIDTH 14 0
BBX 13 17 1 -3
BITMAP
1FF0
0E38
0E38
0C38
1C38
1C70
1CE0
1F80
19C0
39C0
38E0
38E0
3870
FC78
0000
0700
0700
ENDCHAR
STARTCHAR uni1E5B
ENCODING 7771
SWIDTH 496 0
DWIDTH 9 0
BBX 10 13 2 -3
BITMAP
F9C0
3B80
3680
7C00
7800
7000
7000
6000
E000
E000
0000
7000
7000
ENDCHAR
STARTCHAR uni1E5C
ENCODING 7772
SWIDTH 711 0
DWIDTH 14 0
BBX 13 19 1 -3
BITMAP
07E0
0000
1FF0
0E38
0E38
0C38
1C38
1C70
1CE0
1F80
19C0
39C0
38E0
38E0
3870
FC78
0000
0700
0700
ENDCHAR
STARTCHAR uni1E5D
ENCODING 7773
SWIDTH 496 0
DWIDTH 9 0
BBX 10 15 2 -3
BITMAP
3F00
0000
F9C0
3B80
3680
7C00
7800
7000
7000
6000
E000
E000
0000
7000
7000
ENDCHAR
STARTCHAR uni1E5E
ENCODING 7774
SWIDTH 711 0
DWIDTH 14 0
BBX 13 16 1 -2
BITMAP
1FF0
0E38
0E38
0C38
1C38
1C70
1CE0
1F80
19C0
39C0
38E0
38E0
3870
FC78
0000
0FC0
ENDCHAR
STARTCHAR uni1E5F
ENCODING 7775
SWIDTH 496 0
DWIDTH 9 0
BBX 10 12 2 -2
BITMAP
F9C0
3B80
3680
7C00
7800
7000
7000
6000
E000
E000
0000
FC00
ENDCHAR
STARTCHAR uni1E60
ENCODING 7776
SWIDTH 587 0
DWIDTH 11 0
BBX 11 17 1 0
BITMAP
0700
0700
0000
07E0
1C60
3860
3800
3800
3C00
1F00
0F80
0380
01C0
01C0
C380
C300
FE00
ENDCHAR
STARTCHAR uni1E61
ENCODING 7777
SWIDTH 479 0
DWIDTH 9 0
BBX 9 13 1 0
BITMAP
0E00
0E00
0000
1F80
3980
3100
3800
1C00
0E00
0700
C700
C600
7C00
ENDCHAR
STARTCHAR uni1E62
ENCODING 7778
SWIDTH 587 0
DWIDTH 11 0
BBX 11 17 1 -3
BITMAP
07E0
1C60
3860
3800
3800
3C00
1F00
0F80
0380
01C0
01C0
C380
C300
FE00
0000
0E00
0E00
ENDCHAR
STARTCHAR uni1E63
ENCODING 7779
SWIDTH 479 0
DWIDTH 9 0
BBX 9 13 1 -3
BITMAP
1F80
3980
3100
3800
1C00
0E00
0700
C700
C600
7C00
0000
1C00
1C00
ENDCHAR
STARTCHAR uni1E64
ENCODING 7780
SWIDTH 587 0
DWIDTH 11 0
BBX 11 21 1 0
BITMAP
0700
0700
0000
01C0
0300
0600
0000
07E0
1C60
3860
3800
3800
3C00
1F00
0F80
0380
01C0
01C0
C380
C300
FE00
ENDCHAR
STARTCHAR uni1E65
ENCODING 7781
SWIDTH 479 0
DWIDTH 9 0
BBX 9 17 1 0
BITMAP
0E00
0E00
0000
0380
0600
0C00
0000
1F80
3980
3100
3800
1C00
0E00
0700
C700
C600
7C00
ENDCHAR
STARTCHAR uni1E66
ENCODING 7782
SWIDTH 587 0
DWIDTH 11 0
BBX 11 21 1 0
BITMAP
0380
0380
0000
0460
02C0
0380
0000
07E0
1C60
3860
3800
3800
3C00
1F00
0F80
0380
01C0
01C0
C380
C300
FE00
ENDCHAR
STARTCHAR uni1E67
ENCODING 7783
SWIDTH 479 0
DWIDTH 9 0
BBX 10 17 1 0
BITMAP
0700
0700
0000
08C0
0580
0700
0000
1F80
3980
3100
3800
1C00
0E00
0700
C700
C600
7C00
ENDCHAR
STARTCHAR uni1E68
ENCODING 7784
SWIDTH 587 0
DWIDTH 11 0
BBX 11 20 1 -3
BITMAP
0E00
0E00
0000
07E0
1C60
3860
3800
3800
3C00
1F00
0F80
0380
01C0
01C0
C380
C300
FE00
0000
0E00
0E00
ENDCHAR
STARTCHAR uni1E69
ENCODING 7785
SWIDTH 479 0
DWIDTH 9 0
BBX 9 16 1 -3
BITMAP
1C00
1C00
0000
1F80
3980
3100
3800
1C00
0E00
0700
C700
C600
7C00
0000
1C00
1C00
ENDCHAR
STARTCHAR uni1E6A
ENCODING 7786
SWIDTH 716 0
DWIDTH 14 0
BBX 13 17 3 0
BITMAP
0700
0700
0000
FFF8
C718
8718
0700
0600
0E00
0E00
0E00
0E00
0C00
1C00
1C00
1C00
7E00
ENDCHAR
STARTCHAR uni1E6B
ENCODING 7787
SWIDTH 375 0
DWIDTH 7 0
BBX 7 16 2 0
BITMAP
38
38
00
18
38
38
FE
70
70
70
70
60
E0
E0
E0
78
ENDCHAR
STARTCHAR uni1E6C
ENCODING 7788
SWIDTH 716 0
DWIDTH 14 0
BBX 13 17 3 -3
BITMAP
FFF8
C718
8718
0700
0600
0E00
0E00
0E00
0E00
0C00
1C00
1C00
1C00
7E00
0000
0E00
0E00
ENDCHAR
STARTCHAR uni1E6D
ENCODING 7789
SWIDTH 375 0
DWIDTH 7 0
BBX 7 16 2 -3
BITMAP
18
38
38
FE
70
70
70
70
60
E0
E0
E0
78
00
70
70
ENDCHAR
STARTCHAR uni1E6E
ENCODING 7790
SWIDTH 716 0
DWIDTH 14 0
BBX 13 16 3 -2
BITMAP
FFF8
C718
8718
0700
0600
0E00
0E00
0E00
0E00
0C00
1C00
1C00
1C00
7E00
0000
3F00
ENDCHAR
STARTCHAR uni1E6F
ENCODING 7791
SWIDTH 375 0
DWIDTH 7 0
BBX 8 15 1 -2
BITMAP
0C
1C
1C
7F
38
38
38
38
30
70
70
70
3C
00
FC
ENDCHAR
STARTCHAR uni1E70
ENCODING 7792
SWIDTH 716 0
DWIDTH 14 0
BBX 13 18 3 -4
BITMAP
FFF8
C718
8718
0700
0600
0E00
0E00
0E00
0E00
0C00
1C00
1C00
1C00
7E00
0000
0E00
1E00
3300
ENDCHAR
STARTCHAR uni1E71
ENCODING 7793
SWIDTH 375 0
DWIDTH 7 0
BBX 8 17 1 -4
BITMAP
0C
1C
1C
7F
38
38
38
38
30
70
70
70
3C
00
38
78
CC
ENDCHAR
STARTCHAR uni1E72
ENCODING 7794
SWIDTH 775 0
DWIDTH 15 0
BBX 14 16 3 -2
BITMAP
FC3C
7818
7010
7010
7010
7020
6020
E020
E020
E060
E040
E040
7080
3F00
0000
3300
ENDCHAR
STARTCHAR uni1E73
ENCODING 7795
SWIDTH 655 0
DWIDTH 12 0
BBX 11 12 2 -2
BITMAP
F1E0
70E0
70C0
70C0
71C0
63C0
E7C0
ED80
FB80
73E0
0000
3300
ENDCHAR
STARTCHAR uni1E74
ENCODING 7796
SWIDTH 775 0
DWIDTH 15 0
BBX 14 17 3 -3
BITMAP
FC3C
7818
7010
7010
7010
7020
6020
E020
E020
E060
E040
E040
7080
3F00
0000
1C80
2700
ENDCHAR
STARTCHAR uni1E75
ENCODING 7797
SWIDTH 655 0
DWIDTH 12 0
BBX 11 13 2 -3
BITMAP
F1E0
70E0
70C0
70C0
71C0
63C0
E7C0
ED80
FB80
73E0
0000
1C80
2700
ENDCHAR
STARTCHAR uni1E76
ENCODING 7798
SWIDTH 775 0
DWIDTH 15 0
BBX 14 18 3 -4
BITMAP
FC3C
7818
7010
7010
7010
7020
6020
E020
E020
E060
E040
E040
7080
3F00
0000
0E00
1E00
3300
ENDCHAR
STARTCHAR uni1E77
ENCODING 7799
SWIDTH 655 0
DWIDTH 12 0
BBX 11 14 2 -4
BITMAP
F1E0
70E0
70C0
70C0
71C0
63C0
E7C0
ED80
FB80
73E0
0000
0E00
1E00
3300
ENDCHAR
STARTCHAR uni1E78
ENCODING 7800
SWIDTH 775 0
DWIDTH 15 0
BBX 14 21 3 0
BITMAP
01C0
0300
0600
0000
0E40
1380
0000
FC3C
7818
7010
7010
7010
7020
6020
E020
E020
E060
E040
E040
7080
3F00
ENDCHAR
STARTCHAR uni1E79
ENCODING 7801
SWIDTH 655 0
DWIDTH 12 0
BBX 11 17 2 0
BITMAP
0380
0600
0C00
0000
1C80
2700
0000
F1E0
70E0
70C0
70C0
71C0
63C0
E7C0
ED80
FB80
73E0
ENDCHAR
STARTCHAR uni1E7A
ENCODING 7802
SWIDTH 775 0
DWIDTH 15 0
BBX 14 18 3 0
BITMAP
1980
0000
1F80
0000
FC3C
7818
7010
7010
7010
7020
6020
E020
E020
E060
E040
E040
7080
3F00
ENDCHAR
STARTCHAR uni1E7B
ENCODING 7803
SWIDTH 655 0
DWIDTH 12 0
BBX 11 14 2 0
BITMAP
1980
0000
1F80
0000
F1E0
70E0
70C0
70C0
71C0
63C0
E7C0
ED80
FB80
73E0
ENDCHAR
STARTCHAR uni1E7C
ENCODING 7804
SWIDTH 741 0
DWIDTH 14 0
BBX 14 17 3 0
BITMAP
0E40
1380
0000
F83C
7018
7010
3030
3820
3840
3840
3880
1D80
1D00
1E00
1E00
1C00
0800
ENDCHAR
STARTCHAR uni1E7D
ENCODING 7805
SWIDTH 584 0
DWIDTH 11 0
BBX 11 13 2 0
BITMAP
1C80
2700
0000
F0E0
70E0
30C0
38C0
3980
3900
1A00
1C00
1800
1000
ENDCHAR
STARTCHAR uni1E7E
ENCODING 7806
SWIDTH 741 0
DWIDTH 14 0
BBX 14 17 3 -3
BITMAP
F83C
7018
7010
3030
3820
3840
3840
3880
1D80
1D00
1E00
1E00
1C00
0800
0000
0E00
0E00
ENDCHAR
STARTCHAR uni1E7F
ENCODING 7807
SWIDTH 584 0
DWIDTH 11 0
BBX 11 13 2 -3
BITMAP
F0E0
70E0
30C0
38C0
3980
3900
1A00
1C00
1800
1000
0000
1C00
1C00
ENDCHAR
STARTCHAR Wgrave
ENCODING 7808
SWIDTH 922 0
DWIDTH 17 0
BBX 18 18 2 0
BITMAP
038000
018000
00C000
000000
F843C0
70C180
70C100
71E300
71E200
72E600
72E400
74EC00
34E800
38F800
387000
307000
306000
206000
ENDCHAR
STARTCHAR wgrave
ENCODING 7809
SWIDTH 822 0
DWIDTH 16 0
BBX 15 14 2 0
BITMAP
0700
0300
0180
0000
F08E
7186
3184
338C
3BC8
3CD0
3CE0
38E0
18C0
1080
ENDCHAR
STARTCHAR Wacute
ENCODING 7810
SWIDTH 922 0
DWIDTH 17 0
BBX 18 18 2 0
BITMAP
007000
00C000
018000
000000
F843C0
70C180
70C100
71E300
71E200
72E600
72E400
74EC00
34E800
38F800
387000
307000
306000
206000
ENDCHAR
STARTCHAR wacute
ENCODING 7811
SWIDTH 822 0
DWIDTH 16 0
BBX 15 14 2 0
BITMAP
00E0
0180
0300
0000
F08E
7186
3184
338C
3BC8
3CD0
3CE0
38E0
18C0
1080
ENDCHAR
STARTCHAR Wdieresis
ENCODING 7812
SWIDTH 922 0
DWIDTH 17 0
BBX 18 16 2 0
BITMAP
066000
000000
F843C0
70C180
70C100
71E300
71E200
72E600
72E400
74EC00
34E800
38F800
387000
307000
306000
206000
ENDCHAR
STARTCHAR wdieresis
ENCODING 7813
SWIDTH 822 0
DWIDTH 16 0
BBX 15 12 2 0
BITMAP
0CC0
0000
F08E
7186
3184
338C
3BC8
3CD0
3CE0
38E0
18C0
1080
ENDCHAR
STARTCHAR uni1E86
ENCODING 7814
SWIDTH 922 0
DWIDTH 17 0
BBX 18 17 2 0
BITMAP
01C000
01C000
000000
F843C0
70C180
70C100
71E300
71E200
72E600
72E400
74EC00
34E800
38F800
387000
307000
306000
206000
ENDCHAR
STARTCHAR uni1E87
ENCODING 7815
SWIDTH 822 0
DWIDTH 16 0
BBX 15 13 2 0
BITMAP
0380
0380
0000
F08E
7186
3184
338C
3BC8
3CD0
3CE0
38E0
18C0
1080
ENDCHAR
STARTCHAR uni1E88
ENCODING 7816
SWIDTH 922 0
DWIDTH 17 0
BBX 18 17 2 -3
BITMAP
F843C0
70C180
70C100
71E300
71E200
72E600
72E400
74EC00
34E800
38F800
387000
307000
306000
206000
000000
038000
038000
ENDCHAR
STARTCHAR uni1E89
ENCODING 7817
SWIDTH 822 0
DWIDTH 16 0
BBX 15 13 2 -3
BITMAP
F08E
7186
3184
338C
3BC8
3CD0
3CE0
38E0
18C0
1080
0000
0700
0700
ENDCHAR
STARTCHAR uni1E8A
ENCODING 7818
SWIDTH 672 0
DWIDTH 13 0
BBX 15 17 0 0
BITMAP
01C0
01C0
0000
1F1E
0E0C
0718
0730
0720
03C0
0380
03C0
07C0
0CC0
18E0
30E0
6070
F1F8
ENDCHAR
STARTCHAR uni1E8B
ENCODING 7819
SWIDTH 534 0
DWIDTH 10 0
BBX 10 13 1 0
BITMAP
0E00
0E00
0000
79C0
38C0
1D80
1D00
0E00
0E00
3700
6700
C380
C3C0
ENDCHAR
STARTCHAR uni1E8C
ENCODING 7820
SWIDTH 672 0
DWIDTH 13 0
BBX 15 16 0 0
BITMAP
0660
0000
1F1E
0E0C
0718
0730
0720
03C0
0380
03C0
07C0
0CC0
18E0
30E0
6070
F1F8
ENDCHAR
STARTCHAR uni1E8D
ENCODING 7821
SWIDTH 534 0
DWIDTH 10 0
BBX 10 12 1 0
BITMAP
3300
0000
79C0
38C0
1D80
1D00
0E00
0E00
3700
6700
C380
C3C0
ENDCHAR
STARTCHAR uni1E8E
ENCODING 7822
SWIDTH 669 0
DWIDTH 13 0
BBX 13 17 2 0
BITMAP
0700
0700
0000
F878
7030
7060
3840
3880
1D00
1F00
0E00
1C00
1C00
1C00
1C00
3C00
7E00
ENDCHAR
STARTCHAR uni1E8F
ENCODING 7823
SWIDTH 586 0
DWIDTH 11 0
BBX 13 17 0 -4
BITMAP
0380
0380
0000
3C38
1C18
0C18
0E30
0E60
0E40
0680
0700
0700
0600
0400
0800
3000
F000
ENDCHAR
STARTCHAR uni1E90
ENCODING 7824
SWIDTH 684 0
DWIDTH 13 0
BBX 13 18 1 0
BITMAP
01C0
03C0
0660
0000
1FF8
1870
10F0
01E0
01C0
0380
0780
0F00
0E00
1C00
3800
7820
7060
FFE0
ENDCHAR
STARTCHAR uni1E91
ENCODING 7825
SWIDTH 567 0
DWIDTH 11 0
BBX 11 14 1 0
BITMAP
0700
0F00
1980
0000
3FE0
31C0
2380
0700
0F00
0E00
1C00
3840
70C0
FF80
ENDCHAR
STARTCHAR uni1E92
ENCODING 7826
SWIDTH 684 0
DWIDTH 13 0
BBX 13 17 1 -3
BITMAP
1FF8
1870
10F0
01E0
01C0
0380
0780
0F00
0E00
1C00
3800
7820
7060
FFE0
0000
0E00
0E00
ENDCHAR
STARTCHAR uni1E93
ENCODING 7827
SWIDTH 567 0
DWIDTH 11 0
BBX 11 13 1 -3
BITMAP
3FE0
31C0
2380
0700
0F00
0E00
1C00
3840
70C0
FF80
0000
0E00
0E00
ENDCHAR
STARTCHAR uni1E94
ENCODING 7828
SWIDTH 684 0
DWIDTH 13 0
BBX 13 16 1 -2
BITMAP
1FF8
1870
10F0
01E0
01C0
0380
0780
0F00
0E00
1C00
3800
7820
7060
FFE0
0000
1F80
ENDCHAR
STARTCHAR uni1E95
ENCODING 7829
SWIDTH 567 0
DWIDTH 11 0
BBX 11 12 1 -2
BITMAP
3FE0
31C0
2380
0700
0F00
0E00
1C00
3840
70C0
FF80
0000
3F00
ENDCHAR
STARTCHAR uni1E96
ENCODING 7830
SWIDTH 656 0
DWIDTH 12 0
BBX 11 16 2 -2
BITMAP
7C00
1800
3800
3800
39C0
3BE0
36E0
74E0
78C0
71C0
71C0
61C0
E1C0
E1E0
0000
1F80
ENDCHAR
STARTCHAR uni1E97
ENCODING 7831
SWIDTH 375 0
DWIDTH 7 0
BBX 7 15 2 0
BITMAP
66
00
18
38
38
FE
70
70
70
70
60
E0
E0
E0
78
ENDCHAR
STARTCHAR uni1E98
ENCODING 7832
SWIDTH 822 0
DWIDTH 16 0
BBX 15 14 2 0
BITMAP
0380
0280
0380
0000
F08E
7186
3184
338C
3BC8
3CD0
3CE0
38E0
18C0
1080
ENDCHAR
STARTCHAR uni1E99
ENCODING 7833
SWIDTH 586 0
DWIDTH 11 0
BBX 13 18 0 -4
BITMAP
0380
0280
0380
0000
3C38
1C18
0C18
0E30
0E60
0E40
0680
0700
0700
0600
0400
0800
3000
F000
ENDCHAR
STARTCHAR uni1EA0
ENCODING 7840
SWIDTH 765 0
DWIDTH 15 0
BBX 15 17 0 -3
BITMAP
0060
0060
00E0
0170
0170
0270
0630
0438
0838
0FF8
1038
201C
601C
F07E
0000
01C0
01C0
ENDCHAR
STARTCHAR uni1EA1
ENCODING 7841
SWIDTH 634 0
DWIDTH 12 0
BBX 11 13 1 -3
BITMAP
07E0
18E0
30C0
70C0
61C0
E3C0
E3C0
E580
F980
73E0
0000
0E00
0E00
ENDCHAR
STARTCHAR uni1EA4
ENCODING 7844
SWIDTH 765 0
DWIDTH 15 0
BBX 15 22 0 0
BITMAP
0038
0060
00C0
0000
0070
00F0
0198
0000
0060
0060
00E0
0170
0170
0270
0630
0438
0838
0FF8
1038
201C
601C
F07E
ENDCHAR
STARTCHAR uni1EA5
ENCODING 7845
SWIDTH 634 0
DWIDTH 12 0
BBX 11 18 1 0
BITMAP
01C0
0300
0600
0000
0380
0780
0CC0
0000
07E0
18E0
30C0
70C0
61C0
E3C0
E3C0
E580
F980
73E0
ENDCHAR
STARTCHAR uni1EA6
ENCODING 7846
SWIDTH 765 0
DWIDTH 15 0
BBX 15 22 0 0
BITMAP
01C0
00C0
0060
0000
0070
00F0
0198
0000
0060
0060
00E0
0170
0170
0270
0630
0438
0838
0FF8
1038
201C
601C
F07E
ENDCHAR
STARTCHAR uni1EA7
ENCODING 7847
SWIDTH 634 0
DWIDTH 12 0
BBX 11 18 1 0
BITMAP
0E00
0600
0300
0000
0380
0780
0CC0
0000
07E0
18E0
30C0
70C0
61C0
E3C0
E3C0
E580
F980
73E0
ENDCHAR
STARTCHAR uni1EAA
ENCODING 7850
SWIDTH 765 0
DWIDTH 15 0
BBX 15 21 0 0
BITMAP
01C8
0270
0000
0070
00F0
0198
0000
0060
0060
00E0
0170
0170
0270
0630
0438
0838
0FF8
1038
201C
601C
F07E
ENDCHAR
STARTCHAR uni1EAB
ENCODING 7851
SWIDTH 634 0
DWIDTH 12 0
BBX 11 17 1 0
BITMAP
0E40
1380
0000
0380
0780
0CC0
0000
07E0
18E0
30C0
70C0
61C0
E3C0
E3C0
E580
F980
73E0
ENDCHAR
STARTCHAR uni1EAC
ENCODING 7852
SWIDTH 765 0
DWIDTH 15 0
BBX 15 21 0 -3
BITMAP
00E0
01E0
0330
0000
0060
0060
00E0
0170
0170
0270
0630
0438
0838
0FF8
1038
201C
601C
F07E
0000
01C0
01C0
ENDCHAR
STARTCHAR uni1EAD
ENCODING 7853
SWIDTH 634 0
DWIDTH 12 0
BBX 11 17 1 -3
BITMAP
0700
0F00
1980
0000
07E0
18E0
30C0
70C0
61C0
E3C0
E3C0
E580
F980
73E0
0000
0E00
0E00
ENDCHAR
STARTCHAR uni1EAE
ENCODING 7854
SWIDTH 765 0
DWIDTH 15 0
BBX 15 22 0 0
BITMAP
0070
00C0
0180
0000
0208
03F0
01E0
0000
0060
0060
00E0
0170
0170
0270
0630
0438
0838
0FF8
1038
201C
601C
F07E
ENDCHAR
STARTCHAR uni1EAF
ENCODING 7855
SWIDTH 634 0
DWIDTH 12 0
BBX 11 18 1 0
BITMAP
0380
0600
0C00
0000
1040
1F80
0F00
0000
07E0
18E0
30C0
70C0
61C0
E3C0
E3C0
E580
F980
73E0
ENDCHAR
STARTCHAR uni1EB0
ENCODING 7856
SWIDTH 765 0
DWIDTH 15 0
BBX 15 22 0 0
BITMAP
0380
0180
00C0
0000
0208
03F0
01E0
0000
0060
0060
00E0
0170
0170
0270
0630
0438
0838
0FF8
1038
201C
601C
F07E
ENDCHAR
STARTCHAR uni1EB1
ENCODING 7857
SWIDTH 634 0
DWIDTH 12 0
BBX 11 18 1 0
BITMAP
1C00
0C00
0600
0000
1040
1F80
0F00
0000
07E0
18E0
30C0
70C0
61C0
E3C0
E3C0
E580
F980
73E0
ENDCHAR
STARTCHAR uni1EB4
ENCODING 7860
SWIDTH 765 0
DWIDTH 15 0
BBX 15 21 0 0
BITMAP
0390
04E0
0000
0208
03F0
01E0
0000
0060
0060
00E0
0170
0170
0270
0630
0438
0838
0FF8
1038
201C
601C
F07E
ENDCHAR
STARTCHAR uni1EB5
ENCODING 7861
SWIDTH 634 0
DWIDTH 12 0
BBX 11 17 1 0
BITMAP
1C80
2700
0000
1040
1F80
0F00
0000
07E0
18E0
30C0
70C0
61C0
E3C0
E3C0
E580
F980
73E0
ENDCHAR
STARTCHAR uni1EB6
ENCODING 7862
SWIDTH 765 0
DWIDTH 15 0
BBX 15 21 0 -3
BITMAP
0208
03F0
01E0
0000
0060
0060
00E0
0170
0170
0270
0630
0438
0838
0FF8
1038
201C
601C
F07E
0000
01C0
01C0
ENDCHAR
STARTCHAR uni1EB7
ENCODING 7863
SWIDTH 634 0
DWIDTH 12 0
BBX 11 17 1 -3
BITMAP
1040
1F80
0F00
0000
07E0
18E0
30C0
70C0
61C0
E3C0
E3C0
E580
F980
73E0
0000
0E00
0E00
ENDCHAR
STARTCHAR uni1EB8
ENCODING 7864
SWIDTH 630 0
DWIDTH 12 0
BBX 13 17 1 -3
BITMAP
1FF8
0E18
0E18
0C00
1C00
1C60
1FC0
1C40
1800
3800
3800
3820
3860
FFE0
0000
0E00
0E00
ENDCHAR
STARTCHAR uni1EB9
ENCODING 7865
SWIDTH 548 0
DWIDTH 10 0
BBX 9 13 1 -3
BITMAP
0F00
1380
3180
6380
E700
FC00
E000
E000
F180
3F00
0000
1C00
1C00
ENDCHAR
STARTCHAR uni1EBC
ENCODING 7868
SWIDTH 630 0
DWIDTH 12 0
BBX 13 17 1 0
BITMAP
0720
09C0
0000
1FF8
0E18
0E18
0C00
1C00
1C60
1FC0
1C40
1800
3800
3800
3820
3860
FFE0
ENDCHAR
STARTCHAR uni1EBD
ENCODING 7869
SWIDTH 548 0
DWIDTH 10 0
BBX 9 13 1 0
BITMAP
1C80
2700
0000
0F00
1380
3180
6380
E700
FC00
E000
E000
F180
3F00
ENDCHAR
STARTCHAR uni1EBE
ENCODING 7870
SWIDTH 630 0
DWIDTH 12 0
BBX 13 22 1 0
BITMAP
00E0
0180
0300
0000
01C0
03C0
0660
0000
1FF8
0E18
0E18
0C00
1C00
1C60
1FC0
1C40
1800
3800
3800
3820
3860
FFE0
ENDCHAR
STARTCHAR uni1EBF
ENCODING 7871
SWIDTH 548 0
DWIDTH 10 0
BBX 9 18 1 0
BITMAP
0380
0600
0C00
0000
0700
0F00
1980
0000
0F00
1380
3180
6380
E700
FC00
E000
E000
F180
3F00
ENDCHAR
STARTCHAR uni1EC0
ENCODING 7872
SWIDTH 630 0
DWIDTH 12 0
BBX 13 22 1 0
BITMAP
0700
0300
0180
0000
01C0
03C0
0660
0000
1FF8
0E18
0E18
0C00
1C00
1C60
1FC0
1C40
1800
3800
3800
3820
3860
FFE0
ENDCHAR
STARTCHAR uni1EC1
ENCODING 7873
SWIDTH 548 0
DWIDTH 10 0
BBX 9 18 1 0
BITMAP
1C00
0C00
0600
0000
0700
0F00
1980
0000
0F00
1380
3180
6380
E700
FC00
E000
E000
F180
3F00
ENDCHAR
STARTCHAR uni1EC4
ENCODING 7876
SWIDTH 630 0
DWIDTH 12 0
BBX 13 21 1 0
BITMAP
0720
09C0
0000
01C0
03C0
0660
0000
1FF8
0E18
0E18
0C00
1C00
1C60
1FC0
1C40
1800
3800
3800
3820
3860
FFE0
ENDCHAR
STARTCHAR uni1EC5
ENCODING 7877
SWIDTH 548 0
DWIDTH 10 0
BBX 9 17 1 0
BITMAP
1C80
2700
0000
0700
0F00
1980
0000
0F00
1380
3180
6380
E700
FC00
E000
E000
F180
3F00
ENDCHAR
STARTCHAR uni1EC6
ENCODING 7878
SWIDTH 630 0
DWIDTH 12 0
BBX 13 21 1 -3
BITMAP
0380
0780
0CC0
0000
1FF8
0E18
0E18
0C00
1C00
1C60
1FC0
1C40
1800
3800
3800
3820
3860
FFE0
0000
0E00
0E00
ENDCHAR
STARTCHAR uni1EC7
ENCODING 7879
SWIDTH 548 0
DWIDTH 10 0
BBX 9 17 1 -3
BITMAP
0E00
1E00
3300
0000
0F00
1380
3180
6380
E700
FC00
E000
E000
F180
3F00
0000
1C00
1C00
ENDCHAR
STARTCHAR uni1ECA
ENCODING 7882
SWIDTH 372 0
DWIDTH 7 0
BBX 9 17 0 -3
BITMAP
1F80
0E00
0E00
0E00
0E00
1C00
1C00
1C00
1C00
1800
3800
3800
3800
FC00
0000
3800
3800
ENDCHAR
STARTCHAR uni1ECB
ENCODING 7883
SWIDTH 319 0
DWIDTH 6 0
BBX 6 17 2 -3
BITMAP
1C
1C
00
00
F8
38
38
30
70
70
70
60
E0
F8
00
70
70
ENDCHAR
STARTCHAR uni1ECC
ENCODING 7884
SWIDTH 831 0
DWIDTH 16 0
BBX 14 17 2 -3
BITMAP
03F0
0E38
181C
381C
701C
701C
E01C
E01C
E01C
E038
E030
6060
70C0
1F00
0000
0E00
0E00
ENDCHAR
STARTCHAR uni1ECD
ENCODING 7885
SWIDTH 599 0
DWIDTH 11 0
BBX 11 13 1 -3
BITMAP
0F80
19C0
30C0
70E0
E0C0
E1C0
E1C0
E180
F300
3C00
0000
1C00
1C00
ENDCHAR
STARTCHAR uni1ED0
ENCODING 7888
SWIDTH 831 0
DWIDTH 16 0
BBX 14 22 2 0
BITMAP
0070
00C0
0180
0000
00E0
01E0
0330
0000
03F0
0E38
181C
381C
701C
701C
E01C
E01C
E01C
E038
E030
6060
70C0
1F00
ENDCHAR
STARTCHAR uni1ED1
ENCODING 7889
SWIDTH 599 0
DWIDTH 11 0
BBX 11 18 1 0
BITMAP
01C0
0300
0600
0000
0380
0780
0CC0
0000
0F80
19C0
30C0
70E0
E0C0
E1C0
E1C0
E180
F300
3C00
ENDCHAR
STARTCHAR uni1ED2
ENCODING 7890
SWIDTH 831 0
DWIDTH 16 0
BBX 14 22 2 0
BITMAP
0380
0180
00C0
0000
00E0
01E0
0330
0000
03F0
0E38
181C
381C
701C
701C
E01C
E01C
E01C
E038
E030
6060
70C0
1F00
ENDCHAR
STARTCHAR uni1ED3
ENCODING 7891
SWIDTH 599 0
DWIDTH 11 0
BBX 11 18 1 0
BITMAP
0E00
0600
0300
0000
0380
0780
0CC0
0000
0F80
19C0
30C0
70E0
E0C0
E1C0
E1C0
E180
F300
3C00
ENDCHAR
STARTCHAR uni1ED6
ENCODING 7894
SWIDTH 831 0
DWIDTH 16 0
BBX 14 21 2 0
BITMAP
0390
04E0
0000
00E0
01E0
0330
0000
03F0
0E38
181C
381C
701C
701C
E01C
E01C
E01C
E038
E030
6060
70C0
1F00
ENDCHAR
STARTCHAR uni1ED7
ENCODING 7895
SWIDTH 599 0
DWIDTH 11 0
BBX 11 17 1 0
BITMAP
0E40
1380
0000
0380
0780
0CC0
0000
0F80
19C0
30C0
70E0
E0C0
E1C0
E1C0
E180
F300
3C00
ENDCHAR
STARTCHAR uni1ED8
ENCODING 7896
SWIDTH 831 0
DWIDTH 16 0
BBX 14 21 2 -3
BITMAP
01C0
03C0
0660
0000
03F0
0E38
181C
381C
701C
701C
E01C
E01C
E01C
E038
E030
6060
70C0
1F00
0000
0E00
0E00
ENDCHAR
STARTCHAR uni1ED9
ENCODING 7897
SWIDTH 599 0
DWIDTH 11 0
BBX 11 17 1 -3
BITMAP
0700
0F00
1980
0000
0F80
19C0
30C0
70E0
E0C0
E1C0
E1C0
E180
F300
3C00
0000
1C00
1C00
ENDCHAR
STARTCHAR uni1EDA
ENCODING 7898
SWIDTH 831 0
DWIDTH 16 0
BBX 17 18 2 0
BITMAP
003800
006000
00C000
000000
03F380
0E3B80
181F80
381D00
701F00
701E00
E01C00
E01C00
E01C00
E03800
E03000
606000
70C000
1F0000
ENDCHAR
STARTCHAR uni1EDB
ENCODING 7899
SWIDTH 599 0
DWIDTH 11 0
BBX 14 14 1 0
BITMAP
0070
00C0
0180
0000
0F9C
19DC
30DC
70E8
E0D8
E1F0
E1C0
E180
F300
3C00
ENDCHAR
STARTCHAR uni1EDC
ENCODING 7900
SWIDTH 831 0
DWIDTH 16 0
BBX 17 18 2 0
BITMAP
01C000
00C000
006000
000000
03F380
0E3B80
181F80
381D00
701F00
701E00
E01C00
E01C00
E01C00
E03800
E03000
606000
70C000
1F0000
ENDCHAR
STARTCHAR uni1EDD
ENCODING 7901
SWIDTH 599 0
DWIDTH 11 0
BBX 14 14 1 0
BITMAP
0380
0180
00C0
0000
0F9C
19DC
30DC
70E8
E0D8
E1F0
E1C0
E180
F300
3C00
ENDCHAR
STARTCHAR uni1EE0
ENCODING 7904
SWIDTH 831 0
DWIDTH 16 0
BBX 17 17 2 0
BITMAP
01C800
027000
000000
03F380
0E3B80
181F80
381D00
701F00
701E00
E01C00
E01C00
E01C00
E03800
E03000
606000
70C000
1F0000
ENDCHAR
STARTCHAR uni1EE1
ENCODING 7905
SWIDTH 599 0
DWIDTH 11 0
BBX 14 13 1 0
BITMAP
0390
04E0
0000
0F9C
19DC
30DC
70E8
E0D8
E1F0
E1C0
E180
F300
3C00
ENDCHAR
STARTCHAR uni1EE2
ENCODING 7906
SWIDTH 831 0
DWIDTH 16 0
BBX 17 17 2 -3
BITMAP
03F380
0E3B80
181F80
381D00
701F00
701E00
E01C00
E01C00
E01C00
E03800
E03000
606000
70C000
1F0000
000000
070000
070000
ENDCHAR
STARTCHAR uni1EE3
ENCODING 7907
SWIDTH 599 0
DWIDTH 11 0
BBX 14 13 1 -3
BITMAP
0F9C
19DC
30DC
70E8
E0D8
E1F0
E1C0
E180
F300
3C00
0000
1C00
1C00
ENDCHAR
STARTCHAR uni1EE4
ENCODING 7908
SWIDTH 775 0
DWIDTH 15 0
BBX 14 17 3 -3
BITMAP
FC3C
7818
7010
7010
7010
7020
6020
E020
E020
E060
E040
E040
7080
3F00
0000
0E00
0E00
ENDCHAR
STARTCHAR uni1EE5
ENCODING 7909
SWIDTH 655 0
DWIDTH 12 0
BBX 11 13 2 -3
BITMAP
F1E0
70E0
70C0
70C0
71C0
63C0
E7C0
ED80
FB80
73E0
0000
0E00
0E00
ENDCHAR
STARTCHAR uni1EE8
ENCODING 7912
SWIDTH 775 0
DWIDTH 15 0
BBX 17 18 3 0
BITMAP
007000
00C000
018000
000000
FC3F80
781B80
701380
701100
701300
702600
602000
E02000
E02000
E06000
E04000
E04000
708000
3F0000
ENDCHAR
STARTCHAR uni1EE9
ENCODING 7913
SWIDTH 655 0
DWIDTH 12 0
BBX 14 14 2 0
BITMAP
00E0
0180
0300
0000
F1FC
70FC
70DC
70C8
71D8
63F0
E7C0
ED80
FB80
73E0
ENDCHAR
STARTCHAR uni1EEA
ENCODING 7914
SWIDTH 775 0
DWIDTH 15 0
BBX 17 18 3 0
BITMAP
038000
018000
00C000
000000
FC3F80
781B80
701380
701100
701300
702600
602000
E02000
E02000
E06000
E04000
E04000
708000
3F0000
ENDCHAR
STARTCHAR uni1EEB
ENCODING 7915
SWIDTH 655 0
DWIDTH 12 0
BBX 14 14 2 0
BITMAP
0700
0300
0180
0000
F1FC
70FC
70DC
70C8
71D8
63F0
E7C0
ED80
FB80
73E0
ENDCHAR
STARTCHAR uni1EEE
ENCODING 7918
SWIDTH 775 0
DWIDTH 15 0
BBX 17 17 3 0
BITMAP
039000
04E000
000000
FC3F80
781B80
701380
701100
701300
702600
602000
E02000
E02000
E06000
E04000
E04000
708000
3F0000
ENDCHAR
STARTCHAR uni1EEF
ENCODING 7919
SWIDTH 655 0
DWIDTH 12 0
BBX 14 13 2 0
BITMAP
0720
09C0
0000
F1FC
70FC
70DC
70C8
71D8
63F0
E7C0
ED80
FB80
73E0
ENDCHAR
STARTCHAR uni1EF0
ENCODING 7920
SWIDTH 775 0
DWIDTH 15 0
BBX 17 17 3 -3
BITMAP
FC3F80
781B80
701380
701100
701300
702600
602000
E02000
E02000
E06000
E04000
E04000
708000
3F0000
000000
0E0000
0E0000
ENDCHAR
STARTCHAR uni1EF1
ENCODING 7921
SWIDTH 655 0
DWIDTH 12 0
BBX 14 13 2 -3
BITMAP
F1FC
70FC
70DC
70C8
71D8
63F0
E7C0
ED80
FB80
73E0
0000
0E00
0E00
ENDCHAR
STARTCHAR Ygrave
ENCODING 7922
SWIDTH 669 0
DWIDTH 13 0
BBX 13 18 2 0
BITMAP
1C00
0C00
0600
0000
F878
7030
7060
3840
3880
1D00
1F00
0E00
1C00
1C00
1C00
1C00
3C00
7E00
ENDCHAR
STARTCHAR ygrave
ENCODING 7923
SWIDTH 586 0
DWIDTH 11 0
BBX 13 18 0 -4
BITMAP
0700
0300
0180
0000
3C38
1C18
0C18
0E30
0E60
0E40
0680
0700
0700
0600
0400
0800
3000
F000
ENDCHAR
STARTCHAR uni1EF4
ENCODING 7924
SWIDTH 669 0
DWIDTH 13 0
BBX 13 17 2 -3
BITMAP
F878
7030
7060
3840
3880
1D00
1F00
0E00
1C00
1C00
1C00
1C00
3C00
7E00
0000
1C00
1C00
ENDCHAR
STARTCHAR uni1EF5
ENCODING 7925
SWIDTH 586 0
DWIDTH 11 0
BBX 13 17 0 -7
BITMAP
3C38
1C18
0C18
0E30
0E60
0E40
0680
0700
0700
0600
0400
0800
3000
F000
0000
1C00
1C00
ENDCHAR
STARTCHAR uni1EF8
ENCODING 7928
SWIDTH 669 0
DWIDTH 13 0
BBX 13 17 2 0
BITMAP
0E40
1380
0000
F878
7030
7060
3840
3880
1D00
1F00
0E00
1C00
1C00
1C00
1C00
3C00
7E00
ENDCHAR
STARTCHAR uni1EF9
ENCODING 7929
SWIDTH 586 0
DWIDTH 11 0
BBX 13 17 0 -4
BITMAP
0720
09C0
0000
3C38
1C18
0C18
0E30
0E60
0E40
0680
0700
0700
0600
0400
0800
3000
F000
ENDCHAR
STARTCHAR uni2000
ENCODING 8192
SWIDTH 500 0
DWIDTH 13 0
BBX 1 1 0 0
BITMAP
00
ENDCHAR
STARTCHAR uni2001
ENCODING 8193
SWIDTH 1000 0
DWIDTH 26 0
BBX 1 1 0 0
BITMAP
00
ENDCHAR
STARTCHAR uni2002
ENCODING 8194
SWIDTH 500 0
DWIDTH 13 0
BBX 1 1 0 0
BITMAP
00
ENDCHAR
STARTCHAR uni2003
ENCODING 8195
SWIDTH 1000 0
DWIDTH 26 0
BBX 1 1 0 0
BITMAP
00
ENDCHAR
STARTCHAR uni2004
ENCODING 8196
SWIDTH 333 0
DWIDTH 9 0
BBX 1 1 0 0
BITMAP
00
ENDCHAR
STARTCHAR uni2005
ENCODING 8197
SWIDTH 250 0
DWIDTH 7 0
BBX 1 1 0 0
BITMAP
00
ENDCHAR
STARTCHAR uni2006
ENCODING 8198
SWIDTH 167 0
DWIDTH 4 0
BBX 1 1 0 0
BITMAP
00
ENDCHAR
STARTCHAR uni2007
ENCODING 8199
SWIDTH 623 0
DWIDTH 12 0
BBX 1 1 0 0
BITMAP
00
ENDCHAR
STARTCHAR uni2008
ENCODING 8200
SWIDTH 265 0
DWIDTH 5 0
BBX 1 1 0 0
BITMAP
00
ENDCHAR
STARTCHAR uni2009
ENCODING 8201
SWIDTH 200 0
DWIDTH 5 0
BBX 1 1 0 0
BITMAP
00
ENDCHAR
STARTCHAR uni200A
ENCODING 8202
SWIDTH 100 0
DWIDTH 3 0
BBX 1 1 0 0
BITMAP
00
ENDCHAR
STARTCHAR uni200B
ENCODING 8203
SWIDTH 0 0
DWIDTH 0 0
BBX 1 1 0 0
BITMAP
00
ENDCHAR
STARTCHAR uni2010
ENCODING 8208
SWIDTH 289 0
DWIDTH 5 0
BBX 5 1 1 6
BITMAP
F8
ENDCHAR
STARTCHAR uni2011
ENCODING 8209
SWIDTH 289 0
DWIDTH 5 0
BBX 5 1 1 6
BITMAP
F8
ENDCHAR
STARTCHAR figuredash
ENCODING 8210
SWIDTH 500 0
DWIDTH 9 0
BBX 8 1 2 6
BITMAP
FF
ENDCHAR
STARTCHAR endash
ENCODING 8211
SWIDTH 500 0
DWIDTH 9 0
BBX 8 1 2 6
BITMAP
FF
ENDCHAR
STARTCHAR emdash
ENCODING 8212
SWIDTH 1000 0
DWIDTH 19 0
BBX 18 1 2 5
BITMAP
FFFFC0
ENDCHAR
STARTCHAR afii00208
ENCODING 8213
SWIDTH 1000 0
DWIDTH 19 0
BBX 18 1 2 5
BITMAP
FFFFC0
ENDCHAR
STARTCHAR quoteleft
ENCODING 8216
SWIDTH 265 0
DWIDTH 5 0
BBX 4 6 3 8
BITMAP
30
60
40
E0
E0
E0
ENDCHAR
STARTCHAR quoteright
ENCODING 8217
SWIDTH 265 0
DWIDTH 5 0
BBX 4 6 3 8
BITMAP
70
70
70
20
60
C0
ENDCHAR
STARTCHAR quotesinglbase
ENCODING 8218
SWIDTH 265 0
DWIDTH 5 0
BBX 4 7 1 -4
BITMAP
70
70
70
20
60
60
C0
ENDCHAR
STARTCHAR quotereversed
ENCODING 8219
SWIDTH 265 0
DWIDTH 5 0
BBX 4 6 3 8
BITMAP
E0
E0
E0
40
60
30
ENDCHAR
STARTCHAR quotedblleft
ENCODING 8220
SWIDTH 464 0
DWIDTH 9 0
BBX 8 6 3 8
BITMAP
33
66
46
E6
EE
EE
ENDCHAR
STARTCHAR quotedblright
ENCODING 8221
SWIDTH 464 0
DWIDTH 9 0
BBX 8 6 3 8
BITMAP
77
77
67
22
66
CC
ENDCHAR
STARTCHAR quotedblbase
ENCODING 8222
SWIDTH 464 0
DWIDTH 9 0
BBX 8 7 0 -4
BITMAP
77
77
77
22
66
66
CC
ENDCHAR
STARTCHAR uni201F
ENCODING 8223
SWIDTH 464 0
DWIDTH 9 0
BBX 8 6 3 8
BITMAP
EE
EE
E6
44
66
33
ENDCHAR
STARTCHAR dagger
ENCODING 8224
SWIDTH 636 0
DWIDTH 12 0
BBX 9 18 3 -4
BITMAP
0E00
0E00
0C00
0C00
0C00
0C00
FF80
DD80
1800
1800
1800
3800
3800
3800
3000
3000
7000
7000
ENDCHAR
STARTCHAR daggerdbl
ENCODING 8225
SWIDTH 636 0
DWIDTH 12 0
BBX 11 18 2 -4
BITMAP
0380
0300
0300
0700
0700
0700
7FE0
6660
0600
0E00
0E00
0C00
FFC0
CCC0
1C00
1C00
1C00
3800
ENDCHAR
STARTCHAR bullet
ENCODING 8226
SWIDTH 636 0
DWIDTH 12 0
BBX 7 7 4 2
BITMAP
38
7C
FE
FE
FE
7C
38
ENDCHAR
STARTCHAR ellipsis
ENCODING 8230
SWIDTH 1000 0
DWIDTH 19 0
BBX 15 2 2 0
BITMAP
C186
C306
ENDCHAR
STARTCHAR perthousand
ENCODING 8240
SWIDTH 1156 0
DWIDTH 22 0
BBX 22 14 1 0
BITMAP
3C0E00
661800
663000
C62000
C66000
6CC000
798000
037878
06CCCC
0CCCCC
19CDCC
318D8C
60D8D8
C0F0F0
ENDCHAR
STARTCHAR guilsinglleft
ENCODING 8249
SWIDTH 310 0
DWIDTH 6 0
BBX 6 9 1 1
BITMAP
04
18
38
70
E0
60
70
30
10
ENDCHAR
STARTCHAR guilsinglright
ENCODING 8250
SWIDTH 310 0
DWIDTH 6 0
BBX 6 9 1 1
BITMAP
20
30
38
18
1C
38
70
60
80
ENDCHAR
STARTCHAR fraction
ENCODING 8260
SWIDTH 55 0
DWIDTH 1 0
BBX 15 14 -4 0
BITMAP
0006
0008
0018
0030
0060
00C0
0180
0300
0600
0C00
1800
3000
2000
C000
ENDCHAR
STARTCHAR oneinferior
ENCODING 8321
SWIDTH 381 0
DWIDTH 7 0
BBX 5 9 -11 -4
BITMAP
38
18
18
10
30
30
30
30
F8
ENDCHAR
STARTCHAR twoinferior
ENCODING 8322
SWIDTH 381 0
DWIDTH 7 0
BBX 7 9 -10 -4
BITMAP
3C
26
66
06
0C
30
60
40
FC
ENDCHAR
STARTCHAR threeinferior
ENCODING 8323
SWIDTH 381 0
DWIDTH 7 0
BBX 6 9 -11 -4
BITMAP
3C
6C
04
08
38
0C
0C
88
F0
ENDCHAR
STARTCHAR uni20A5
ENCODING 8357
SWIDTH 969 0
DWIDTH 18 0
BBX 17 18 2 -4
BITMAP
000600
000400
000800
001800
F9D700
33EF80
34FB80
78F380
79E300
71C300
61C700
638700
E38700
E78780
0C0000
080000
100000
300000
ENDCHAR
STARTCHAR uni20A6
ENCODING 8358
SWIDTH 797 0
DWIDTH 15 0
BBX 17 14 0 0
BITMAP
1E0F80
0E0200
0F0200
0F0600
1FFE00
1B8400
11C400
11C400
1FFC00
306C00
307800
203800
203800
F81800
ENDCHAR
STARTCHAR uni20A9
ENCODING 8361
SWIDTH 922 0
DWIDTH 17 0
BBX 18 14 2 0
BITMAP
F843C0
70C180
70C100
71E300
7FFE00
72E600
72E400
74EC00
3FFC00
38F800
387000
307000
306000
206000
ENDCHAR
STARTCHAR Euro
ENCODING 8364
SWIDTH 740 0
DWIDTH 14 0
BBX 16 14 -1 0
BITMAP
007F
01C3
0303
0602
7FF0
0E00
1C00
1C00
FFE0
1C00
1C00
0E00
0F0C
03F0
ENDCHAR
STARTCHAR uni20AD
ENCODING 8365
SWIDTH 746 0
DWIDTH 14 0
BBX 15 14 1 0
BITMAP
1F9E
0E08
0E10
0C60
1CC0
1D00
FFFE
1F80
1BC0
39E0
38E0
3870
3878
FCFC
ENDCHAR
STARTCHAR uni2103
ENCODING 8451
SWIDTH 986 0
DWIDTH 19 0
BBX 16 14 4 0
BITMAP
607F
A1C3
A303
6602
0E00
0E00
1C00
1C00
1C00
1C00
1C00
0E00
0F0C
03F0
ENDCHAR
STARTCHAR uni2109
ENCODING 8457
SWIDTH 848 0
DWIDTH 16 0
BBX 15 14 4 0
BITMAP
67FE
A386
A386
6300
0700
0718
07F0
0710
0600
0E00
0E00
0E00
0E00
3F00
ENDCHAR
STARTCHAR trademark
ENCODING 8482
SWIDTH 1044 0
DWIDTH 20 0
BBX 19 8 3 6
BITMAP
FF79E0
9939C0
183B80
183B80
187D80
306D80
306980
78C3C0
ENDCHAR
STARTCHAR uni212A
ENCODING 8490
SWIDTH 746 0
DWIDTH 14 0
BBX 15 14 1 0
BITMAP
1F9E
0E08
0E10
0C60
1CC0
1D00
1F00
1F80
1BC0
39E0
38E0
3870
3878
FCFC
ENDCHAR
STARTCHAR uni212B
ENCODING 8491
SWIDTH 765 0
DWIDTH 15 0
BBX 15 18 0 0
BITMAP
0070
0050
0070
0000
0060
0060
00E0
0170
0170
0270
0630
0438
0838
0FF8
1038
201C
601C
F07E
ENDCHAR
STARTCHAR uni2132
ENCODING 8498
SWIDTH 602 0
DWIDTH 11 0
BBX 13 14 1 0
BITMAP
01F8
00E0
00E0
00E0
00E0
00C0
11C0
1FC0
31C0
01C0
0180
C380
C380
FFC0
ENDCHAR
STARTCHAR minus
ENCODING 8722
SWIDTH 636 0
DWIDTH 12 0
BBX 11 1 2 6
BITMAP
FFE0
ENDCHAR
STARTCHAR fraction
ENCODING 8725
SWIDTH 55 0
DWIDTH 1 0
BBX 15 14 -4 0
BITMAP
0006
0008
0018
0030
0060
00C0
0180
0300
0600
0C00
1800
3000
2000
C000
ENDCHAR
STARTCHAR periodcentered
ENCODING 8729
SWIDTH 636 0
DWIDTH 12 0
BBX 3 2 6 5
BITMAP
E0
E0
ENDCHAR
STARTCHAR uni2236
ENCODING 8758
SWIDTH 265 0
DWIDTH 5 0
BBX 5 10 1 0
BITMAP
38
38
38
00
00
00
00
E0
E0
E0
ENDCHAR
STARTCHAR uni2259
ENCODING 8793
SWIDTH 636 0
DWIDTH 12 0
BBX 12 9 1 3
BITMAP
0700
0F00
1980
0000
7FF0
0000
0000
0000
FFE0
ENDCHAR
STARTCHAR uni225A
ENCODING 8794
SWIDTH 636 0
DWIDTH 12 0
BBX 12 9 1 3
BITMAP
1180
0B00
0E00
0000
7FF0
0000
0000
0000
FFE0
ENDCHAR
STARTCHAR notequal
ENCODING 8800
SWIDTH 636 0
DWIDTH 12 0
BBX 13 18 1 -3
BITMAP
0018
0010
0020
0060
0040
0080
0080
7FF0
0200
0200
0400
FFE0
0800
1000
3000
2000
4000
C000
ENDCHAR
STARTCHAR equivalence
ENCODING 8801
SWIDTH 636 0
DWIDTH 12 0
BBX 12 5 0 3
BITMAP
FFF0
0000
FFF0
0000
FFF0
ENDCHAR
STARTCHAR uni2262
ENCODING 8802
SWIDTH 636 0
DWIDTH 12 0
BBX 13 18 0 -3
BITMAP
0018
0010
0020
0060
0040
0080
0080
FFF0
0200
FFF0
0400
FFF0
0800
1000
3000
2000
4000
C000
ENDCHAR
STARTCHAR lessequal
ENCODING 8804
SWIDTH 636 0
DWIDTH 12 0
BBX 12 14 2 -2
BITMAP
0010
0070
01C0
0700
1C00
F000
7000
1800
0E00
0380
01C0
0040
0000
FFF0
ENDCHAR
STARTCHAR greaterequal
ENCODING 8805
SWIDTH 636 0
DWIDTH 12 0
BBX 12 14 0 -2
BITMAP
2000
3800
1C00
0700
0180
00E0
00F0
0380
0E00
3800
E000
8000
0000
FFF0
ENDCHAR
STARTCHAR uni226E
ENCODING 8814
SWIDTH 636 0
DWIDTH 12 0
BBX 13 18 2 -3
BITMAP
0018
0010
0020
0070
0070
01C0
0780
1D00
F200
7200
1C00
0E00
0B80
11C0
3040
2000
4000
C000
ENDCHAR
STARTCHAR uni226F
ENCODING 8815
SWIDTH 636 0
DWIDTH 12 0
BBX 13 18 0 -3
BITMAP
0018
0010
0020
2060
3840
1C80
0780
0180
02E0
02F0
0780
0E00
3800
F000
B000
2000
4000
C000
ENDCHAR
STARTCHAR uni2270
ENCODING 8816
SWIDTH 636 0
DWIDTH 12 0
BBX 13 18 2 -4
BITMAP
0018
0010
0030
0070
01C0
0780
1C80
F100
7200
1A00
0E00
0F80
09C0
1040
3000
FFF0
4000
C000
ENDCHAR
STARTCHAR uni2271
ENCODING 8817
SWIDTH 636 0
DWIDTH 12 0
BBX 13 18 0 -4
BITMAP
0018
0010
2020
3860
1C40
0780
0180
01E0
02F0
0380
0E00
3C00
E800
9000
3000
FFF0
4000
C000
ENDCHAR
STARTCHAR fi
ENCODING -1
SWIDTH 662 0
DWIDTH 13 0
BBX 13 19 1 -4
BITMAP
03C0
06B8
0CB8
1C00
1C00
7FF0
1870
3870
3860
38E0
38E0
30E0
70E0
70C0
71F0
7000
6000
E000
E000
ENDCHAR
STARTCHAR fl
ENCODING -1
SWIDTH 668 0
DWIDTH 13 0
BBX 13 19 1 -4
BITMAP
03F8
0638
0C38
1C30
1C70
7F70
1870
3870
3860
38E0
30E0
30E0
70E0
70C0
71F0
7000
6000
E000
E000
ENDCHAR
ENDFONT
